<svg width="364" height="478" viewBox="0 0 364 478" fill="none" xmlns="http://www.w3.org/2000/svg">
<g opacity="0.2">
<path d="M450.617 -55.9534L68.6577 111.421C35.3219 126.03 30.2944 171.254 59.6189 192.816L395.529 439.95C424.846 461.519 466.525 443.258 470.536 407.095L516.586 -7.40529C520.605 -43.5987 483.953 -70.5622 450.617 -55.9534Z" fill="#FFC1EB"/>
<path d="M575.472 458.432H17.2293C16.824 458.432 16.4353 458.271 16.1487 457.985C15.8622 457.698 15.7012 457.309 15.7012 456.904C15.7012 456.499 15.8622 456.11 16.1487 455.824C16.4353 455.537 16.824 455.376 17.2293 455.376H575.472C575.877 455.376 576.266 455.537 576.552 455.824C576.839 456.11 577 456.499 577 456.904C577 457.309 576.839 457.698 576.552 457.985C576.266 458.271 575.877 458.432 575.472 458.432Z" fill="black"/>
<path d="M361.17 152.168L415.54 118.321C416.384 117.796 417.336 117.467 418.324 117.36C419.312 117.253 420.312 117.369 421.249 117.701C422.186 118.033 423.037 118.571 423.737 119.276C424.438 119.981 424.971 120.835 425.297 121.774L432.51 142.656C432.852 143.647 432.954 144.706 432.808 145.744C432.661 146.783 432.27 147.772 431.667 148.63C431.063 149.488 430.264 150.19 429.336 150.679C428.408 151.168 427.378 151.43 426.329 151.442L361.17 152.168Z" fill="#FB6D6D"/>
<path d="M284.29 268.694C309.604 268.694 330.126 248.173 330.126 222.858C330.126 197.544 309.604 177.022 284.29 177.022C258.975 177.022 238.454 197.544 238.454 222.858C238.454 248.173 258.975 268.694 284.29 268.694Z" fill="black"/>
<path d="M373.44 244C399.907 244 421.362 222.681 421.362 196.384C421.362 170.086 399.907 148.768 373.44 148.768C346.974 148.768 325.519 170.086 325.519 196.384C325.519 222.681 346.974 244 373.44 244Z" fill="black"/>
<path d="M331.341 188.736H302.215C295.045 188.736 287.946 187.324 281.322 184.58C274.698 181.836 268.679 177.814 263.61 172.744C258.54 167.674 254.519 161.655 251.776 155.03C249.033 148.406 247.622 141.306 247.623 134.137V96.8812C247.633 88.3168 251.043 80.1068 257.103 74.0552C263.163 68.0035 271.378 64.6054 279.943 64.6074H319.269C332.594 64.6074 345.374 69.901 354.797 79.3236C364.219 88.7463 369.513 101.526 369.513 114.852V150.633C369.509 155.641 368.518 160.6 366.598 165.225C364.677 169.851 361.864 174.053 358.319 177.591C354.775 181.13 350.568 183.935 345.939 185.847C341.31 187.759 336.349 188.741 331.341 188.736Z" fill="black"/>
<path d="M259.672 77.3672C259.672 77.3672 242.389 79.9191 237.85 116.472C237.314 120.937 235.386 125.12 232.341 128.429L229.56 131.439C228.859 132.197 228.46 133.186 228.439 134.218C228.418 135.25 228.776 136.254 229.446 137.04L233.212 141.472L231.31 164.852C231.31 164.852 227.49 189.768 256.822 188.996H275.48V214.844H334.121V170.414C334.121 170.414 347.485 168.122 349.914 154.965C350.528 151.676 350.389 148.291 349.508 145.063C348.627 141.836 347.026 138.85 344.826 136.329C340.448 131.371 332.731 127.161 320.025 133.09C320.032 133.09 269.559 143.221 259.672 77.3672Z" fill="white"/>
<path d="M330.126 160.61C328.917 160.61 327.735 160.251 326.73 159.58C325.725 158.908 324.942 157.953 324.479 156.836C324.016 155.719 323.895 154.49 324.131 153.305C324.367 152.119 324.949 151.03 325.804 150.175C326.659 149.32 327.748 148.738 328.934 148.502C330.119 148.266 331.348 148.387 332.465 148.85C333.582 149.313 334.537 150.096 335.208 151.101C335.88 152.107 336.239 153.288 336.239 154.497C336.239 156.118 335.595 157.673 334.448 158.819C333.302 159.966 331.747 160.61 330.126 160.61ZM330.126 151.395C329.522 151.395 328.931 151.574 328.428 151.91C327.926 152.246 327.534 152.723 327.303 153.282C327.071 153.84 327.011 154.455 327.129 155.048C327.247 155.64 327.538 156.185 327.965 156.612C328.392 157.04 328.937 157.331 329.53 157.449C330.123 157.567 330.737 157.506 331.296 157.275C331.854 157.044 332.331 156.652 332.667 156.149C333.003 155.647 333.182 155.056 333.182 154.451C333.182 153.641 332.86 152.863 332.287 152.29C331.714 151.717 330.937 151.395 330.126 151.395Z" fill="black"/>
<path d="M325.519 156.003C325.121 156.003 324.739 155.849 324.454 155.572C324.169 155.295 324.003 154.918 323.991 154.521C323.884 151.365 324.823 148.814 326.795 146.934C330.707 143.205 337.239 143.679 337.491 143.702C337.897 143.733 338.273 143.924 338.537 144.233C338.802 144.542 338.933 144.943 338.901 145.348C338.87 145.754 338.679 146.13 338.37 146.394C338.061 146.659 337.66 146.79 337.255 146.758C337.201 146.758 331.784 146.376 328.85 149.173C327.528 150.441 326.925 152.16 327.001 154.437C327.008 154.638 326.975 154.839 326.905 155.028C326.834 155.216 326.727 155.389 326.589 155.536C326.451 155.683 326.286 155.801 326.102 155.884C325.918 155.967 325.72 156.013 325.519 156.019V156.003Z" fill="black"/>
<path d="M265.823 133.043C267.819 133.043 269.437 131.425 269.437 129.429C269.437 127.433 267.819 125.815 265.823 125.815C263.827 125.815 262.209 127.433 262.209 129.429C262.209 131.425 263.827 133.043 265.823 133.043Z" fill="black"/>
<path d="M253.132 163.522C251.66 163.528 250.202 163.236 248.845 162.666C244.452 160.809 241.503 155.912 241.51 150.487C241.512 150.032 241.613 149.583 241.807 149.171C242.001 148.76 242.282 148.396 242.632 148.104C242.981 147.813 243.39 147.602 243.83 147.486C244.27 147.369 244.73 147.35 245.178 147.431L263.4 150.686C263.866 150.772 264.307 150.962 264.688 151.243C265.07 151.524 265.383 151.888 265.603 152.307C265.824 152.726 265.947 153.19 265.962 153.664C265.978 154.137 265.885 154.608 265.693 155.041C263.355 160.236 258.182 163.522 253.132 163.522ZM244.628 150.403C244.619 150.425 244.619 150.45 244.628 150.472C244.628 154.689 246.82 158.448 250.098 159.839C255.126 161.963 260.917 158.311 262.973 153.727L262.927 153.635L244.696 150.38L244.628 150.403Z" fill="black"/>
<path d="M274.999 189.026H303.017C303.265 189.028 303.505 189.115 303.697 189.273C303.889 189.431 304.021 189.649 304.071 189.893C304.121 190.136 304.086 190.389 303.972 190.609C303.858 190.83 303.672 191.005 303.445 191.105L274.999 203.253V189.026Z" fill="black"/>
<path d="M274.999 214.248C274.993 212.855 275.436 211.496 276.261 210.373C277.087 209.251 278.252 208.423 279.583 208.013C280.603 207.705 281.649 207.495 282.708 207.387C286.71 207.016 290.72 208.01 294.085 210.206C296.896 208.029 300.348 206.843 303.903 206.835C307.458 206.827 310.916 207.996 313.737 210.16C316.583 208.25 319.907 207.175 323.333 207.058C325.483 206.999 327.625 207.325 329.66 208.021C330.927 208.464 332.025 209.29 332.802 210.386C333.578 211.481 333.994 212.791 333.992 214.134V227.505H274.999V214.248Z" fill="#C7B8F8"/>
<path d="M502.467 407.134L165.327 406.851L180.272 270.031C181.689 257.065 187.835 245.076 197.536 236.356C207.236 227.637 219.811 222.799 232.854 222.767L372.226 222.415C388.486 222.376 404.388 227.195 417.891 236.255C431.394 245.315 441.883 258.202 448.012 273.263C476.282 338.269 496.736 385.732 498.967 391.363C500.029 394.124 500.88 396.962 501.512 399.852C502.007 402.253 502.327 404.686 502.467 407.134Z" fill="#C7B8F8"/>
<path d="M400.465 406.958H227.65V289.836H358.067C359.849 289.836 361.584 290.407 363.018 291.464C364.451 292.521 365.509 294.01 366.036 295.711L400.465 406.958Z" fill="black"/>
<path d="M358.045 291.363C357.681 291.368 357.327 291.243 357.047 291.011C356.766 290.778 356.578 290.453 356.517 290.095C356.089 287.566 346.255 228.122 366.77 220.978C367.153 220.844 367.574 220.868 367.939 221.044C368.304 221.221 368.585 221.535 368.719 221.918C368.852 222.301 368.828 222.721 368.652 223.087C368.476 223.452 368.162 223.732 367.779 223.866C352.75 229.092 356.731 273.079 359.535 289.575C359.569 289.773 359.563 289.976 359.518 290.172C359.474 290.368 359.391 290.554 359.274 290.718C359.158 290.882 359.01 291.021 358.84 291.128C358.67 291.235 358.48 291.307 358.282 291.34C358.203 291.354 358.124 291.362 358.045 291.363Z" fill="black"/>
<path d="M231.471 291.363C231.126 291.364 230.791 291.248 230.521 291.034C230.25 290.821 230.06 290.522 229.981 290.187C225.991 273.554 225.884 256.226 229.668 239.545C231.039 233.606 232.91 227.794 235.26 222.17C235.424 221.807 235.722 221.523 236.092 221.376C236.463 221.23 236.875 221.234 237.242 221.387C237.61 221.541 237.903 221.831 238.059 222.197C238.215 222.563 238.223 222.976 238.08 223.347C235.798 228.813 233.981 234.461 232.647 240.233C228.967 256.458 229.074 273.314 232.961 289.491C233.006 289.687 233.012 289.89 232.979 290.088C232.946 290.286 232.874 290.475 232.768 290.646C232.661 290.816 232.522 290.964 232.359 291.08C232.195 291.197 232.01 291.28 231.815 291.325C231.702 291.353 231.586 291.366 231.471 291.363Z" fill="black"/>
<path d="M209.627 195.811C208.038 193.757 206.215 191.896 204.194 190.264L204.11 190.188C200.331 186.834 197.049 182.959 194.361 178.681C191.977 174.861 190.54 170.949 188.202 164.928C187.033 161.933 186.208 159.58 185.75 158.265C180.302 142.618 176.726 128.589 171.195 126.572C170.362 126.29 169.497 126.113 168.62 126.045C167.452 125.936 166.275 126.061 165.157 126.414C164.039 126.767 163.003 127.341 162.11 128.101C161.518 128.606 161.003 129.195 160.582 129.85C158.442 133.25 159.504 138.178 161.697 147.89C162.049 149.418 162.362 150.678 162.568 151.519L167.008 171.873C167.008 171.873 156.097 174.341 156.708 182.99C156.708 182.99 146.623 177.015 142.711 188.751C142.711 188.751 129.951 189.783 133.656 203.78C133.656 203.78 138.799 222.515 146.416 223.134C146.416 223.134 144.98 252.367 169.269 265.157L209 260.16L211.613 248.837C218.49 219.038 215.388 209.373 214.234 205.797C213.119 202.29 211.571 198.936 209.627 195.811Z" fill="white"/>
<path d="M174.419 248.585C174.178 248.586 173.94 248.529 173.725 248.42C173.51 248.311 173.323 248.153 173.181 247.958C168.594 241.73 165.746 234.394 164.929 226.702C163.195 209.129 173.235 196.14 177.345 191.67L174.159 183.449C173.846 182.616 173.441 181.554 172.99 180.5C170.461 174.624 169.323 169.688 169.613 165.822C169.695 164.655 170.013 163.516 170.548 162.474C171.082 161.433 171.822 160.511 172.723 159.763C173.605 159.028 174.627 158.479 175.728 158.151C176.829 157.822 177.985 157.721 179.125 157.853C186.048 158.617 190.189 166.533 190.365 166.861C190.457 167.04 190.513 167.235 190.53 167.435C190.547 167.636 190.524 167.837 190.463 168.029C190.402 168.221 190.304 168.398 190.175 168.552C190.045 168.705 189.886 168.832 189.708 168.924C189.529 169.017 189.334 169.073 189.134 169.09C188.933 169.107 188.732 169.084 188.54 169.023C188.349 168.962 188.171 168.864 188.017 168.734C187.864 168.605 187.737 168.446 187.645 168.267C187.645 168.199 184.077 161.475 178.789 160.894C178.056 160.808 177.313 160.872 176.605 161.082C175.897 161.292 175.239 161.644 174.671 162.117C174.087 162.602 173.608 163.201 173.262 163.878C172.917 164.554 172.713 165.294 172.662 166.052C172.409 169.421 173.464 173.875 175.794 179.293C176.276 180.4 176.696 181.516 177.017 182.349L180.898 192.358L180.218 193.061C176.91 196.492 166.259 209.03 167.993 226.389C168.746 233.533 171.383 240.349 175.634 246.14C175.872 246.466 175.971 246.874 175.91 247.274C175.848 247.673 175.631 248.032 175.305 248.272C175.05 248.467 174.74 248.576 174.419 248.585Z" fill="black"/>
<path d="M260.971 399.493C250.624 398.811 240.24 400.044 230.34 403.13C193.505 414.736 177.162 448.752 173.693 456.453L260.971 456.904V399.493Z" fill="white"/>
<path d="M262.499 458.44L171.332 457.966L172.294 455.827C177.994 443.204 195.002 412.665 229.881 401.67C239.959 398.528 250.529 397.271 261.062 397.964L262.499 398.056V458.44ZM176.084 454.94L259.443 455.368V400.937C249.752 400.465 240.055 401.709 230.798 404.612C198.929 414.629 182.449 441.669 176.084 454.94Z" fill="black"/>
<path d="M160.75 227.352C159.258 227.367 157.782 227.043 156.433 226.404C154.753 225.581 153.329 224.316 152.314 222.745C151.791 223.384 151.137 223.905 150.397 224.273C148.992 224.938 147.385 225.034 145.912 224.54C145.723 224.471 145.55 224.366 145.402 224.231C145.254 224.095 145.134 223.931 145.049 223.749C144.964 223.567 144.916 223.37 144.908 223.17C144.899 222.969 144.93 222.769 144.999 222.58C145.067 222.392 145.173 222.218 145.308 222.07C145.444 221.923 145.607 221.803 145.789 221.718C145.971 221.633 146.168 221.585 146.369 221.576C146.569 221.568 146.77 221.599 146.958 221.667C147.656 221.877 148.405 221.825 149.067 221.522C149.529 221.225 149.927 220.839 150.238 220.386C150.549 219.934 150.766 219.424 150.878 218.886L152.406 213.912L153.835 218.909C153.835 218.909 154.851 222.248 157.8 223.639C159.894 224.632 162.553 224.456 165.701 223.127C165.887 223.039 166.089 222.99 166.294 222.982C166.5 222.975 166.705 223.009 166.897 223.082C167.089 223.155 167.264 223.267 167.412 223.41C167.56 223.552 167.678 223.724 167.758 223.913C167.838 224.102 167.88 224.306 167.879 224.512C167.879 224.717 167.837 224.921 167.756 225.11C167.676 225.299 167.557 225.47 167.409 225.612C167.261 225.755 167.085 225.865 166.893 225.938C164.96 226.815 162.871 227.296 160.75 227.352Z" fill="black"/>
<path d="M152.338 220.872C152.014 220.871 151.698 220.766 151.437 220.574C151.176 220.382 150.983 220.111 150.886 219.802L141.244 189.194C141.122 188.807 141.159 188.388 141.347 188.028C141.535 187.668 141.858 187.398 142.245 187.276C142.632 187.155 143.051 187.192 143.411 187.38C143.77 187.567 144.041 187.89 144.162 188.277L153.767 218.885C153.827 219.077 153.849 219.279 153.831 219.479C153.814 219.679 153.757 219.874 153.664 220.052C153.571 220.23 153.444 220.388 153.29 220.517C153.135 220.646 152.957 220.743 152.766 220.803C152.627 220.846 152.483 220.869 152.338 220.872Z" fill="black"/>
<path d="M167.466 214.537C167.151 214.537 166.844 214.439 166.587 214.257C166.33 214.075 166.135 213.818 166.03 213.521L155.295 183.486C155.227 183.297 155.197 183.096 155.207 182.896C155.217 182.695 155.266 182.498 155.352 182.317C155.438 182.135 155.558 181.972 155.707 181.837C155.856 181.702 156.03 181.598 156.219 181.53C156.408 181.462 156.609 181.432 156.81 181.442C157.01 181.452 157.207 181.501 157.389 181.587C157.57 181.673 157.733 181.794 157.868 181.943C158.003 182.091 158.107 182.265 158.175 182.454L168.872 212.497C168.954 212.728 168.979 212.975 168.946 213.218C168.912 213.461 168.821 213.692 168.679 213.892C168.538 214.092 168.35 214.255 168.132 214.367C167.915 214.48 167.673 214.538 167.428 214.537H167.466Z" fill="black"/>
<path d="M68.0853 140.552H19.5295C9.58772 140.552 1.52832 148.611 1.52832 158.553V207.109C1.52832 217.051 9.58772 225.11 19.5295 225.11H68.0853C78.0271 225.11 86.0865 217.051 86.0865 207.109V158.553C86.0865 148.611 78.0271 140.552 68.0853 140.552Z" fill="white"/>
<path d="M68.0774 226.637H19.5293C14.351 226.629 9.38715 224.568 5.72623 220.906C2.06531 217.243 0.00606204 212.279 0 207.1V158.537C0.00606204 153.359 2.06531 148.394 5.72623 144.732C9.38715 141.069 14.351 139.008 19.5293 139H68.0774C73.2571 139.006 78.2229 141.066 81.8854 144.729C85.548 148.392 87.6083 153.357 87.6144 158.537V207.077C87.6144 212.261 85.5567 217.233 81.8935 220.9C78.2303 224.568 73.2611 226.631 68.0774 226.637ZM19.5293 142.079C15.1642 142.083 10.9789 143.818 7.89093 146.903C4.80295 149.988 3.06432 154.172 3.05623 158.537V207.077C3.06027 211.446 4.79687 215.634 7.88508 218.724C10.9733 221.814 15.1609 223.552 19.5293 223.558H68.0774C72.4465 223.552 76.6349 221.814 79.7243 218.724C82.8138 215.635 84.5521 211.447 84.5581 207.077V158.537C84.5541 154.167 82.8164 149.978 79.7266 146.888C76.6367 143.798 72.4472 142.06 68.0774 142.056L19.5293 142.079Z" fill="black"/>
<path d="M67.3895 169.012C66.4552 167.297 65.0607 165.876 63.3629 164.909C55.5619 160.547 47.6845 163.251 43.826 168.921C39.914 163.183 31.8838 160.47 23.9605 165.1C22.5229 165.937 21.3214 167.126 20.4688 168.554C16.8854 174.575 17.5883 180.618 20.5987 184.92C20.653 184.997 20.7117 185.071 20.7744 185.142V185.18C20.8356 185.264 24.6711 189.711 27.0703 192.14C31.6502 196.602 36.452 200.83 41.4574 204.808C42.1049 205.336 42.9145 205.624 43.7496 205.624C44.5847 205.624 45.3943 205.336 46.0418 204.808C50.3587 201.363 53.8657 198.375 56.4711 196.091C58.4615 194.434 60.3401 192.647 62.0946 190.742C65.8385 186.609 74.0826 181.191 67.3895 169.012Z" fill="#FB6D6D"/>
<path d="M437.071 472.529H271.576C269.051 472.53 266.55 472.034 264.217 471.068C261.884 470.103 259.764 468.687 257.978 466.902C256.192 465.117 254.775 462.997 253.809 460.664C252.842 458.331 252.345 455.831 252.345 453.306V421.575C252.347 410.254 256.845 399.397 264.85 391.392C272.855 383.387 283.712 378.889 295.033 378.887H474.219C481.717 378.887 488.907 381.865 494.209 387.167C499.511 392.468 502.489 399.659 502.489 407.157C502.486 415.745 500.792 424.248 497.502 432.181C494.213 440.114 489.394 447.321 483.319 453.392C477.244 459.462 470.034 464.277 462.098 467.56C454.163 470.844 445.659 472.533 437.071 472.529Z" fill="#C7B8F8"/>
<path d="M181.15 475.562C174.299 475.42 167.543 473.93 161.267 471.177C154.992 468.424 149.321 464.461 144.577 459.516C139.833 454.571 136.11 448.74 133.62 442.355C131.13 435.971 129.922 429.159 130.065 422.308L132.915 285.198C133.081 277.324 136.368 269.838 142.052 264.387C147.735 258.935 155.351 255.964 163.225 256.125L208.19 257.065C216.058 257.236 223.536 260.523 228.98 266.206C234.425 271.888 237.39 279.5 237.224 287.368L234.405 424.478C234.263 431.329 232.772 438.085 230.019 444.36C227.266 450.635 223.304 456.307 218.358 461.051C213.413 465.794 207.582 469.518 201.198 472.007C194.813 474.497 188.001 475.705 181.15 475.562Z" fill="#C7B8F8"/>
<path d="M237.438 291.364C237.032 291.364 236.644 291.203 236.357 290.916C236.071 290.63 235.91 290.241 235.91 289.836C235.711 259.342 210.772 258.677 209.725 258.677C209.32 258.677 208.931 258.516 208.645 258.23C208.358 257.943 208.197 257.554 208.197 257.149C208.197 256.744 208.358 256.355 208.645 256.069C208.931 255.782 209.32 255.621 209.725 255.621C210.016 255.621 238.714 256.286 238.935 289.843C238.935 290.248 238.774 290.637 238.488 290.924C238.201 291.21 237.812 291.371 237.407 291.371L237.438 291.364Z" fill="black"/>
<path d="M326.772 224.386H279.4C278.995 224.386 278.606 224.225 278.32 223.939C278.033 223.652 277.872 223.263 277.872 222.858C277.872 222.453 278.033 222.064 278.32 221.778C278.606 221.491 278.995 221.33 279.4 221.33H326.772C327.177 221.33 327.566 221.491 327.852 221.778C328.139 222.064 328.3 222.453 328.3 222.858C328.3 223.263 328.139 223.652 327.852 223.939C327.566 224.225 327.177 224.386 326.772 224.386Z" fill="black"/>
<path d="M281.876 466.592C281.47 466.592 281.082 466.431 280.795 466.145C280.509 465.858 280.348 465.469 280.348 465.064V395.749C280.348 395.344 280.509 394.955 280.795 394.668C281.082 394.382 281.47 394.221 281.876 394.221C282.281 394.221 282.67 394.382 282.956 394.668C283.243 394.955 283.404 395.344 283.404 395.749V465.064C283.404 465.469 283.243 465.858 282.956 466.145C282.67 466.431 282.281 466.592 281.876 466.592Z" fill="black"/>
<path d="M218.909 284.87H149.602C149.197 284.87 148.808 284.709 148.521 284.422C148.235 284.136 148.074 283.747 148.074 283.342C148.074 282.936 148.235 282.548 148.521 282.261C148.808 281.974 149.197 281.813 149.602 281.813H218.909C219.315 281.813 219.703 281.974 219.99 282.261C220.277 282.548 220.438 282.936 220.438 283.342C220.438 283.747 220.277 284.136 219.99 284.422C219.703 284.709 219.315 284.87 218.909 284.87Z" fill="black"/>
<path d="M52.4752 388.483C52.1621 388.483 51.8564 388.387 51.5995 388.208C51.3426 388.029 51.1468 387.776 51.0388 387.482C42.1758 363.307 23.8537 343.678 23.6703 343.487C23.3917 343.193 23.2416 342.799 23.2531 342.394C23.2645 341.988 23.4366 341.604 23.7314 341.325C24.0263 341.046 24.4197 340.896 24.8252 340.908C25.2307 340.919 25.6151 341.091 25.8937 341.386C26.0771 341.585 44.827 361.649 53.9117 386.466C54.0497 386.846 54.0315 387.265 53.8611 387.631C53.6907 387.998 53.3819 388.282 53.0024 388.422C52.8321 388.475 52.6533 388.495 52.4752 388.483Z" fill="black"/>
<path d="M61.1243 390.974C60.719 390.974 60.3303 390.813 60.0438 390.526C59.7572 390.24 59.5962 389.851 59.5962 389.446V368.518C59.5962 368.113 59.7572 367.724 60.0438 367.438C60.3303 367.151 60.719 366.99 61.1243 366.99C61.5296 366.99 61.9183 367.151 62.2048 367.438C62.4914 367.724 62.6524 368.113 62.6524 368.518V389.446C62.6524 389.851 62.4914 390.24 62.2048 390.526C61.9183 390.813 61.5296 390.974 61.1243 390.974Z" fill="black"/>
<path d="M106.15 420.918C106.148 415.915 104.16 411.118 100.623 407.581C97.0852 404.044 92.2881 402.055 87.2855 402.053H83.0832V387.804H31.0815V402.061H26.8792C21.876 402.061 17.0777 404.049 13.54 407.586C10.0022 411.124 8.01465 415.922 8.01465 420.926C8.02073 425.924 10.0112 430.716 13.5485 434.247C17.0859 437.779 21.8807 439.762 26.8792 439.76C24.4022 439.759 21.9493 440.246 19.6606 441.193C17.3719 442.14 15.2922 443.529 13.5404 445.28C11.7886 447.031 10.3989 449.11 9.45078 451.398C8.50266 453.687 8.01465 456.139 8.01465 458.616C8.01365 461.094 8.50091 463.548 9.44859 465.837C10.3963 468.126 11.7858 470.206 13.5377 471.958C15.2897 473.71 17.3697 475.099 19.6589 476.047C21.9481 476.995 24.4016 477.482 26.8792 477.481H87.2855C92.2887 477.481 97.087 475.494 100.625 471.956C104.163 468.418 106.15 463.62 106.15 458.616C106.148 453.615 104.16 448.818 100.622 445.282C97.0845 441.746 92.2874 439.76 87.2855 439.76C92.2847 439.76 97.0795 437.775 100.617 434.242C104.154 430.71 106.144 425.917 106.15 420.918Z" fill="#6DC8C2"/>
<path d="M88.0798 441.394H66.7703C66.365 441.394 65.9763 441.233 65.6898 440.947C65.4032 440.66 65.2422 440.271 65.2422 439.866C65.2422 439.461 65.4032 439.072 65.6898 438.785C65.9763 438.499 66.365 438.338 66.7703 438.338H88.0798C88.4851 438.338 88.8738 438.499 89.1604 438.785C89.447 439.072 89.608 439.461 89.608 439.866C89.608 440.271 89.447 440.66 89.1604 440.947C88.8738 441.233 88.4851 441.394 88.0798 441.394Z" fill="black"/>
<path d="M36.9036 441.288H25.7483C25.343 441.288 24.9544 441.127 24.6678 440.84C24.3812 440.553 24.2202 440.165 24.2202 439.76C24.2202 439.354 24.3812 438.966 24.6678 438.679C24.9544 438.392 25.343 438.231 25.7483 438.231H36.9036C37.3088 438.231 37.6975 438.392 37.9841 438.679C38.2707 438.966 38.4317 439.354 38.4317 439.76C38.4317 440.165 38.2707 440.553 37.9841 440.84C37.6975 441.127 37.3088 441.288 36.9036 441.288Z" fill="black"/>
<path d="M57.0903 392.234C71.7118 392.234 83.5648 389.764 83.5648 386.718C83.5648 383.671 71.7118 381.201 57.0903 381.201C42.4688 381.201 30.6157 383.671 30.6157 386.718C30.6157 389.764 42.4688 392.234 57.0903 392.234Z" fill="black"/>
<path d="M61.1242 368.518C68.0235 368.518 73.6165 362.925 73.6165 356.026C73.6165 349.126 68.0235 343.533 61.1242 343.533C54.2248 343.533 48.6318 349.126 48.6318 356.026C48.6318 362.925 54.2248 368.518 61.1242 368.518Z" fill="#FFBB45"/>
<path d="M20.2852 350.716C27.6782 350.716 33.6715 344.723 33.6715 337.33C33.6715 329.937 27.6782 323.943 20.2852 323.943C12.8922 323.943 6.89893 329.937 6.89893 337.33C6.89893 344.723 12.8922 350.716 20.2852 350.716Z" fill="#FFBB45"/>
<path d="M181.44 145.246C179.912 141.075 177.704 135.719 174.602 131.241C171.974 127.421 168.971 125.816 165.67 126.389C164.716 126.503 163.798 126.827 162.983 127.337C162.168 127.847 161.476 128.53 160.956 129.339C158.35 133.518 160.085 140.891 160.956 143.856L161.071 144.238L158.159 145.162L158.022 144.711C156.807 140.524 155.225 132.754 158.366 127.719C159.11 126.542 160.103 125.543 161.275 124.792C162.448 124.041 163.771 123.556 165.151 123.371C169.666 122.607 173.807 124.701 177.123 129.484C180.439 134.267 182.693 139.829 184.313 144.161L181.44 145.246Z" fill="black"/>
</g>
</svg>
