<svg width="131" height="431" viewBox="0 0 131 431" fill="none" xmlns="http://www.w3.org/2000/svg">
<g opacity="0.2">
<path d="M114.604 32.5886C123.603 32.5886 130.899 25.2934 130.899 16.2943C130.899 7.29521 123.603 0 114.604 0C105.605 0 98.3101 7.29521 98.3101 16.2943C98.3101 25.2934 105.605 32.5886 114.604 32.5886Z" fill="#FFBB45"/>
<path d="M115.513 63.5406C123.715 47.9639 121.194 30.5078 109.883 24.5515C98.5711 18.5951 82.752 26.3939 74.5497 41.9706C66.3475 57.5474 68.8681 75.0034 80.1798 80.9598C91.4914 86.9162 107.311 79.1173 115.513 63.5406Z" fill="#FFBB45"/>
<path d="M111.86 121.226C115.189 97.6815 102.375 76.4009 83.2384 73.6948C64.1019 70.9886 45.8895 87.8815 42.5599 111.426C39.2304 134.971 52.0445 156.251 71.181 158.958C90.3176 161.664 108.53 144.771 111.86 121.226Z" fill="#FFBB45"/>
<path d="M-9.12795 84.7587C-0.807827 84.7587 5.93697 78.0139 5.93697 69.6938C5.93697 61.3737 -0.807827 54.6289 -9.12795 54.6289C-17.4481 54.6289 -24.1929 61.3737 -24.1929 69.6938C-24.1929 78.0139 -17.4481 84.7587 -9.12795 84.7587Z" fill="#FFBB45"/>
<path d="M7.06365 130.995C18.4116 128.337 24.809 114.218 21.3527 99.4589C17.8964 84.6996 5.89515 74.8892 -5.45277 77.5467C-16.8007 80.2041 -23.1981 94.3231 -19.7418 109.082C-16.2855 123.842 -4.28427 133.652 7.06365 130.995Z" fill="#FFBB45"/>
<path d="M21.2643 197.44C37.7409 194.603 48.2673 175.866 44.7759 155.589C41.2844 135.312 25.0971 121.174 8.62054 124.011C-7.85601 126.849 -18.3825 145.586 -14.891 165.863C-11.3995 186.14 4.78778 200.277 21.2643 197.44Z" fill="#FFBB45"/>
<path d="M40.8146 264.574C40.4819 264.577 40.1598 264.457 39.9095 264.238C39.6591 264.019 39.4978 263.715 39.4562 263.385C31.4347 199.75 9.33316 144.449 9.10902 143.926C9.03593 143.759 8.99706 143.579 8.99474 143.397C8.99242 143.215 9.02668 143.035 9.09549 142.866C9.16431 142.698 9.26627 142.545 9.39533 142.417C9.52439 142.288 9.67791 142.187 9.84679 142.119C10.0157 142.052 10.1964 142.018 10.3784 142.022C10.5603 142.025 10.7398 142.065 10.906 142.139C11.0722 142.213 11.2219 142.32 11.346 142.453C11.4702 142.586 11.5664 142.743 11.6289 142.913C11.853 143.464 34.0836 199.05 42.1934 263.046C42.2163 263.223 42.2037 263.404 42.1566 263.576C42.1095 263.749 42.0287 263.911 41.9189 264.052C41.809 264.194 41.6724 264.312 41.5166 264.4C41.3609 264.489 41.1893 264.545 41.0116 264.567L40.8146 264.574Z" fill="black"/>
<path d="M57.2246 265.272C56.8643 265.272 56.5188 265.129 56.264 264.875C56.0093 264.62 55.8661 264.274 55.8661 263.914C55.6963 200.068 64.6959 148.876 72.2691 117.143C80.4876 82.7274 88.8894 63.1254 88.9573 62.942C89.1038 62.6164 89.3725 62.3614 89.7054 62.2324C90.0384 62.1034 90.4087 62.1106 90.7363 62.2526C91.064 62.3945 91.3225 62.6598 91.4561 62.9909C91.5897 63.322 91.5875 63.6924 91.4501 64.022C91.3685 64.2121 83.055 83.6512 74.8909 117.87C67.3584 149.44 58.4132 200.414 58.5898 263.9C58.5898 264.261 58.4467 264.606 58.1919 264.861C57.9371 265.116 57.5916 265.259 57.2313 265.259L57.2246 265.272Z" fill="black"/>
<path d="M65.0283 263.914H30.7688C20.4268 263.914 12.043 272.298 12.043 282.64V412.098C12.043 422.44 20.4268 430.824 30.7688 430.824H65.0283C75.3703 430.824 83.7542 422.44 83.7542 412.098V282.64C83.7542 272.298 75.3703 263.914 65.0283 263.914Z" fill="#6DC8C2"/>
<path d="M15.5345 421.906C15.2686 421.906 15.0085 421.828 14.7864 421.682C14.5642 421.536 14.3898 421.328 14.2848 421.084C14.1399 420.757 14.13 420.386 14.2571 420.051C14.3843 419.717 14.6383 419.446 14.964 419.298C25.5922 414.694 37.0286 412.247 48.6099 412.098C60.1911 411.949 71.6868 414.1 82.4301 418.428C82.7533 418.57 83.0086 418.832 83.1421 419.159C83.2755 419.485 83.2766 419.851 83.1451 420.178C83.0135 420.506 82.7598 420.769 82.4374 420.913C82.1151 421.057 81.7495 421.069 81.4181 420.948C71.0066 416.755 59.8664 414.67 48.6432 414.815C37.42 414.959 26.3371 417.33 16.0371 421.79C15.8785 421.86 15.7079 421.9 15.5345 421.906Z" fill="black"/>
<path d="M73.8109 291.606H23.0059C22.6456 291.606 22.3001 291.462 22.0453 291.208C21.7906 290.953 21.6475 290.607 21.6475 290.247C21.6475 289.887 21.7906 289.541 22.0453 289.287C22.3001 289.032 22.6456 288.889 23.0059 288.889H73.8109C74.1712 288.889 74.5167 289.032 74.7715 289.287C75.0262 289.541 75.1694 289.887 75.1694 290.247C75.1694 290.607 75.0262 290.953 74.7715 291.208C74.5167 291.462 74.1712 291.606 73.8109 291.606Z" fill="black"/>
<path d="M60.7764 414.808C60.4161 414.808 60.0706 414.665 59.8158 414.411C59.5611 414.156 59.418 413.81 59.418 413.45V290.648C59.418 290.288 59.5611 289.943 59.8158 289.688C60.0706 289.433 60.4161 289.29 60.7764 289.29C61.1367 289.29 61.4822 289.433 61.7369 289.688C61.9917 289.943 62.1348 290.288 62.1348 290.648V413.45C62.1348 413.81 61.9917 414.156 61.7369 414.411C61.4822 414.665 61.1367 414.808 60.7764 414.808Z" fill="black"/>
<path d="M36.0059 414.808C35.6456 414.808 35.3001 414.665 35.0453 414.411C34.7906 414.156 34.6475 413.81 34.6475 413.45V290.648C34.6475 290.288 34.7906 289.943 35.0453 289.688C35.3001 289.433 35.6456 289.29 36.0059 289.29C36.3662 289.29 36.7117 289.433 36.9664 289.688C37.2212 289.943 37.3643 290.288 37.3643 290.648V413.45C37.3643 413.81 37.2212 414.156 36.9664 414.411C36.7117 414.665 36.3662 414.808 36.0059 414.808Z" fill="black"/>
</g>
</svg>
