<svg width="20" height="20" viewBox="0 0 20 20" fill="none" xmlns="http://www.w3.org/2000/svg">
<path d="M18 0.666666C18.3682 0.298476 18.9651 0.298478 19.3333 0.666668C19.7015 1.03486 19.7015 1.63181 19.3333 2L2 19.3333C1.63181 19.7015 1.03486 19.7015 0.666666 19.3333C0.298476 18.9651 0.298476 18.3682 0.666667 18L18 0.666666Z" fill="#333333"/>
<path d="M19.3333 18C19.7015 18.3682 19.7015 18.9651 19.3333 19.3333C18.9651 19.7015 18.3682 19.7015 18 19.3333L0.666666 2C0.298476 1.63181 0.298477 1.03486 0.666667 0.666667C1.03486 0.298477 1.63181 0.298477 2 0.666667L19.3333 18Z" fill="#333333"/>
</svg>
