<svg width="20" height="16" viewBox="0 0 20 16" fill="none" xmlns="http://www.w3.org/2000/svg">
<path fill-rule="evenodd" clip-rule="evenodd" d="M0.803786 4.35342C0.523642 6.95631 0.53613 9.9583 0.925953 12.5506C1.14165 13.985 2.31232 15.0847 3.75739 15.2103L5.26762 15.3416C8.41667 15.6153 11.5835 15.6153 14.7326 15.3416L16.2428 15.2103C17.6879 15.0847 18.8585 13.985 19.0742 12.5506C19.4641 9.95829 19.4766 6.95648 19.1964 4.35357C19.1602 4.05181 19.1195 3.75046 19.0742 3.44961C18.8585 2.01522 17.6879 0.915573 16.2428 0.789956L14.7326 0.658674C11.5835 0.384934 8.41667 0.384934 5.26762 0.658675L3.75739 0.789956C2.31232 0.915573 1.14165 2.01522 0.925953 3.44961C0.880721 3.75041 0.839998 4.05171 0.803786 4.35342ZM5.39752 2.15304C8.46013 1.88681 11.5401 1.88681 14.6027 2.15304L16.1129 2.28432C16.8672 2.34989 17.4783 2.92391 17.5909 3.67267C17.6026 3.75042 17.614 3.82822 17.6251 3.90604L12.064 6.99549C10.7805 7.7086 9.21968 7.7086 7.93608 6.99549L2.37514 3.90608C2.3862 3.82824 2.39758 3.75043 2.40928 3.67267C2.52187 2.92391 3.13296 2.34989 3.88729 2.28432L5.39752 2.15304ZM17.8086 5.52001C18.0026 7.78776 17.93 10.0726 17.5909 12.3276C17.4783 13.0763 16.8672 13.6503 16.1129 13.7159L14.6027 13.8472C11.5401 14.1134 8.46013 14.1134 5.39753 13.8472L3.88729 13.7159C3.13296 13.6503 2.52187 13.0763 2.40928 12.3276C2.07019 10.0726 1.99763 7.78779 2.19159 5.52005L7.20762 8.30672C8.94425 9.27152 11.0559 9.27152 12.7925 8.30673L17.8086 5.52001Z" fill="white"/>
</svg>
