<svg width="650" height="508" viewBox="0 0 650 508" fill="none" xmlns="http://www.w3.org/2000/svg">
<path opacity="0.1" d="M284.478 91.5068L54.2129 497.253H647.883L429.454 91.5068H284.478Z" fill="url(#paint0_linear_581_1727)"/>
<path d="M84.8049 419.368L93.1849 387.642H45.6452L53.1937 419.715C44.6203 423.456 37.6038 430.046 33.3335 438.369C29.0631 446.691 27.8014 456.234 29.7623 465.38C31.7232 474.526 36.7861 482.713 44.0929 488.553C51.3996 494.394 60.5009 497.528 69.8544 497.425C79.2078 497.323 88.2381 493.989 95.4149 487.99C102.592 481.991 107.474 473.694 109.233 464.507C110.993 455.32 109.522 445.808 105.07 437.581C100.618 429.354 93.4584 422.92 84.8049 419.368V419.368Z" fill="#EAF9F3"/>
<path d="M477.644 269.909C480.812 263.489 482.479 256.432 482.518 249.273C482.557 242.113 480.968 235.039 477.871 228.584C474.773 222.129 470.249 216.463 464.639 212.015C459.029 207.566 452.482 204.451 445.491 202.906C442.48 202.246 439.732 200.709 437.595 198.488V198.452C433.503 194.171 432.801 190.332 426.996 178.698C426.374 177.44 425.853 176.428 425.549 175.85L377.186 194.605L390.294 234.683C387.598 243.146 387.343 252.197 389.558 260.798C391.773 269.399 396.368 277.201 402.816 283.308C409.264 289.416 417.304 293.582 426.012 295.327C434.721 297.073 443.745 296.327 452.049 293.177C452.446 297.146 453.937 300.926 456.358 304.097C458.778 307.268 462.031 309.704 465.755 311.134C469.478 312.564 473.526 312.932 477.446 312.196C481.367 311.46 485.006 309.65 487.957 306.966C490.909 304.283 493.057 300.833 494.163 297C495.268 293.168 495.287 289.103 494.217 285.261C493.148 281.418 491.032 277.948 488.106 275.237C485.179 272.526 481.558 270.682 477.644 269.909V269.909Z" fill="#333333"/>
<path d="M335.344 294.312C348.378 294.312 358.944 283.746 358.944 270.712C358.944 257.678 348.378 247.112 335.344 247.112C322.31 247.112 311.744 257.678 311.744 270.712C311.744 283.746 322.31 294.312 335.344 294.312Z" fill="#333333"/>
<path d="M411.248 208.38C411.27 204.229 409.656 200.236 406.757 197.266C403.857 194.296 399.904 192.587 395.754 192.509L394.778 181.88C394.491 178.51 393.542 175.229 391.985 172.225C390.428 169.222 388.294 166.556 385.705 164.379C383.115 162.202 380.122 160.557 376.896 159.539C373.67 158.521 370.274 158.15 366.905 158.447L327.752 162.098C322.626 162.606 317.911 165.127 314.641 169.106C311.37 173.085 309.811 178.199 310.305 183.326L314.644 231.148C314.986 235.164 316.117 239.072 317.972 242.65C319.827 246.228 322.37 249.404 325.455 251.997C328.54 254.591 332.106 256.55 335.95 257.762C339.793 258.975 343.838 259.418 347.853 259.064L349.667 258.891L352.119 285.397L403.837 280.582L400.945 249.188H400.902L398.602 223.947C402.183 223.209 405.398 221.256 407.703 218.419C410.007 215.582 411.26 212.035 411.248 208.38V208.38Z" fill="white"/>
<path d="M395.371 215.942C394.156 215.942 392.97 215.582 391.96 214.908C390.951 214.233 390.164 213.274 389.699 212.153C389.235 211.031 389.113 209.797 389.35 208.606C389.587 207.415 390.171 206.321 391.03 205.463C391.888 204.605 392.982 204.02 394.173 203.783C395.364 203.546 396.598 203.668 397.72 204.132C398.841 204.597 399.8 205.384 400.475 206.393C401.149 207.403 401.509 208.59 401.509 209.804C401.507 211.431 400.86 212.991 399.709 214.142C398.558 215.293 396.998 215.94 395.371 215.942ZM395.371 206.543C394.728 206.543 394.101 206.733 393.567 207.09C393.033 207.447 392.617 207.954 392.371 208.547C392.125 209.14 392.061 209.793 392.186 210.423C392.312 211.052 392.621 211.631 393.075 212.085C393.529 212.539 394.107 212.848 394.737 212.973C395.367 213.098 396.02 213.034 396.613 212.788C397.206 212.543 397.713 212.127 398.07 211.593C398.427 211.059 398.617 210.431 398.617 209.789C398.611 208.931 398.267 208.11 397.659 207.505C397.051 206.9 396.228 206.559 395.371 206.557V206.543Z" fill="#333333"/>
<path d="M349.559 258.934L380.353 255.109C380.551 255.084 380.751 255.131 380.918 255.24C381.085 255.35 381.207 255.515 381.263 255.707C381.319 255.899 381.304 256.104 381.222 256.286C381.14 256.468 380.996 256.615 380.815 256.7L350.672 271.103L349.559 258.934Z" fill="#333333"/>
<path d="M390.844 212.471C390.505 212.478 390.174 212.365 389.91 212.152C389.645 211.939 389.464 211.64 389.398 211.307C389.066 209.667 389.17 207.968 389.701 206.381C390.231 204.793 391.169 203.373 392.42 202.262C393.629 201.242 395.065 200.526 396.607 200.175C398.15 199.824 399.754 199.848 401.285 200.245C401.654 200.348 401.967 200.593 402.155 200.926C402.344 201.26 402.392 201.654 402.29 202.023C402.187 202.392 401.942 202.705 401.608 202.894C401.275 203.082 400.88 203.131 400.511 203.028C399.447 202.761 398.336 202.747 397.266 202.988C396.196 203.229 395.197 203.719 394.351 204.417C393.48 205.19 392.828 206.18 392.46 207.285C392.092 208.39 392.021 209.573 392.254 210.714C392.292 210.901 392.293 211.093 392.256 211.28C392.22 211.467 392.147 211.645 392.041 211.803C391.936 211.962 391.8 212.098 391.642 212.204C391.483 212.31 391.306 212.384 391.119 212.421C391.029 212.444 390.937 212.461 390.844 212.471Z" fill="#333333"/>
<path d="M319.531 213.18C321.22 213.18 322.59 211.811 322.59 210.122C322.59 208.433 321.22 207.063 319.531 207.063C317.842 207.063 316.473 208.433 316.473 210.122C316.473 211.811 317.842 213.18 319.531 213.18Z" fill="#333333"/>
<path d="M352.162 209.398C353.851 209.398 355.22 208.029 355.22 206.34C355.22 204.651 353.851 203.281 352.162 203.281C350.473 203.281 349.103 204.651 349.103 206.34C349.103 208.029 350.473 209.398 352.162 209.398Z" fill="#333333"/>
<path d="M332.785 222.32C332.67 222.32 332.556 222.305 332.445 222.276C330.139 221.72 327.753 220.881 327.586 218.95C327.569 218.218 327.842 217.508 328.345 216.976C328.49 216.788 328.656 216.572 328.837 216.29C329.512 215.207 329.854 213.95 329.82 212.674L329.755 199.342C329.755 198.958 329.908 198.59 330.179 198.319C330.45 198.048 330.818 197.896 331.201 197.896C331.585 197.896 331.953 198.048 332.224 198.319C332.495 198.59 332.647 198.958 332.647 199.342L332.713 212.674C332.732 214.486 332.23 216.266 331.266 217.801C331.035 218.155 330.847 218.415 330.681 218.632C331.448 219.005 332.26 219.28 333.096 219.449C333.444 219.528 333.751 219.734 333.957 220.026C334.163 220.318 334.253 220.675 334.211 221.03C334.169 221.385 333.997 221.711 333.728 221.947C333.459 222.182 333.113 222.31 332.756 222.305L332.785 222.32Z" fill="#333333"/>
<path d="M337.759 235.052C335.805 235.024 333.88 234.57 332.119 233.721C331.778 233.546 331.521 233.242 331.403 232.876C331.286 232.511 331.319 232.114 331.494 231.773C331.67 231.431 331.973 231.174 332.339 231.056C332.704 230.939 333.101 230.972 333.443 231.147C333.486 231.147 336.819 232.839 339.827 231.87C340.648 231.572 341.399 231.11 342.036 230.512C342.672 229.914 343.18 229.193 343.529 228.392C343.607 228.212 343.721 228.049 343.865 227.914C344.008 227.779 344.177 227.675 344.362 227.608C344.547 227.54 344.744 227.512 344.94 227.523C345.136 227.534 345.328 227.586 345.504 227.674C345.68 227.762 345.836 227.885 345.963 228.036C346.09 228.186 346.184 228.361 346.241 228.55C346.298 228.738 346.315 228.936 346.293 229.132C346.27 229.327 346.208 229.516 346.11 229.687C345.597 230.836 344.852 231.868 343.923 232.717C342.994 233.567 341.9 234.216 340.709 234.625C339.754 234.922 338.759 235.066 337.759 235.052V235.052Z" fill="#333333"/>
<path d="M402.385 265.417L350.057 270.244L352.279 294.327L404.607 289.501L402.385 265.417Z" fill="#F4C2C9"/>
<path d="M328.497 163.934C333.095 163.573 337.484 167.354 340.066 170.716C344.404 176.385 346.233 183.297 349.573 189.515C356.204 201.807 372.349 203.347 384.113 198.228L428.435 181.692C427.336 178.156 421.653 158.164 401.328 148.49C391.924 144.092 381.435 142.553 371.163 144.065L333.862 146.017C329.52 146.212 325.295 147.487 321.57 149.727C314.824 153.884 307.449 162.741 310.06 181.446C310.654 176.847 312.815 172.594 316.179 169.402C319.542 166.21 323.902 164.274 328.526 163.92L328.497 163.934Z" fill="#333333"/>
<path d="M313.226 287.92C313.226 287.92 296.452 290.27 285.433 323.942C282.707 332.271 279.815 340.514 276.475 348.64L253.865 399.933L270.329 470.711L307.24 446.706L294.912 414.827C287.985 398.197 285.946 379.456 291.174 362.234L313.226 287.92Z" fill="white"/>
<path d="M457.841 424.733L304.217 442.729C297.327 425.644 296.004 424.075 289.12 407.004C283.489 393.052 282.757 377.602 287.045 363.181L308.541 291.13C309.013 289.53 309.977 288.119 311.295 287.096C312.613 286.074 314.22 285.492 315.887 285.433L451.413 280.277C454.717 339.602 454.573 365.408 457.841 424.733Z" fill="#F4C2C9"/>
<path d="M291.839 233.902C296.64 236.65 299.453 241.668 301.962 246.396C304.867 251.829 307.41 257.447 309.575 263.214C313.909 274.72 316.693 286.75 317.854 298.99C318.995 310.967 318.42 323.045 316.148 334.86C313.99 345.951 310.308 356.691 305.208 366.775C300.109 376.891 293.546 386.201 285.73 394.402C284.766 395.429 283.763 396.436 282.722 397.424C280.712 399.369 283.778 402.435 285.788 400.49C294.214 392.298 301.374 382.897 307.03 372.595C312.721 362.298 316.945 351.257 319.582 339.791C322.32 327.732 323.316 315.344 322.54 303.003C321.744 290.242 319.222 277.647 315.042 265.564C312.93 259.435 310.415 253.452 307.515 247.654C304.905 242.434 302.114 236.845 297.725 232.876C296.604 231.851 295.375 230.951 294.059 230.193C291.63 228.805 289.446 232.55 291.89 233.938L291.839 233.902Z" fill="white"/>
<path d="M400.772 485.121C400.231 468.698 403.417 452.365 410.092 437.35C416.718 422.258 426.614 408.826 439.064 398.024C445.571 392.435 453.033 386.853 461.608 385.154C465.409 384.381 469.351 384.697 472.981 386.065C474.469 386.676 475.891 387.437 477.226 388.335C478.569 389.256 479.816 390.31 480.949 391.481C485.945 396.542 489.293 403.338 491.679 409.99C494.86 418.898 496.957 428.29 498.649 437.581C502.239 457.3 503.151 477.413 501.36 497.376C501.139 499.878 500.874 502.375 500.565 504.867C500.42 506.031 501.664 507.036 502.734 507.036C503.305 507.023 503.85 506.791 504.254 506.387C504.658 505.983 504.89 505.438 504.903 504.867C507.425 484.131 507.074 463.146 503.862 442.505C502.347 432.498 500.121 422.61 497.203 412.919C494.911 405.385 491.744 397.959 486.885 391.712C482.135 385.588 475.548 381.141 467.689 380.461C458.152 379.644 449.143 384.749 441.79 390.28C428.05 400.685 416.857 414.078 409.058 429.447C401.178 444.783 396.848 461.696 396.39 478.932C396.339 480.992 396.39 483.046 396.433 485.106C396.527 487.89 400.866 487.905 400.772 485.106V485.121Z" fill="white"/>
<path d="M321.31 448.355C319.292 436.613 319.336 424.61 321.44 412.883C323.356 402.204 326.805 391.604 332.488 382.313C335.041 378.074 338.171 374.21 341.786 370.831C343.536 369.223 345.423 367.772 347.426 366.493C349.295 365.283 351.276 364.254 353.34 363.42C357.437 361.818 361.812 361.046 366.21 361.15C370.375 361.199 374.482 362.128 378.263 363.875C382.189 365.7 385.501 368.626 387.793 372.299C390.475 376.673 391.538 382.031 389.962 386.846C389.266 388.949 388.082 390.857 386.506 392.414C384.973 393.918 382.84 395.306 380.584 395.501C379.644 395.569 378.701 395.415 377.83 395.052C376.96 394.689 376.187 394.127 375.574 393.411C374.126 391.842 373.066 389.955 372.479 387.902C369.24 377.237 373.846 365.582 379.333 356.515C384.712 347.78 391.624 340.089 399.737 333.812C408.204 327.257 417.642 322.065 427.712 318.425C438.848 314.413 450.445 311.821 462.229 310.711C465.122 310.421 468.014 310.205 470.906 310.06C471.477 310.045 472.02 309.812 472.423 309.408C472.827 309.005 473.06 308.461 473.075 307.891C473.075 307.316 472.846 306.764 472.44 306.357C472.033 305.95 471.481 305.722 470.906 305.722C458.247 306.27 445.701 308.346 433.539 311.904C422.149 315.251 411.359 320.375 401.567 327.087C392.379 333.416 384.404 341.346 378.025 350.499C371.409 360.145 365.928 372.147 367.324 384.12C367.946 389.478 369.891 395.089 374.554 398.22C379.543 401.546 385.819 399.246 389.702 395.328C391.642 393.311 393.113 390.891 394.009 388.24C394.906 385.589 395.205 382.772 394.886 379.992C394.202 374.288 391.556 369 387.402 365.032C380.418 358.315 370.18 355.929 360.744 357.158C350.26 358.525 341.172 364.309 334.397 372.299C327.166 380.852 322.467 391.315 319.452 402.045C315.982 414.404 314.758 427.285 315.836 440.076C316.104 443.25 316.559 446.425 317.066 449.57C317.219 450.124 317.586 450.594 318.087 450.877C318.587 451.161 319.179 451.234 319.734 451.081C320.283 450.919 320.748 450.551 321.031 450.053C321.314 449.556 321.393 448.968 321.252 448.413L321.31 448.355Z" fill="white"/>
<path d="M537.816 418.052H537.895L526.898 392.457L503.761 338.554C500.43 330.803 497.099 323.048 493.768 315.287C489.228 304.723 485.526 293.292 475.953 286.091C463.661 276.858 445.079 274.956 432.412 284.493C421.631 292.605 418.674 307.341 418.869 320.168C419.129 334.708 423.93 348.85 430.25 361.793C436.757 375.125 442.107 389.008 448.087 402.594L457.848 424.762L311.44 441.883C306.583 442.447 301.842 443.757 297.385 445.766C291.239 448.547 284.987 451.536 278.629 454.732C274.903 456.602 271.264 458.487 267.711 460.386L276.901 497.261H485.743C526.804 497.261 553.932 455.151 537.816 418.052Z" fill="white"/>
<path d="M486.604 411.032C486.604 407.539 474.225 404.705 458.947 404.705C443.67 404.705 431.291 407.539 431.291 411.032L428.32 442.238C435.246 441.11 444.949 441.038 453.51 446.359C456.562 448.313 459.931 449.72 463.466 450.517C469.417 451.767 478.375 452.064 489.156 447.494L486.604 411.032Z" fill="white"/>
<path d="M471.268 452.758C468.545 452.761 465.829 452.485 463.162 451.934C459.468 451.099 455.945 449.631 452.751 447.596C444.436 442.448 435 442.621 428.551 443.67L426.7 443.974L429.852 410.96C430.011 404.879 448.926 403.267 458.947 403.267C468.968 403.267 487.926 404.865 488.049 410.974L490.667 448.427L489.712 448.825C483.893 451.369 477.618 452.707 471.268 452.758ZM435.694 440.178C442.229 440.061 448.666 441.777 454.276 445.13C457.182 446.994 460.389 448.337 463.755 449.1C469.048 450.213 477.428 450.647 487.615 446.555L485.157 411.032C485.157 409.861 477.276 406.152 458.947 406.152C440.618 406.152 432.737 409.861 432.737 411.032V411.169L429.932 440.546C431.843 440.303 433.768 440.18 435.694 440.178V440.178Z" fill="#333333"/>
<path d="M491.065 444.934C479.59 449.504 470.046 449.207 463.712 447.957C459.979 447.162 456.403 445.757 453.127 443.799C443.966 438.47 433.677 438.55 426.302 439.671L423.287 469.366C422.902 473.148 423.314 476.969 424.498 480.582C425.681 484.194 427.61 487.519 430.158 490.34C432.707 493.161 435.819 495.416 439.293 496.959C442.767 498.502 446.527 499.3 450.329 499.299H465.823C469.563 499.3 473.263 498.528 476.691 497.034C480.119 495.539 483.201 493.353 485.746 490.613C488.291 487.873 490.243 484.637 491.481 481.108C492.718 477.579 493.214 473.833 492.937 470.103L491.065 444.934Z" fill="#FFE779"/>
<path d="M456.749 480.537H456.619C456.237 480.502 455.885 480.318 455.64 480.024C455.395 479.729 455.276 479.35 455.31 478.968L464.312 379.334C464.441 377.82 465.135 376.411 466.257 375.386C467.378 374.361 468.845 373.795 470.364 373.803H491.78C492.164 373.803 492.532 373.955 492.803 374.226C493.074 374.498 493.226 374.865 493.226 375.249C493.226 375.632 493.074 376 492.803 376.271C492.532 376.543 492.164 376.695 491.78 376.695H470.364C469.569 376.693 468.803 376.989 468.215 377.525C467.628 378.06 467.262 378.796 467.19 379.587L458.188 479.221C458.155 479.581 457.99 479.915 457.724 480.158C457.457 480.402 457.11 480.537 456.749 480.537Z" fill="#333333"/>
<path d="M458.889 418.602C458.058 418.602 457.226 418.602 456.402 418.558C447.501 418.222 438.757 416.11 430.684 412.347C430.511 412.267 430.357 412.154 430.228 412.014C430.1 411.874 430 411.71 429.935 411.531C429.87 411.352 429.84 411.163 429.849 410.973C429.857 410.783 429.902 410.596 429.982 410.424C430.063 410.252 430.176 410.097 430.316 409.968C430.456 409.84 430.62 409.74 430.799 409.675C430.977 409.61 431.167 409.581 431.357 409.589C431.547 409.597 431.733 409.642 431.906 409.723C439.622 413.323 447.98 415.344 456.489 415.666C466.648 416.031 476.75 413.995 485.974 409.723C486.147 409.641 486.334 409.595 486.524 409.586C486.715 409.578 486.905 409.607 487.084 409.672C487.264 409.737 487.428 409.837 487.569 409.966C487.709 410.095 487.823 410.251 487.903 410.424C487.983 410.597 488.028 410.784 488.035 410.974C488.043 411.165 488.012 411.355 487.946 411.534C487.88 411.713 487.779 411.877 487.649 412.016C487.519 412.156 487.363 412.268 487.189 412.347C478.317 416.449 468.663 418.583 458.889 418.602V418.602Z" fill="#333333"/>
<path d="M367.483 285.961C367.114 285.961 366.759 285.821 366.49 285.568C366.221 285.316 366.059 284.97 366.037 284.601L365.184 269.895C365.162 269.511 365.293 269.135 365.549 268.848C365.804 268.561 366.163 268.388 366.547 268.366C366.93 268.344 367.307 268.475 367.594 268.73C367.88 268.986 368.054 269.345 368.076 269.729L368.929 284.428C368.941 284.618 368.915 284.808 368.853 284.988C368.791 285.168 368.694 285.334 368.568 285.477C368.441 285.619 368.288 285.735 368.117 285.818C367.946 285.901 367.76 285.95 367.57 285.961H367.483Z" fill="#333333"/>
<path d="M382.146 284.89C381.777 284.891 381.422 284.751 381.153 284.498C380.884 284.245 380.722 283.899 380.7 283.531L379.847 268.825C379.836 268.635 379.863 268.444 379.925 268.265C379.988 268.085 380.085 267.92 380.212 267.778C380.338 267.636 380.491 267.52 380.663 267.437C380.834 267.355 381.02 267.306 381.21 267.295C381.4 267.284 381.59 267.311 381.77 267.374C381.949 267.436 382.115 267.534 382.257 267.66C382.399 267.787 382.514 267.94 382.597 268.111C382.68 268.283 382.728 268.468 382.739 268.658L383.592 283.394C383.604 283.584 383.578 283.774 383.516 283.954C383.454 284.134 383.357 284.3 383.231 284.442C383.105 284.585 382.951 284.701 382.78 284.784C382.609 284.867 382.423 284.916 382.233 284.927L382.146 284.89Z" fill="#333333"/>
<path d="M647.884 498.708H74.7044C74.3209 498.708 73.953 498.555 73.6818 498.284C73.4107 498.013 73.2583 497.645 73.2583 497.262C73.2583 496.878 73.4107 496.51 73.6818 496.239C73.953 495.968 74.3209 495.815 74.7044 495.815H647.884C648.268 495.815 648.635 495.968 648.907 496.239C649.178 496.51 649.33 496.878 649.33 497.262C649.33 497.645 649.178 498.013 648.907 498.284C648.635 498.555 648.268 498.708 647.884 498.708Z" fill="#333333"/>
<path d="M356.963 110.313C352.092 110.32 347.329 108.882 343.275 106.181C339.222 103.481 336.061 99.638 334.192 95.1401C332.323 90.6421 331.83 85.6909 332.776 80.9128C333.722 76.1347 336.064 71.7446 339.505 68.2979C342.947 64.8512 347.334 62.5028 352.11 61.5499C356.887 60.5971 361.839 61.0825 366.34 62.9448C370.841 64.8071 374.688 67.9626 377.395 72.012C380.101 76.0615 381.546 80.8228 381.546 85.6936C381.537 92.2139 378.945 98.4649 374.338 103.079C369.73 107.693 363.483 110.294 356.963 110.313ZM356.963 63.9664C352.673 63.9664 348.479 65.2385 344.912 67.622C341.345 70.0054 338.565 73.3931 336.923 77.3566C335.281 81.3201 334.852 85.6815 335.689 89.8891C336.526 94.0968 338.591 97.9618 341.625 100.995C344.659 104.029 348.524 106.095 352.731 106.932C356.939 107.769 361.3 107.339 365.264 105.697C369.227 104.056 372.615 101.275 374.998 97.7083C377.382 94.1413 378.654 89.9475 378.654 85.6574C378.639 79.9093 376.349 74.4009 372.284 70.3364C368.219 66.2718 362.711 63.9816 356.963 63.9664V63.9664Z" fill="white"/>
<path d="M357.982 0H355.951C352.852 0 350.34 2.51202 350.34 5.61076V51.9863C350.34 55.085 352.852 57.5971 355.951 57.5971H357.982C361.081 57.5971 363.593 55.085 363.593 51.9863V5.61076C363.593 2.51202 361.081 0 357.982 0Z" fill="#333333"/>
<path d="M355.907 41.5316C340.601 41.7627 325.639 46.1153 312.597 54.1313C299.555 62.1473 288.915 73.5304 281.796 87.0828C281.552 87.5448 281.431 88.0623 281.446 88.5849C281.46 89.1074 281.61 89.6173 281.88 90.0649C282.15 90.5125 282.531 90.8826 282.986 91.1392C283.442 91.3959 283.956 91.5303 284.479 91.5295H429.484C430.006 91.5291 430.519 91.3937 430.973 91.1366C431.428 90.8794 431.808 90.5092 432.077 90.0617C432.346 89.6143 432.495 89.105 432.51 88.583C432.524 88.0611 432.403 87.5443 432.159 87.0828C424.869 73.2108 413.893 61.6186 400.44 53.5819C386.987 45.5452 371.578 41.3755 355.907 41.5316V41.5316Z" fill="#FFE779"/>
<path d="M312.424 77.654C302.909 77.654 295.15 71.2262 295.035 71.1467C294.741 70.8993 294.558 70.5456 294.526 70.1632C294.493 69.7808 294.614 69.4011 294.861 69.1078C295.109 68.8144 295.462 68.6313 295.845 68.5987C296.227 68.5662 296.607 68.6869 296.9 68.9342V68.9342C297.536 69.4693 312.576 81.8621 325.417 69.021L326.292 68.1461L327.297 68.8692C328.02 69.3897 344.953 81.5078 357.454 69.0138L358.3 68.1606L359.298 68.8402C362.144 70.6662 365.26 72.0326 368.531 72.8892C375.292 74.5956 380.888 73.2941 385.161 69.0138L386.058 68.1172L387.063 68.8836C387.735 69.397 403.743 81.3632 416.1 69.0138C416.375 68.764 416.735 68.6294 417.106 68.6379C417.477 68.6464 417.831 68.7973 418.094 69.0593C418.356 69.3213 418.509 69.6744 418.518 70.0455C418.528 70.4166 418.395 70.7772 418.146 71.0527C405.898 83.301 390.403 74.5594 386.333 71.8842C381.43 76.2224 375.031 77.5384 367.736 75.6729C364.548 74.8289 361.494 73.5439 358.662 71.8553C346.37 83.0407 330.717 74.4654 326.61 71.8553C321.903 76.1863 316.964 77.654 312.424 77.654Z" fill="#4AD4CB"/>
<path d="M271.428 460.986C271.116 460.978 270.816 460.869 270.572 460.677C270.327 460.484 270.151 460.218 270.07 459.918C269.988 459.617 270.006 459.298 270.121 459.009C270.235 458.719 270.44 458.474 270.705 458.311C275.404 455.418 280.278 452.729 285.165 450.234C291.673 446.944 298.375 443.937 305.157 441.298C305.515 441.159 305.913 441.167 306.264 441.322C306.616 441.476 306.891 441.764 307.03 442.122C307.169 442.479 307.16 442.878 307.006 443.229C306.851 443.58 306.563 443.855 306.206 443.994C299.51 446.597 292.873 449.562 286.474 452.815C281.637 455.274 276.836 457.956 272.187 460.769C271.96 460.912 271.696 460.988 271.428 460.986Z" fill="#333333"/>
<path d="M69.4113 498.859C59.8732 498.851 50.622 495.596 43.1799 489.631C35.7379 483.665 30.5484 475.343 28.4655 466.035C26.3826 456.728 27.5304 446.988 31.7199 438.419C35.9094 429.851 42.8911 422.963 51.5161 418.891L43.8158 386.195H95.0574L86.5255 418.53C95.3009 422.454 102.464 429.27 106.819 437.839C111.174 446.409 112.458 456.214 110.454 465.615C108.451 475.017 103.283 483.447 95.8135 489.497C88.3436 495.548 79.0241 498.852 69.4113 498.859V498.859ZM47.4671 389.087L54.8783 420.561L53.772 421.038C45.5019 424.645 38.7333 431.001 34.6133 439.027C30.4932 447.054 29.2752 456.259 31.1656 465.081C33.056 473.903 37.9386 481.8 44.9858 487.434C52.033 493.068 60.8114 496.092 69.8332 495.993C78.8551 495.895 87.5654 492.68 94.488 486.894C101.411 481.107 106.12 473.106 107.817 464.244C109.515 455.383 108.096 446.207 103.802 438.272C99.5077 430.338 92.602 424.131 84.2552 420.706L83.0839 420.221L91.3048 389.087H47.4671Z" fill="#333333"/>
<path d="M69.397 391.582C83.6049 391.582 95.1226 389.141 95.1226 386.13C95.1226 383.12 83.6049 380.679 69.397 380.679C55.1891 380.679 43.6714 383.12 43.6714 386.13C43.6714 389.141 55.1891 391.582 69.397 391.582Z" fill="#333333"/>
<path d="M62.3982 390.519C62.1031 390.518 61.8154 390.427 61.5737 390.258C61.332 390.088 61.1479 389.849 61.0461 389.572C52.2684 365.64 34.1275 346.19 33.9467 346.024C33.8161 345.885 33.7141 345.723 33.6463 345.545C33.5786 345.368 33.5465 345.179 33.5518 344.989C33.5572 344.799 33.6 344.611 33.6776 344.438C33.7553 344.265 33.8664 344.108 34.0046 343.977C34.1427 343.847 34.3052 343.745 34.4828 343.677C34.6604 343.609 34.8496 343.577 35.0396 343.583C35.2296 343.588 35.4167 343.631 35.5902 343.708C35.7637 343.786 35.9202 343.897 36.0507 344.035C36.2387 344.238 54.7774 364.078 63.7575 388.574C63.8818 388.93 63.8622 389.321 63.7028 389.662C63.5435 390.004 63.2569 390.27 62.9043 390.404C62.7435 390.471 62.5723 390.51 62.3982 390.519V390.519Z" fill="#333333"/>
<path d="M73.9812 390.714C73.5977 390.714 73.2299 390.562 72.9587 390.291C72.6875 390.019 72.5352 389.652 72.5352 389.268V368.56C72.5352 368.177 72.6875 367.809 72.9587 367.538C73.2299 367.267 73.5977 367.114 73.9812 367.114C74.3648 367.114 74.7326 367.267 75.0038 367.538C75.2749 367.809 75.4273 368.177 75.4273 368.56V389.268C75.4273 389.652 75.2749 390.019 75.0038 390.291C74.7326 390.562 74.3648 390.714 73.9812 390.714Z" fill="#333333"/>
<path d="M42.3193 331.548H36.1518C36.0361 331.23 35.906 330.919 35.7686 330.615L40.2586 326.639C40.7341 326.229 41.1234 325.73 41.4041 325.169C41.6848 324.608 41.8512 323.996 41.8937 323.37C41.9362 322.745 41.854 322.117 41.6517 321.523C41.4495 320.929 41.1312 320.381 40.7155 319.911C40.2998 319.441 39.7949 319.059 39.2302 318.786C38.6654 318.513 38.052 318.355 37.4256 318.321C36.7992 318.287 36.1723 318.377 35.5812 318.588C34.9902 318.798 34.4468 319.124 33.9827 319.546L29.254 323.732C29.1817 323.797 29.1239 323.877 29.0516 323.949C28.7551 323.812 28.4515 323.689 28.1406 323.573V317.839C28.0927 316.614 27.5724 315.455 26.6888 314.606C25.8052 313.756 24.627 313.281 23.4011 313.281C22.1752 313.281 20.9969 313.756 20.1133 314.606C19.2297 315.455 18.7094 316.614 18.6616 317.839V323.573C18.2233 323.734 17.7938 323.917 17.3746 324.122C17.2414 323.958 17.0964 323.803 16.9407 323.66L12.1759 319.546C11.2169 318.781 9.99919 318.418 8.77823 318.532C7.55727 318.647 6.42798 319.229 5.6273 320.158C4.82663 321.087 4.41681 322.29 4.48382 323.514C4.55084 324.739 5.08948 325.889 5.98674 326.725L10.7732 330.854C10.8111 330.887 10.8523 330.916 10.8962 330.941C10.8094 331.143 10.7371 331.353 10.6576 331.562H4.7142C3.46442 331.568 2.26758 332.068 1.38452 332.952C0.501468 333.836 0.00380305 335.034 0 336.284V336.284C-1.46014e-06 337.541 0.498726 338.746 1.38667 339.635C2.27461 340.525 3.47919 341.025 4.73589 341.027H10.6214L10.766 341.417H10.7226L5.98674 345.604C5.0922 346.449 4.56145 347.61 4.50665 348.839C4.45184 350.069 4.87727 351.272 5.69303 352.194C6.5088 353.116 7.651 353.684 8.87828 353.78C10.1056 353.875 11.3218 353.489 12.2699 352.704L16.9986 348.518L17.0998 348.409C17.6169 348.688 18.1533 348.93 18.7049 349.132V354.815C18.7528 356.04 19.2731 357.199 20.1567 358.049C21.0403 358.899 22.2185 359.373 23.4444 359.373C24.6703 359.373 25.8486 358.899 26.7322 358.049C27.6158 357.199 28.1361 356.04 28.1839 354.815V349.19C28.5093 349.067 28.8347 348.937 29.1528 348.785L33.7947 352.784C34.7506 353.601 35.9923 354.006 37.2466 353.908C38.5008 353.811 39.6649 353.219 40.4828 352.263C41.3006 351.307 41.7053 350.065 41.6076 348.811C41.51 347.557 40.9181 346.393 39.9622 345.575L35.8409 342.018C35.9855 341.692 36.1157 341.36 36.2386 341.027H42.3193C43.5773 341.027 44.7837 340.527 45.6732 339.638C46.5627 338.748 47.0624 337.542 47.0624 336.284V336.284C47.0605 335.027 46.5599 333.823 45.6706 332.935C44.7813 332.047 43.576 331.548 42.3193 331.548V331.548Z" fill="#FFC1EB"/>
<path d="M42.3193 331.548H36.1518C36.0361 331.23 35.906 330.919 35.7686 330.615L40.2586 326.639C40.7341 326.229 41.1234 325.73 41.4041 325.169C41.6848 324.608 41.8512 323.996 41.8937 323.37C41.9362 322.745 41.854 322.117 41.6517 321.523C41.4495 320.929 41.1312 320.381 40.7155 319.911C40.2998 319.441 39.7949 319.059 39.2302 318.786C38.6654 318.513 38.052 318.355 37.4256 318.321C36.7992 318.287 36.1723 318.377 35.5812 318.588C34.9902 318.798 34.4468 319.124 33.9827 319.546L29.254 323.732C29.1817 323.797 29.1239 323.877 29.0516 323.949C28.7551 323.812 28.4515 323.689 28.1406 323.573V317.839C28.0927 316.614 27.5724 315.455 26.6888 314.606C25.8052 313.756 24.627 313.281 23.4011 313.281C22.1752 313.281 20.9969 313.756 20.1133 314.606C19.2297 315.455 18.7094 316.614 18.6616 317.839V323.573C18.2233 323.734 17.7938 323.917 17.3746 324.122C17.2414 323.958 17.0964 323.803 16.9407 323.66L12.1759 319.546C11.2169 318.781 9.99919 318.418 8.77823 318.532C7.55727 318.647 6.42798 319.229 5.6273 320.158C4.82663 321.087 4.41681 322.29 4.48382 323.514C4.55084 324.739 5.08948 325.889 5.98674 326.725L10.7732 330.854C10.8111 330.887 10.8523 330.916 10.8962 330.941C10.8094 331.143 10.7371 331.353 10.6576 331.562H4.7142C3.46442 331.568 2.26758 332.068 1.38452 332.952C0.501468 333.836 0.00380305 335.034 0 336.284V336.284C-1.46014e-06 337.541 0.498726 338.746 1.38667 339.635C2.27461 340.525 3.47919 341.025 4.73589 341.027H10.6214L10.766 341.417H10.7226L5.98674 345.604C5.0922 346.449 4.56145 347.61 4.50665 348.839C4.45184 350.069 4.87727 351.272 5.69303 352.194C6.5088 353.116 7.651 353.684 8.87828 353.78C10.1056 353.875 11.3218 353.489 12.2699 352.704L16.9986 348.518L17.0998 348.409C17.6169 348.688 18.1533 348.93 18.7049 349.132V354.815C18.7528 356.04 19.2731 357.199 20.1567 358.049C21.0403 358.899 22.2185 359.373 23.4444 359.373C24.6703 359.373 25.8486 358.899 26.7322 358.049C27.6158 357.199 28.1361 356.04 28.1839 354.815V349.19C28.5093 349.067 28.8347 348.937 29.1528 348.785L33.7947 352.784C34.7506 353.601 35.9923 354.006 37.2466 353.908C38.5008 353.811 39.6649 353.219 40.4828 352.263C41.3006 351.307 41.7053 350.065 41.6076 348.811C41.51 347.557 40.9181 346.393 39.9622 345.575L35.8409 342.018C35.9855 341.692 36.1157 341.36 36.2386 341.027H42.3193C43.5773 341.027 44.7837 340.527 45.6732 339.638C46.5627 338.748 47.0624 337.542 47.0624 336.284V336.284C47.0605 335.027 46.5599 333.823 45.6706 332.935C44.7813 332.047 43.576 331.548 42.3193 331.548V331.548Z" fill="#FFC1EB"/>
<path d="M42.3193 331.548H36.1518C36.0361 331.23 35.906 330.919 35.7686 330.615L40.2586 326.639C40.7341 326.229 41.1234 325.73 41.4041 325.169C41.6848 324.608 41.8512 323.996 41.8937 323.37C41.9362 322.745 41.854 322.117 41.6517 321.523C41.4495 320.929 41.1312 320.381 40.7155 319.911C40.2998 319.441 39.7949 319.059 39.2302 318.786C38.6654 318.513 38.052 318.355 37.4256 318.321C36.7992 318.287 36.1723 318.377 35.5812 318.588C34.9902 318.798 34.4468 319.124 33.9827 319.546L29.254 323.732C29.1817 323.797 29.1239 323.877 29.0516 323.949C28.7551 323.812 28.4515 323.689 28.1406 323.573V317.839C28.0927 316.614 27.5724 315.455 26.6888 314.606C25.8052 313.756 24.627 313.281 23.4011 313.281C22.1752 313.281 20.9969 313.756 20.1133 314.606C19.2297 315.455 18.7094 316.614 18.6616 317.839V323.573C18.2233 323.734 17.7938 323.917 17.3746 324.122C17.2414 323.958 17.0964 323.803 16.9407 323.66L12.1759 319.546C11.2169 318.781 9.99919 318.418 8.77823 318.532C7.55727 318.647 6.42798 319.229 5.6273 320.158C4.82663 321.087 4.41681 322.29 4.48382 323.514C4.55084 324.739 5.08948 325.889 5.98674 326.725L10.7732 330.854C10.8111 330.887 10.8523 330.916 10.8962 330.941C10.8094 331.143 10.7371 331.353 10.6576 331.562H4.7142C3.46442 331.568 2.26758 332.068 1.38452 332.952C0.501468 333.836 0.00380305 335.034 0 336.284V336.284C-1.46014e-06 337.541 0.498726 338.746 1.38667 339.635C2.27461 340.525 3.47919 341.025 4.73589 341.027H10.6214L10.766 341.417H10.7226L5.98674 345.604C5.0922 346.449 4.56145 347.61 4.50665 348.839C4.45184 350.069 4.87727 351.272 5.69303 352.194C6.5088 353.116 7.651 353.684 8.87828 353.78C10.1056 353.875 11.3218 353.489 12.2699 352.704L16.9986 348.518L17.0998 348.409C17.6169 348.688 18.1533 348.93 18.7049 349.132V354.815C18.7528 356.04 19.2731 357.199 20.1567 358.049C21.0403 358.899 22.2185 359.373 23.4444 359.373C24.6703 359.373 25.8486 358.899 26.7322 358.049C27.6158 357.199 28.1361 356.04 28.1839 354.815V349.19C28.5093 349.067 28.8347 348.937 29.1528 348.785L33.7947 352.784C34.7506 353.601 35.9923 354.006 37.2466 353.908C38.5008 353.811 39.6649 353.219 40.4828 352.263C41.3006 351.307 41.7053 350.065 41.6076 348.811C41.51 347.557 40.9181 346.393 39.9622 345.575L35.8409 342.018C35.9855 341.692 36.1157 341.36 36.2386 341.027H42.3193C43.5773 341.027 44.7837 340.527 45.6732 339.638C46.5627 338.748 47.0624 337.542 47.0624 336.284V336.284C47.0605 335.027 46.5599 333.823 45.6706 332.935C44.7813 332.047 43.576 331.548 42.3193 331.548V331.548Z" fill="#FFC1EB"/>
<path d="M42.3193 331.548H36.1518C36.0361 331.23 35.906 330.919 35.7686 330.615L40.2586 326.639C40.7341 326.229 41.1234 325.73 41.4041 325.169C41.6848 324.608 41.8512 323.996 41.8937 323.37C41.9362 322.745 41.854 322.117 41.6517 321.523C41.4495 320.929 41.1312 320.381 40.7155 319.911C40.2998 319.441 39.7949 319.059 39.2302 318.786C38.6654 318.513 38.052 318.355 37.4256 318.321C36.7992 318.287 36.1723 318.377 35.5812 318.588C34.9902 318.798 34.4468 319.124 33.9827 319.546L29.254 323.732C29.1817 323.797 29.1239 323.877 29.0516 323.949C28.7551 323.812 28.4515 323.689 28.1406 323.573V317.839C28.0927 316.614 27.5724 315.455 26.6888 314.606C25.8052 313.756 24.627 313.281 23.4011 313.281C22.1752 313.281 20.9969 313.756 20.1133 314.606C19.2297 315.455 18.7094 316.614 18.6616 317.839V323.573C18.2233 323.734 17.7938 323.917 17.3746 324.122C17.2414 323.958 17.0964 323.803 16.9407 323.66L12.1759 319.546C11.2169 318.781 9.99919 318.418 8.77823 318.532C7.55727 318.647 6.42798 319.229 5.6273 320.158C4.82663 321.087 4.41681 322.29 4.48382 323.514C4.55084 324.739 5.08948 325.889 5.98674 326.725L10.7732 330.854C10.8111 330.887 10.8523 330.916 10.8962 330.941C10.8094 331.143 10.7371 331.353 10.6576 331.562H4.7142C3.46442 331.568 2.26758 332.068 1.38452 332.952C0.501468 333.836 0.00380305 335.034 0 336.284V336.284C-1.46014e-06 337.541 0.498726 338.746 1.38667 339.635C2.27461 340.525 3.47919 341.025 4.73589 341.027H10.6214L10.766 341.417H10.7226L5.98674 345.604C5.0922 346.449 4.56145 347.61 4.50665 348.839C4.45184 350.069 4.87727 351.272 5.69303 352.194C6.5088 353.116 7.651 353.684 8.87828 353.78C10.1056 353.875 11.3218 353.489 12.2699 352.704L16.9986 348.518L17.0998 348.409C17.6169 348.688 18.1533 348.93 18.7049 349.132V354.815C18.7528 356.04 19.2731 357.199 20.1567 358.049C21.0403 358.899 22.2185 359.373 23.4444 359.373C24.6703 359.373 25.8486 358.899 26.7322 358.049C27.6158 357.199 28.1361 356.04 28.1839 354.815V349.19C28.5093 349.067 28.8347 348.937 29.1528 348.785L33.7947 352.784C34.7506 353.601 35.9923 354.006 37.2466 353.908C38.5008 353.811 39.6649 353.219 40.4828 352.263C41.3006 351.307 41.7053 350.065 41.6076 348.811C41.51 347.557 40.9181 346.393 39.9622 345.575L35.8409 342.018C35.9855 341.692 36.1157 341.36 36.2386 341.027H42.3193C43.5773 341.027 44.7837 340.527 45.6732 339.638C46.5627 338.748 47.0624 337.542 47.0624 336.284V336.284C47.0605 335.027 46.5599 333.823 45.6706 332.935C44.7813 332.047 43.576 331.548 42.3193 331.548V331.548Z" fill="#FFC1EB"/>
<path d="M42.3193 331.548H36.1518C36.0361 331.23 35.906 330.919 35.7686 330.615L40.2586 326.639C40.7341 326.229 41.1234 325.73 41.4041 325.169C41.6848 324.608 41.8512 323.996 41.8937 323.37C41.9362 322.745 41.854 322.117 41.6517 321.523C41.4495 320.929 41.1312 320.381 40.7155 319.911C40.2998 319.441 39.7949 319.059 39.2302 318.786C38.6654 318.513 38.052 318.355 37.4256 318.321C36.7992 318.287 36.1723 318.377 35.5812 318.588C34.9902 318.798 34.4468 319.124 33.9827 319.546L29.254 323.732C29.1817 323.797 29.1239 323.877 29.0516 323.949C28.7551 323.812 28.4515 323.689 28.1406 323.573V317.839C28.0927 316.614 27.5724 315.455 26.6888 314.606C25.8052 313.756 24.627 313.281 23.4011 313.281C22.1752 313.281 20.9969 313.756 20.1133 314.606C19.2297 315.455 18.7094 316.614 18.6616 317.839V323.573C18.2233 323.734 17.7938 323.917 17.3746 324.122C17.2414 323.958 17.0964 323.803 16.9407 323.66L12.1759 319.546C11.2169 318.781 9.99919 318.418 8.77823 318.532C7.55727 318.647 6.42798 319.229 5.6273 320.158C4.82663 321.087 4.41681 322.29 4.48382 323.514C4.55084 324.739 5.08948 325.889 5.98674 326.725L10.7732 330.854C10.8111 330.887 10.8523 330.916 10.8962 330.941C10.8094 331.143 10.7371 331.353 10.6576 331.562H4.7142C3.46442 331.568 2.26758 332.068 1.38452 332.952C0.501468 333.836 0.00380305 335.034 0 336.284V336.284C-1.46014e-06 337.541 0.498726 338.746 1.38667 339.635C2.27461 340.525 3.47919 341.025 4.73589 341.027H10.6214L10.766 341.417H10.7226L5.98674 345.604C5.0922 346.449 4.56145 347.61 4.50665 348.839C4.45184 350.069 4.87727 351.272 5.69303 352.194C6.5088 353.116 7.651 353.684 8.87828 353.78C10.1056 353.875 11.3218 353.489 12.2699 352.704L16.9986 348.518L17.0998 348.409C17.6169 348.688 18.1533 348.93 18.7049 349.132V354.815C18.7528 356.04 19.2731 357.199 20.1567 358.049C21.0403 358.899 22.2185 359.373 23.4444 359.373C24.6703 359.373 25.8486 358.899 26.7322 358.049C27.6158 357.199 28.1361 356.04 28.1839 354.815V349.19C28.5093 349.067 28.8347 348.937 29.1528 348.785L33.7947 352.784C34.7506 353.601 35.9923 354.006 37.2466 353.908C38.5008 353.811 39.6649 353.219 40.4828 352.263C41.3006 351.307 41.7053 350.065 41.6076 348.811C41.51 347.557 40.9181 346.393 39.9622 345.575L35.8409 342.018C35.9855 341.692 36.1157 341.36 36.2386 341.027H42.3193C43.5773 341.027 44.7837 340.527 45.6732 339.638C46.5627 338.748 47.0624 337.542 47.0624 336.284V336.284C47.0605 335.027 46.5599 333.823 45.6706 332.935C44.7813 332.047 43.576 331.548 42.3193 331.548V331.548Z" fill="#FFC1EB"/>
<path d="M42.3193 331.548H36.1518C36.0361 331.23 35.906 330.919 35.7686 330.615L40.2586 326.639C40.7341 326.229 41.1234 325.73 41.4041 325.169C41.6848 324.608 41.8512 323.996 41.8937 323.37C41.9362 322.745 41.854 322.117 41.6517 321.523C41.4495 320.929 41.1312 320.381 40.7155 319.911C40.2998 319.441 39.7949 319.059 39.2302 318.786C38.6654 318.513 38.052 318.355 37.4256 318.321C36.7992 318.287 36.1723 318.377 35.5812 318.588C34.9902 318.798 34.4468 319.124 33.9827 319.546L29.254 323.732C29.1817 323.797 29.1239 323.877 29.0516 323.949C28.7551 323.812 28.4515 323.689 28.1406 323.573V317.839C28.0927 316.614 27.5724 315.455 26.6888 314.606C25.8052 313.756 24.627 313.281 23.4011 313.281C22.1752 313.281 20.9969 313.756 20.1133 314.606C19.2297 315.455 18.7094 316.614 18.6616 317.839V323.573C18.2233 323.734 17.7938 323.917 17.3746 324.122C17.2414 323.958 17.0964 323.803 16.9407 323.66L12.1759 319.546C11.2169 318.781 9.99919 318.418 8.77823 318.532C7.55727 318.647 6.42798 319.229 5.6273 320.158C4.82663 321.087 4.41681 322.29 4.48382 323.514C4.55084 324.739 5.08948 325.889 5.98674 326.725L10.7732 330.854C10.8111 330.887 10.8523 330.916 10.8962 330.941C10.8094 331.143 10.7371 331.353 10.6576 331.562H4.7142C3.46442 331.568 2.26758 332.068 1.38452 332.952C0.501468 333.836 0.00380305 335.034 0 336.284V336.284C-1.46014e-06 337.541 0.498726 338.746 1.38667 339.635C2.27461 340.525 3.47919 341.025 4.73589 341.027H10.6214L10.766 341.417H10.7226L5.98674 345.604C5.0922 346.449 4.56145 347.61 4.50665 348.839C4.45184 350.069 4.87727 351.272 5.69303 352.194C6.5088 353.116 7.651 353.684 8.87828 353.78C10.1056 353.875 11.3218 353.489 12.2699 352.704L16.9986 348.518L17.0998 348.409C17.6169 348.688 18.1533 348.93 18.7049 349.132V354.815C18.7528 356.04 19.2731 357.199 20.1567 358.049C21.0403 358.899 22.2185 359.373 23.4444 359.373C24.6703 359.373 25.8486 358.899 26.7322 358.049C27.6158 357.199 28.1361 356.04 28.1839 354.815V349.19C28.5093 349.067 28.8347 348.937 29.1528 348.785L33.7947 352.784C34.7506 353.601 35.9923 354.006 37.2466 353.908C38.5008 353.811 39.6649 353.219 40.4828 352.263C41.3006 351.307 41.7053 350.065 41.6076 348.811C41.51 347.557 40.9181 346.393 39.9622 345.575L35.8409 342.018C35.9855 341.692 36.1157 341.36 36.2386 341.027H42.3193C43.5773 341.027 44.7837 340.527 45.6732 339.638C46.5627 338.748 47.0624 337.542 47.0624 336.284V336.284C47.0605 335.027 46.5599 333.823 45.6706 332.935C44.7813 332.047 43.576 331.548 42.3193 331.548V331.548Z" fill="#FFC1EB"/>
<path d="M42.3193 331.548H36.1518C36.0361 331.23 35.906 330.919 35.7686 330.615L40.2586 326.639C40.7341 326.229 41.1234 325.73 41.4041 325.169C41.6848 324.608 41.8512 323.996 41.8937 323.37C41.9362 322.745 41.854 322.117 41.6517 321.523C41.4495 320.929 41.1312 320.381 40.7155 319.911C40.2998 319.441 39.7949 319.059 39.2302 318.786C38.6654 318.513 38.052 318.355 37.4256 318.321C36.7992 318.287 36.1723 318.377 35.5812 318.588C34.9902 318.798 34.4468 319.124 33.9827 319.546L29.254 323.732C29.1817 323.797 29.1239 323.877 29.0516 323.949C28.7551 323.812 28.4515 323.689 28.1406 323.573V317.839C28.0927 316.614 27.5724 315.455 26.6888 314.606C25.8052 313.756 24.627 313.281 23.4011 313.281C22.1752 313.281 20.9969 313.756 20.1133 314.606C19.2297 315.455 18.7094 316.614 18.6616 317.839V323.573C18.2233 323.734 17.7938 323.917 17.3746 324.122C17.2414 323.958 17.0964 323.803 16.9407 323.66L12.1759 319.546C11.2169 318.781 9.99919 318.418 8.77823 318.532C7.55727 318.647 6.42798 319.229 5.6273 320.158C4.82663 321.087 4.41681 322.29 4.48382 323.514C4.55084 324.739 5.08948 325.889 5.98674 326.725L10.7732 330.854C10.8111 330.887 10.8523 330.916 10.8962 330.941C10.8094 331.143 10.7371 331.353 10.6576 331.562H4.7142C3.46442 331.568 2.26758 332.068 1.38452 332.952C0.501468 333.836 0.00380305 335.034 0 336.284V336.284C-1.46014e-06 337.541 0.498726 338.746 1.38667 339.635C2.27461 340.525 3.47919 341.025 4.73589 341.027H10.6214L10.766 341.417H10.7226L5.98674 345.604C5.0922 346.449 4.56145 347.61 4.50665 348.839C4.45184 350.069 4.87727 351.272 5.69303 352.194C6.5088 353.116 7.651 353.684 8.87828 353.78C10.1056 353.875 11.3218 353.489 12.2699 352.704L16.9986 348.518L17.0998 348.409C17.6169 348.688 18.1533 348.93 18.7049 349.132V354.815C18.7528 356.04 19.2731 357.199 20.1567 358.049C21.0403 358.899 22.2185 359.373 23.4444 359.373C24.6703 359.373 25.8486 358.899 26.7322 358.049C27.6158 357.199 28.1361 356.04 28.1839 354.815V349.19C28.5093 349.067 28.8347 348.937 29.1528 348.785L33.7947 352.784C34.7506 353.601 35.9923 354.006 37.2466 353.908C38.5008 353.811 39.6649 353.219 40.4828 352.263C41.3006 351.307 41.7053 350.065 41.6076 348.811C41.51 347.557 40.9181 346.393 39.9622 345.575L35.8409 342.018C35.9855 341.692 36.1157 341.36 36.2386 341.027H42.3193C43.5773 341.027 44.7837 340.527 45.6732 339.638C46.5627 338.748 47.0624 337.542 47.0624 336.284V336.284C47.0605 335.027 46.5599 333.823 45.6706 332.935C44.7813 332.047 43.576 331.548 42.3193 331.548V331.548Z" fill="#F8AB5D"/>
<path d="M92.7875 349.01H86.6489C86.5333 348.692 86.4031 348.388 86.2585 348.084L90.7558 344.108C91.6503 343.262 92.1811 342.102 92.2359 340.872C92.2907 339.642 91.8653 338.439 91.0495 337.518C90.2337 336.596 89.0915 336.027 87.8643 335.932C86.637 335.837 85.4208 336.222 84.4726 337.008L79.7439 341.194C79.6728 341.263 79.6052 341.335 79.5415 341.411C79.2451 341.273 78.9342 341.15 78.6233 341.035V335.301C78.5754 334.076 78.0551 332.917 77.1715 332.068C76.2879 331.218 75.1096 330.743 73.8837 330.743C72.6578 330.743 71.4796 331.218 70.596 332.068C69.7124 332.917 69.1921 334.076 69.1442 335.301V341.035C68.7104 341.194 68.2838 341.382 67.8645 341.584C67.7294 341.421 67.5845 341.267 67.4307 341.122L62.6442 336.993C62.1771 336.558 61.6271 336.222 61.027 336.004C60.427 335.787 59.7892 335.693 59.1518 335.727C58.5145 335.762 57.8908 335.926 57.318 336.207C56.7453 336.489 56.2352 336.883 55.8185 337.367C55.4018 337.85 55.0869 338.413 54.8927 339.021C54.6985 339.629 54.6291 340.27 54.6885 340.905C54.748 341.541 54.935 342.158 55.2386 342.719C55.5421 343.281 55.9558 343.775 56.455 344.173L61.2342 348.301C61.2759 348.333 61.3194 348.362 61.3644 348.388C61.2776 348.591 61.1981 348.8 61.1258 349.01H55.1824C53.9264 349.01 52.7218 349.509 51.8336 350.397C50.9455 351.285 50.4465 352.49 50.4465 353.746C50.4465 355.002 50.9453 356.208 51.8332 357.097C52.7211 357.986 53.9257 358.487 55.1824 358.489H61.0679C61.1113 358.619 61.1619 358.756 61.2125 358.887C61.2125 358.887 61.2125 358.887 61.1692 358.887L56.4333 363.073C55.9434 363.479 55.5401 363.978 55.2473 364.543C54.9546 365.108 54.7784 365.725 54.7292 366.36C54.68 366.994 54.7589 367.631 54.9611 368.234C55.1632 368.837 55.4846 369.393 55.9061 369.87C56.3276 370.346 56.8405 370.733 57.4145 371.007C57.9884 371.281 58.6116 371.436 59.247 371.465C59.8823 371.493 60.5169 371.393 61.1129 371.171C61.709 370.95 62.2543 370.61 62.7165 370.173L67.4451 365.987L67.5463 365.886C68.063 366.16 68.5968 366.402 69.1442 366.609V372.328C69.1921 373.553 69.7124 374.712 70.596 375.561C71.4796 376.411 72.6578 376.886 73.8837 376.886C75.1096 376.886 76.2879 376.411 77.1715 375.561C78.0551 374.712 78.5754 373.553 78.6233 372.328V366.616C78.9558 366.493 79.2812 366.363 79.5993 366.211L84.234 370.209C84.705 370.616 85.2514 370.926 85.8422 371.122C86.4331 371.318 87.0566 371.395 87.6773 371.35C88.298 371.304 88.9037 371.137 89.4599 370.858C90.016 370.578 90.5116 370.192 90.9185 369.721C91.3253 369.25 91.6355 368.704 91.8311 368.113C92.0268 367.522 92.1042 366.899 92.0589 366.278C92.0135 365.657 91.8464 365.052 91.567 364.495C91.2876 363.939 90.9014 363.444 90.4304 363.037L86.3019 359.479C86.4537 359.154 86.5839 358.821 86.7068 358.489H92.7875C94.0442 358.487 95.2488 357.986 96.1367 357.097C97.0247 356.208 97.5234 355.002 97.5234 353.746C97.5234 353.124 97.4009 352.508 97.1629 351.933C96.9249 351.359 96.5761 350.837 96.1363 350.397C95.6965 349.957 95.1745 349.608 94.5999 349.37C94.0253 349.132 93.4094 349.01 92.7875 349.01V349.01Z" fill="#FFC1EB"/>
<path d="M92.7875 349.01H86.6489C86.5333 348.692 86.4031 348.388 86.2585 348.084L90.7558 344.108C91.6503 343.262 92.1811 342.102 92.2359 340.872C92.2907 339.642 91.8653 338.439 91.0495 337.518C90.2337 336.596 89.0915 336.027 87.8643 335.932C86.637 335.837 85.4208 336.222 84.4726 337.008L79.7439 341.194C79.6728 341.263 79.6052 341.335 79.5415 341.411C79.2451 341.273 78.9342 341.15 78.6233 341.035V335.301C78.5754 334.076 78.0551 332.917 77.1715 332.068C76.2879 331.218 75.1096 330.743 73.8837 330.743C72.6578 330.743 71.4796 331.218 70.596 332.068C69.7124 332.917 69.1921 334.076 69.1442 335.301V341.035C68.7104 341.194 68.2838 341.382 67.8645 341.584C67.7294 341.421 67.5845 341.267 67.4307 341.122L62.6442 336.993C62.1771 336.558 61.6271 336.222 61.027 336.004C60.427 335.787 59.7892 335.693 59.1518 335.727C58.5145 335.762 57.8908 335.926 57.318 336.207C56.7453 336.489 56.2352 336.883 55.8185 337.367C55.4018 337.85 55.0869 338.413 54.8927 339.021C54.6985 339.629 54.6291 340.27 54.6885 340.905C54.748 341.541 54.935 342.158 55.2386 342.719C55.5421 343.281 55.9558 343.775 56.455 344.173L61.2342 348.301C61.2759 348.333 61.3194 348.362 61.3644 348.388C61.2776 348.591 61.1981 348.8 61.1258 349.01H55.1824C53.9264 349.01 52.7218 349.509 51.8336 350.397C50.9455 351.285 50.4465 352.49 50.4465 353.746C50.4465 355.002 50.9453 356.208 51.8332 357.097C52.7211 357.986 53.9257 358.487 55.1824 358.489H61.0679C61.1113 358.619 61.1619 358.756 61.2125 358.887C61.2125 358.887 61.2125 358.887 61.1692 358.887L56.4333 363.073C55.9434 363.479 55.5401 363.978 55.2473 364.543C54.9546 365.108 54.7784 365.725 54.7292 366.36C54.68 366.994 54.7589 367.631 54.9611 368.234C55.1632 368.837 55.4846 369.393 55.9061 369.87C56.3276 370.346 56.8405 370.733 57.4145 371.007C57.9884 371.281 58.6116 371.436 59.247 371.465C59.8823 371.493 60.5169 371.393 61.1129 371.171C61.709 370.95 62.2543 370.61 62.7165 370.173L67.4451 365.987L67.5463 365.886C68.063 366.16 68.5968 366.402 69.1442 366.609V372.328C69.1921 373.553 69.7124 374.712 70.596 375.561C71.4796 376.411 72.6578 376.886 73.8837 376.886C75.1096 376.886 76.2879 376.411 77.1715 375.561C78.0551 374.712 78.5754 373.553 78.6233 372.328V366.616C78.9558 366.493 79.2812 366.363 79.5993 366.211L84.234 370.209C84.705 370.616 85.2514 370.926 85.8422 371.122C86.4331 371.318 87.0566 371.395 87.6773 371.35C88.298 371.304 88.9037 371.137 89.4599 370.858C90.016 370.578 90.5116 370.192 90.9185 369.721C91.3253 369.25 91.6355 368.704 91.8311 368.113C92.0268 367.522 92.1042 366.899 92.0589 366.278C92.0135 365.657 91.8464 365.052 91.567 364.495C91.2876 363.939 90.9014 363.444 90.4304 363.037L86.3019 359.479C86.4537 359.154 86.5839 358.821 86.7068 358.489H92.7875C94.0442 358.487 95.2488 357.986 96.1367 357.097C97.0247 356.208 97.5234 355.002 97.5234 353.746C97.5234 353.124 97.4009 352.508 97.1629 351.933C96.9249 351.359 96.5761 350.837 96.1363 350.397C95.6965 349.957 95.1745 349.608 94.5999 349.37C94.0253 349.132 93.4094 349.01 92.7875 349.01V349.01Z" fill="#FFC1EB"/>
<path d="M92.7875 349.01H86.6489C86.5333 348.692 86.4031 348.388 86.2585 348.084L90.7558 344.108C91.6503 343.262 92.1811 342.102 92.2359 340.872C92.2907 339.642 91.8653 338.439 91.0495 337.518C90.2337 336.596 89.0915 336.027 87.8643 335.932C86.637 335.837 85.4208 336.222 84.4726 337.008L79.7439 341.194C79.6728 341.263 79.6052 341.335 79.5415 341.411C79.2451 341.273 78.9342 341.15 78.6233 341.035V335.301C78.5754 334.076 78.0551 332.917 77.1715 332.068C76.2879 331.218 75.1096 330.743 73.8837 330.743C72.6578 330.743 71.4796 331.218 70.596 332.068C69.7124 332.917 69.1921 334.076 69.1442 335.301V341.035C68.7104 341.194 68.2838 341.382 67.8645 341.584C67.7294 341.421 67.5845 341.267 67.4307 341.122L62.6442 336.993C62.1771 336.558 61.6271 336.222 61.027 336.004C60.427 335.787 59.7892 335.693 59.1518 335.727C58.5145 335.762 57.8908 335.926 57.318 336.207C56.7453 336.489 56.2352 336.883 55.8185 337.367C55.4018 337.85 55.0869 338.413 54.8927 339.021C54.6985 339.629 54.6291 340.27 54.6885 340.905C54.748 341.541 54.935 342.158 55.2386 342.719C55.5421 343.281 55.9558 343.775 56.455 344.173L61.2342 348.301C61.2759 348.333 61.3194 348.362 61.3644 348.388C61.2776 348.591 61.1981 348.8 61.1258 349.01H55.1824C53.9264 349.01 52.7218 349.509 51.8336 350.397C50.9455 351.285 50.4465 352.49 50.4465 353.746C50.4465 355.002 50.9453 356.208 51.8332 357.097C52.7211 357.986 53.9257 358.487 55.1824 358.489H61.0679C61.1113 358.619 61.1619 358.756 61.2125 358.887C61.2125 358.887 61.2125 358.887 61.1692 358.887L56.4333 363.073C55.9434 363.479 55.5401 363.978 55.2473 364.543C54.9546 365.108 54.7784 365.725 54.7292 366.36C54.68 366.994 54.7589 367.631 54.9611 368.234C55.1632 368.837 55.4846 369.393 55.9061 369.87C56.3276 370.346 56.8405 370.733 57.4145 371.007C57.9884 371.281 58.6116 371.436 59.247 371.465C59.8823 371.493 60.5169 371.393 61.1129 371.171C61.709 370.95 62.2543 370.61 62.7165 370.173L67.4451 365.987L67.5463 365.886C68.063 366.16 68.5968 366.402 69.1442 366.609V372.328C69.1921 373.553 69.7124 374.712 70.596 375.561C71.4796 376.411 72.6578 376.886 73.8837 376.886C75.1096 376.886 76.2879 376.411 77.1715 375.561C78.0551 374.712 78.5754 373.553 78.6233 372.328V366.616C78.9558 366.493 79.2812 366.363 79.5993 366.211L84.234 370.209C84.705 370.616 85.2514 370.926 85.8422 371.122C86.4331 371.318 87.0566 371.395 87.6773 371.35C88.298 371.304 88.9037 371.137 89.4599 370.858C90.016 370.578 90.5116 370.192 90.9185 369.721C91.3253 369.25 91.6355 368.704 91.8311 368.113C92.0268 367.522 92.1042 366.899 92.0589 366.278C92.0135 365.657 91.8464 365.052 91.567 364.495C91.2876 363.939 90.9014 363.444 90.4304 363.037L86.3019 359.479C86.4537 359.154 86.5839 358.821 86.7068 358.489H92.7875C94.0442 358.487 95.2488 357.986 96.1367 357.097C97.0247 356.208 97.5234 355.002 97.5234 353.746C97.5234 353.124 97.4009 352.508 97.1629 351.933C96.9249 351.359 96.5761 350.837 96.1363 350.397C95.6965 349.957 95.1745 349.608 94.5999 349.37C94.0253 349.132 93.4094 349.01 92.7875 349.01V349.01Z" fill="#FFC1EB"/>
<path d="M92.7875 349.01H86.6489C86.5333 348.692 86.4031 348.388 86.2585 348.084L90.7558 344.108C91.6503 343.262 92.1811 342.102 92.2359 340.872C92.2907 339.642 91.8653 338.439 91.0495 337.518C90.2337 336.596 89.0915 336.027 87.8643 335.932C86.637 335.837 85.4208 336.222 84.4726 337.008L79.7439 341.194C79.6728 341.263 79.6052 341.335 79.5415 341.411C79.2451 341.273 78.9342 341.15 78.6233 341.035V335.301C78.5754 334.076 78.0551 332.917 77.1715 332.068C76.2879 331.218 75.1096 330.743 73.8837 330.743C72.6578 330.743 71.4796 331.218 70.596 332.068C69.7124 332.917 69.1921 334.076 69.1442 335.301V341.035C68.7104 341.194 68.2838 341.382 67.8645 341.584C67.7294 341.421 67.5845 341.267 67.4307 341.122L62.6442 336.993C62.1771 336.558 61.6271 336.222 61.027 336.004C60.427 335.787 59.7892 335.693 59.1518 335.727C58.5145 335.762 57.8908 335.926 57.318 336.207C56.7453 336.489 56.2352 336.883 55.8185 337.367C55.4018 337.85 55.0869 338.413 54.8927 339.021C54.6985 339.629 54.6291 340.27 54.6885 340.905C54.748 341.541 54.935 342.158 55.2386 342.719C55.5421 343.281 55.9558 343.775 56.455 344.173L61.2342 348.301C61.2759 348.333 61.3194 348.362 61.3644 348.388C61.2776 348.591 61.1981 348.8 61.1258 349.01H55.1824C53.9264 349.01 52.7218 349.509 51.8336 350.397C50.9455 351.285 50.4465 352.49 50.4465 353.746C50.4465 355.002 50.9453 356.208 51.8332 357.097C52.7211 357.986 53.9257 358.487 55.1824 358.489H61.0679C61.1113 358.619 61.1619 358.756 61.2125 358.887C61.2125 358.887 61.2125 358.887 61.1692 358.887L56.4333 363.073C55.9434 363.479 55.5401 363.978 55.2473 364.543C54.9546 365.108 54.7784 365.725 54.7292 366.36C54.68 366.994 54.7589 367.631 54.9611 368.234C55.1632 368.837 55.4846 369.393 55.9061 369.87C56.3276 370.346 56.8405 370.733 57.4145 371.007C57.9884 371.281 58.6116 371.436 59.247 371.465C59.8823 371.493 60.5169 371.393 61.1129 371.171C61.709 370.95 62.2543 370.61 62.7165 370.173L67.4451 365.987L67.5463 365.886C68.063 366.16 68.5968 366.402 69.1442 366.609V372.328C69.1921 373.553 69.7124 374.712 70.596 375.561C71.4796 376.411 72.6578 376.886 73.8837 376.886C75.1096 376.886 76.2879 376.411 77.1715 375.561C78.0551 374.712 78.5754 373.553 78.6233 372.328V366.616C78.9558 366.493 79.2812 366.363 79.5993 366.211L84.234 370.209C84.705 370.616 85.2514 370.926 85.8422 371.122C86.4331 371.318 87.0566 371.395 87.6773 371.35C88.298 371.304 88.9037 371.137 89.4599 370.858C90.016 370.578 90.5116 370.192 90.9185 369.721C91.3253 369.25 91.6355 368.704 91.8311 368.113C92.0268 367.522 92.1042 366.899 92.0589 366.278C92.0135 365.657 91.8464 365.052 91.567 364.495C91.2876 363.939 90.9014 363.444 90.4304 363.037L86.3019 359.479C86.4537 359.154 86.5839 358.821 86.7068 358.489H92.7875C94.0442 358.487 95.2488 357.986 96.1367 357.097C97.0247 356.208 97.5234 355.002 97.5234 353.746C97.5234 353.124 97.4009 352.508 97.1629 351.933C96.9249 351.359 96.5761 350.837 96.1363 350.397C95.6965 349.957 95.1745 349.608 94.5999 349.37C94.0253 349.132 93.4094 349.01 92.7875 349.01V349.01Z" fill="#FFC1EB"/>
<path d="M92.7875 349.01H86.6489C86.5333 348.692 86.4031 348.388 86.2585 348.084L90.7558 344.108C91.6503 343.262 92.1811 342.102 92.2359 340.872C92.2907 339.642 91.8653 338.439 91.0495 337.518C90.2337 336.596 89.0915 336.027 87.8643 335.932C86.637 335.837 85.4208 336.222 84.4726 337.008L79.7439 341.194C79.6728 341.263 79.6052 341.335 79.5415 341.411C79.2451 341.273 78.9342 341.15 78.6233 341.035V335.301C78.5754 334.076 78.0551 332.917 77.1715 332.068C76.2879 331.218 75.1096 330.743 73.8837 330.743C72.6578 330.743 71.4796 331.218 70.596 332.068C69.7124 332.917 69.1921 334.076 69.1442 335.301V341.035C68.7104 341.194 68.2838 341.382 67.8645 341.584C67.7294 341.421 67.5845 341.267 67.4307 341.122L62.6442 336.993C62.1771 336.558 61.6271 336.222 61.027 336.004C60.427 335.787 59.7892 335.693 59.1518 335.727C58.5145 335.762 57.8908 335.926 57.318 336.207C56.7453 336.489 56.2352 336.883 55.8185 337.367C55.4018 337.85 55.0869 338.413 54.8927 339.021C54.6985 339.629 54.6291 340.27 54.6885 340.905C54.748 341.541 54.935 342.158 55.2386 342.719C55.5421 343.281 55.9558 343.775 56.455 344.173L61.2342 348.301C61.2759 348.333 61.3194 348.362 61.3644 348.388C61.2776 348.591 61.1981 348.8 61.1258 349.01H55.1824C53.9264 349.01 52.7218 349.509 51.8336 350.397C50.9455 351.285 50.4465 352.49 50.4465 353.746C50.4465 355.002 50.9453 356.208 51.8332 357.097C52.7211 357.986 53.9257 358.487 55.1824 358.489H61.0679C61.1113 358.619 61.1619 358.756 61.2125 358.887C61.2125 358.887 61.2125 358.887 61.1692 358.887L56.4333 363.073C55.9434 363.479 55.5401 363.978 55.2473 364.543C54.9546 365.108 54.7784 365.725 54.7292 366.36C54.68 366.994 54.7589 367.631 54.9611 368.234C55.1632 368.837 55.4846 369.393 55.9061 369.87C56.3276 370.346 56.8405 370.733 57.4145 371.007C57.9884 371.281 58.6116 371.436 59.247 371.465C59.8823 371.493 60.5169 371.393 61.1129 371.171C61.709 370.95 62.2543 370.61 62.7165 370.173L67.4451 365.987L67.5463 365.886C68.063 366.16 68.5968 366.402 69.1442 366.609V372.328C69.1921 373.553 69.7124 374.712 70.596 375.561C71.4796 376.411 72.6578 376.886 73.8837 376.886C75.1096 376.886 76.2879 376.411 77.1715 375.561C78.0551 374.712 78.5754 373.553 78.6233 372.328V366.616C78.9558 366.493 79.2812 366.363 79.5993 366.211L84.234 370.209C84.705 370.616 85.2514 370.926 85.8422 371.122C86.4331 371.318 87.0566 371.395 87.6773 371.35C88.298 371.304 88.9037 371.137 89.4599 370.858C90.016 370.578 90.5116 370.192 90.9185 369.721C91.3253 369.25 91.6355 368.704 91.8311 368.113C92.0268 367.522 92.1042 366.899 92.0589 366.278C92.0135 365.657 91.8464 365.052 91.567 364.495C91.2876 363.939 90.9014 363.444 90.4304 363.037L86.3019 359.479C86.4537 359.154 86.5839 358.821 86.7068 358.489H92.7875C94.0442 358.487 95.2488 357.986 96.1367 357.097C97.0247 356.208 97.5234 355.002 97.5234 353.746C97.5234 353.124 97.4009 352.508 97.1629 351.933C96.9249 351.359 96.5761 350.837 96.1363 350.397C95.6965 349.957 95.1745 349.608 94.5999 349.37C94.0253 349.132 93.4094 349.01 92.7875 349.01V349.01Z" fill="#FFC1EB"/>
<path d="M92.7875 349.01H86.6489C86.5333 348.692 86.4031 348.388 86.2585 348.084L90.7558 344.108C91.6503 343.262 92.1811 342.102 92.2359 340.872C92.2907 339.642 91.8653 338.439 91.0495 337.518C90.2337 336.596 89.0915 336.027 87.8643 335.932C86.637 335.837 85.4208 336.222 84.4726 337.008L79.7439 341.194C79.6728 341.263 79.6052 341.335 79.5415 341.411C79.2451 341.273 78.9342 341.15 78.6233 341.035V335.301C78.5754 334.076 78.0551 332.917 77.1715 332.068C76.2879 331.218 75.1096 330.743 73.8837 330.743C72.6578 330.743 71.4796 331.218 70.596 332.068C69.7124 332.917 69.1921 334.076 69.1442 335.301V341.035C68.7104 341.194 68.2838 341.382 67.8645 341.584C67.7294 341.421 67.5845 341.267 67.4307 341.122L62.6442 336.993C62.1771 336.558 61.6271 336.222 61.027 336.004C60.427 335.787 59.7892 335.693 59.1518 335.727C58.5145 335.762 57.8908 335.926 57.318 336.207C56.7453 336.489 56.2352 336.883 55.8185 337.367C55.4018 337.85 55.0869 338.413 54.8927 339.021C54.6985 339.629 54.6291 340.27 54.6885 340.905C54.748 341.541 54.935 342.158 55.2386 342.719C55.5421 343.281 55.9558 343.775 56.455 344.173L61.2342 348.301C61.2759 348.333 61.3194 348.362 61.3644 348.388C61.2776 348.591 61.1981 348.8 61.1258 349.01H55.1824C53.9264 349.01 52.7218 349.509 51.8336 350.397C50.9455 351.285 50.4465 352.49 50.4465 353.746C50.4465 355.002 50.9453 356.208 51.8332 357.097C52.7211 357.986 53.9257 358.487 55.1824 358.489H61.0679C61.1113 358.619 61.1619 358.756 61.2125 358.887C61.2125 358.887 61.2125 358.887 61.1692 358.887L56.4333 363.073C55.9434 363.479 55.5401 363.978 55.2473 364.543C54.9546 365.108 54.7784 365.725 54.7292 366.36C54.68 366.994 54.7589 367.631 54.9611 368.234C55.1632 368.837 55.4846 369.393 55.9061 369.87C56.3276 370.346 56.8405 370.733 57.4145 371.007C57.9884 371.281 58.6116 371.436 59.247 371.465C59.8823 371.493 60.5169 371.393 61.1129 371.171C61.709 370.95 62.2543 370.61 62.7165 370.173L67.4451 365.987L67.5463 365.886C68.063 366.16 68.5968 366.402 69.1442 366.609V372.328C69.1921 373.553 69.7124 374.712 70.596 375.561C71.4796 376.411 72.6578 376.886 73.8837 376.886C75.1096 376.886 76.2879 376.411 77.1715 375.561C78.0551 374.712 78.5754 373.553 78.6233 372.328V366.616C78.9558 366.493 79.2812 366.363 79.5993 366.211L84.234 370.209C84.705 370.616 85.2514 370.926 85.8422 371.122C86.4331 371.318 87.0566 371.395 87.6773 371.35C88.298 371.304 88.9037 371.137 89.4599 370.858C90.016 370.578 90.5116 370.192 90.9185 369.721C91.3253 369.25 91.6355 368.704 91.8311 368.113C92.0268 367.522 92.1042 366.899 92.0589 366.278C92.0135 365.657 91.8464 365.052 91.567 364.495C91.2876 363.939 90.9014 363.444 90.4304 363.037L86.3019 359.479C86.4537 359.154 86.5839 358.821 86.7068 358.489H92.7875C94.0442 358.487 95.2488 357.986 96.1367 357.097C97.0247 356.208 97.5234 355.002 97.5234 353.746C97.5234 353.124 97.4009 352.508 97.1629 351.933C96.9249 351.359 96.5761 350.837 96.1363 350.397C95.6965 349.957 95.1745 349.608 94.5999 349.37C94.0253 349.132 93.4094 349.01 92.7875 349.01V349.01Z" fill="#FFC1EB"/>
<path d="M92.7875 349.01H86.6489C86.5333 348.692 86.4031 348.388 86.2585 348.084L90.7558 344.108C91.6503 343.262 92.1811 342.102 92.2359 340.872C92.2907 339.642 91.8653 338.439 91.0495 337.518C90.2337 336.596 89.0915 336.027 87.8643 335.932C86.637 335.837 85.4208 336.222 84.4726 337.008L79.7439 341.194C79.6728 341.263 79.6052 341.335 79.5415 341.411C79.2451 341.273 78.9342 341.15 78.6233 341.035V335.301C78.5754 334.076 78.0551 332.917 77.1715 332.068C76.2879 331.218 75.1096 330.743 73.8837 330.743C72.6578 330.743 71.4796 331.218 70.596 332.068C69.7124 332.917 69.1921 334.076 69.1442 335.301V341.035C68.7104 341.194 68.2838 341.382 67.8645 341.584C67.7294 341.421 67.5845 341.267 67.4307 341.122L62.6442 336.993C62.1771 336.558 61.6271 336.222 61.027 336.004C60.427 335.787 59.7892 335.693 59.1518 335.727C58.5145 335.762 57.8908 335.926 57.318 336.207C56.7453 336.489 56.2352 336.883 55.8185 337.367C55.4018 337.85 55.0869 338.413 54.8927 339.021C54.6985 339.629 54.6291 340.27 54.6885 340.905C54.748 341.541 54.935 342.158 55.2386 342.719C55.5421 343.281 55.9558 343.775 56.455 344.173L61.2342 348.301C61.2759 348.333 61.3194 348.362 61.3644 348.388C61.2776 348.591 61.1981 348.8 61.1258 349.01H55.1824C53.9264 349.01 52.7218 349.509 51.8336 350.397C50.9455 351.285 50.4465 352.49 50.4465 353.746C50.4465 355.002 50.9453 356.208 51.8332 357.097C52.7211 357.986 53.9257 358.487 55.1824 358.489H61.0679C61.1113 358.619 61.1619 358.756 61.2125 358.887C61.2125 358.887 61.2125 358.887 61.1692 358.887L56.4333 363.073C55.9434 363.479 55.5401 363.978 55.2473 364.543C54.9546 365.108 54.7784 365.725 54.7292 366.36C54.68 366.994 54.7589 367.631 54.9611 368.234C55.1632 368.837 55.4846 369.393 55.9061 369.87C56.3276 370.346 56.8405 370.733 57.4145 371.007C57.9884 371.281 58.6116 371.436 59.247 371.465C59.8823 371.493 60.5169 371.393 61.1129 371.171C61.709 370.95 62.2543 370.61 62.7165 370.173L67.4451 365.987L67.5463 365.886C68.063 366.16 68.5968 366.402 69.1442 366.609V372.328C69.1921 373.553 69.7124 374.712 70.596 375.561C71.4796 376.411 72.6578 376.886 73.8837 376.886C75.1096 376.886 76.2879 376.411 77.1715 375.561C78.0551 374.712 78.5754 373.553 78.6233 372.328V366.616C78.9558 366.493 79.2812 366.363 79.5993 366.211L84.234 370.209C84.705 370.616 85.2514 370.926 85.8422 371.122C86.4331 371.318 87.0566 371.395 87.6773 371.35C88.298 371.304 88.9037 371.137 89.4599 370.858C90.016 370.578 90.5116 370.192 90.9185 369.721C91.3253 369.25 91.6355 368.704 91.8311 368.113C92.0268 367.522 92.1042 366.899 92.0589 366.278C92.0135 365.657 91.8464 365.052 91.567 364.495C91.2876 363.939 90.9014 363.444 90.4304 363.037L86.3019 359.479C86.4537 359.154 86.5839 358.821 86.7068 358.489H92.7875C94.0442 358.487 95.2488 357.986 96.1367 357.097C97.0247 356.208 97.5234 355.002 97.5234 353.746C97.5234 353.124 97.4009 352.508 97.1629 351.933C96.9249 351.359 96.5761 350.837 96.1363 350.397C95.6965 349.957 95.1745 349.608 94.5999 349.37C94.0253 349.132 93.4094 349.01 92.7875 349.01V349.01Z" fill="#F8AB5D"/>
<path d="M23.5203 342.612C26.9865 342.612 29.7963 339.802 29.7963 336.336C29.7963 332.869 26.9865 330.06 23.5203 330.06C20.0542 330.06 17.2444 332.869 17.2444 336.336C17.2444 339.802 20.0542 342.612 23.5203 342.612Z" fill="white"/>
<path d="M73.9881 360.412C77.4542 360.412 80.2641 357.602 80.2641 354.136C80.2641 350.67 77.4542 347.86 73.9881 347.86C70.522 347.86 67.7122 350.67 67.7122 354.136C67.7122 357.602 70.522 360.412 73.9881 360.412Z" fill="white"/>
<path d="M82.231 467.588C79.88 467.588 77.5818 466.891 75.6271 465.585C73.6723 464.278 72.1487 462.422 71.2491 460.25C70.3494 458.078 70.114 455.688 70.5726 453.382C71.0313 451.076 72.1634 448.958 73.8258 447.296C75.4882 445.634 77.6062 444.502 79.912 444.043C82.2178 443.584 84.6078 443.82 86.7798 444.719C88.9518 445.619 90.8083 447.143 92.1144 449.097C93.4205 451.052 94.1177 453.35 94.1177 455.701C94.1138 458.853 92.8603 461.874 90.6319 464.102C88.4035 466.33 85.3823 467.584 82.231 467.588V467.588ZM82.231 446.707C80.452 446.707 78.713 447.234 77.2338 448.222C75.7547 449.211 74.6018 450.616 73.9211 452.259C73.2403 453.903 73.0622 455.711 73.4092 457.456C73.7563 459.201 74.6129 460.803 75.8708 462.061C77.1288 463.319 78.7314 464.176 80.4762 464.523C82.221 464.87 84.0295 464.692 85.673 464.011C87.3166 463.33 88.7213 462.177 89.7097 460.698C90.698 459.219 91.2255 457.48 91.2255 455.701C91.2198 453.317 90.2703 451.033 88.5847 449.347C86.8992 447.662 84.6147 446.712 82.231 446.707V446.707Z" fill="#333333"/>
<path d="M63.5039 487.362C61.8751 487.362 60.2829 486.879 58.9286 485.974C57.5743 485.07 56.5188 483.783 55.8954 482.279C55.2721 480.774 55.109 479.118 55.4268 477.52C55.7446 475.923 56.5289 474.455 57.6806 473.304C58.8324 472.152 60.2998 471.368 61.8973 471.05C63.4948 470.732 65.1507 470.895 66.6555 471.518C68.1603 472.142 69.4465 473.197 70.3514 474.552C71.2563 475.906 71.7393 477.498 71.7393 479.127C71.7374 481.311 70.8691 483.404 69.3251 484.948C67.7811 486.492 65.6875 487.36 63.5039 487.362V487.362ZM63.5039 473.784C62.4471 473.784 61.4141 474.097 60.5354 474.684C59.6567 475.271 58.9718 476.106 58.5674 477.082C58.163 478.059 58.0572 479.133 58.2634 480.169C58.4695 481.206 58.9784 482.158 59.7257 482.905C60.473 483.652 61.425 484.161 62.4615 484.368C63.498 484.574 64.5724 484.468 65.5487 484.063C66.5251 483.659 67.3596 482.974 67.9467 482.096C68.5338 481.217 68.8472 480.184 68.8472 479.127C68.8453 477.71 68.2817 476.353 67.2801 475.351C66.2784 474.349 64.9205 473.786 63.5039 473.784V473.784Z" fill="#333333"/>
<path d="M624.437 279.525L533.851 268.369C530.882 267.959 528.835 265.4 529.142 262.432L538.764 172.562C539.173 169.082 541.835 166.318 545.315 165.807L639.074 153.114C642.554 152.602 645.625 155.571 645.215 159.153L631.295 274.305C630.885 277.581 627.815 279.935 624.437 279.525Z" fill="#63737A"/>
<path d="M621.366 279.219L530.78 267.959C527.812 267.55 525.764 264.991 526.071 262.023L535.693 172.153C536.102 168.673 538.764 165.909 542.244 165.397L636.003 152.705C639.483 152.193 642.554 155.162 642.145 158.744L628.224 273.896C627.815 277.171 624.744 279.628 621.366 279.219Z" fill="#B8D8C7"/>
<path d="M617.988 195.695L547.055 199.278C545.827 199.38 544.803 198.254 545.008 197.128L546.748 181.263C546.85 180.342 547.567 179.625 548.488 179.523L620.035 172.46C621.264 172.358 622.39 173.381 622.185 174.712L619.831 194.16C619.831 194.876 619.012 195.593 617.988 195.695Z" fill="#6DAFA7"/>
<path d="M565.172 185.05L612.154 181.263" stroke="#22272E" stroke-width="1.8" stroke-miterlimit="10" stroke-linecap="round" stroke-linejoin="round"/>
<path d="M564.558 191.089L589.84 189.349" stroke="#22272E" stroke-width="1.8" stroke-miterlimit="10" stroke-linecap="round" stroke-linejoin="round"/>
<path d="M557.022 190.04C557.934 188.348 557.545 186.368 556.152 185.617C554.759 184.865 552.89 185.627 551.977 187.319C551.065 189.011 551.455 190.991 552.848 191.742C554.241 192.494 556.11 191.732 557.022 190.04Z" fill="#22272E"/>
<path d="M613.996 228.142L543.882 226.914C542.756 226.914 541.835 225.891 541.937 224.765L543.677 209.002C543.779 207.978 544.598 207.262 545.622 207.262L616.248 205.01C617.477 205.01 618.398 206.033 618.295 207.262L616.044 226.505C615.941 227.324 615.02 228.142 613.996 228.142Z" fill="#F4C2C9"/>
<path d="M561.999 213.915L608.469 213.301" stroke="#22272E" stroke-width="1.8" stroke-miterlimit="10" stroke-linecap="round" stroke-linejoin="round"/>
<path d="M561.283 219.852H586.36" stroke="#22272E" stroke-width="1.8" stroke-miterlimit="10" stroke-linecap="round" stroke-linejoin="round"/>
<path d="M553.965 218.29C554.802 216.56 554.365 214.619 552.991 213.955C551.617 213.291 549.825 214.155 548.989 215.886C548.153 217.617 548.589 219.558 549.963 220.222C551.338 220.886 553.129 220.021 553.965 218.29Z" fill="#22272E"/>
<path d="M610.107 260.283L540.811 254.346C539.685 254.244 538.866 253.22 538.969 252.196L540.709 236.536C540.811 235.512 541.732 234.693 542.756 234.796L612.563 237.355C613.689 237.355 614.611 238.378 614.508 239.607L612.256 258.645C612.154 259.566 611.13 260.283 610.107 260.283Z" fill="#FFE779"/>
<path d="M558.826 242.574L604.682 245.031" stroke="#22272E" stroke-width="1.8" stroke-miterlimit="10" stroke-linecap="round" stroke-linejoin="round"/>
<path d="M558.109 248.409L582.88 250.149" stroke="#22272E" stroke-width="1.8" stroke-miterlimit="10" stroke-linecap="round" stroke-linejoin="round"/>
<path d="M551.062 245.692C551.819 243.925 551.295 242.005 549.892 241.404C548.489 240.803 546.738 241.748 545.981 243.515C545.224 245.282 545.748 247.201 547.151 247.802C548.554 248.403 550.305 247.458 551.062 245.692Z" fill="#22272E"/>
<path d="M176.29 200.871L87.9752 199.28C84.3949 199.28 81.4113 196.495 81.2124 192.915L73.2561 95.6492C73.0572 92.2677 75.8419 89.682 79.0244 89.8809L167.737 99.2295C171.118 99.6273 173.704 102.213 173.903 105.595L181.66 194.904C181.859 198.285 179.473 200.871 176.29 200.871Z" fill="#F8AB5D"/>
<path d="M181.063 199.28L92.7487 197.689C89.1684 197.689 86.1848 194.904 85.9859 191.324L78.0296 94.0583C77.8307 90.6769 80.6154 88.0911 83.7979 88.29L172.51 97.6387C175.892 98.0365 178.478 100.622 178.677 104.004L186.434 193.313C186.633 196.694 184.047 199.28 181.063 199.28Z" fill="#FFE779"/>
<path d="M116.618 106.391L163.361 110.767" stroke="#63737A" stroke-width="1.8" stroke-miterlimit="10" stroke-linecap="round" stroke-linejoin="round"/>
<path d="M117.414 115.938L164.157 119.916" stroke="#63737A" stroke-width="1.8" stroke-miterlimit="10" stroke-linecap="round" stroke-linejoin="round"/>
<path d="M119.204 137.817L166.146 141" stroke="#63737A" stroke-width="1.8" stroke-miterlimit="10" stroke-linecap="round" stroke-linejoin="round"/>
<path d="M119.999 147.167L166.742 149.952" stroke="#63737A" stroke-width="1.8" stroke-miterlimit="10" stroke-linecap="round" stroke-linejoin="round"/>
<path d="M121.988 169.245L168.731 171.234" stroke="#63737A" stroke-width="1.8" stroke-miterlimit="10" stroke-linecap="round" stroke-linejoin="round"/>
<path d="M122.784 178.594L169.527 180.185" stroke="#63737A" stroke-width="1.8" stroke-miterlimit="10" stroke-linecap="round" stroke-linejoin="round"/>
<path d="M100.507 111.761L102.893 114.745L106.275 110.17" stroke="#6DAFA7" stroke-width="1.8" stroke-miterlimit="10" stroke-linecap="round" stroke-linejoin="round"/>
<path d="M103.093 143.586L105.479 146.371L109.06 141.796" stroke="#6DAFA7" stroke-width="1.8" stroke-miterlimit="10" stroke-linecap="round" stroke-linejoin="round"/>
<path d="M105.678 174.814L108.264 177.599L111.645 172.825" stroke="#6DAFA7" stroke-width="1.8" stroke-miterlimit="10" stroke-linecap="round" stroke-linejoin="round"/>
<path d="M332.29 498.06L400.629 472.635C403.22 471.664 405.001 469.073 405.001 466.32L269.296 456.604L290.186 494.173L325.489 498.87C327.756 499.193 330.185 498.87 332.29 498.06Z" fill="#63737A"/>
<path d="M160.31 473.283L148.003 377.253C147.679 374.5 149.946 372.233 152.537 372.395L316.744 384.054C319.173 384.216 321.116 386.16 321.278 388.589L330.994 494.335C331.318 497.088 328.889 499.355 326.136 499.031L164.521 477.655C162.254 477.17 160.472 475.388 160.31 473.283Z" fill="#22272E"/>
<path d="M405.001 466.481C405.001 469.396 403.219 471.825 400.628 472.797L332.29 498.222C330.671 498.869 328.727 499.193 326.946 499.031C324.355 497.088 322.736 494.011 322.736 494.011L405.001 466.481Z" fill="#22272E"/>
<path d="M238.761 441.405C243.078 438.217 243.563 431.551 239.844 426.515C236.125 421.479 229.611 419.98 225.295 423.168C220.978 426.355 220.493 433.022 224.212 438.058C227.931 443.094 234.445 444.592 238.761 441.405Z" fill="#63737A"/>
<defs>
<linearGradient id="paint0_linear_581_1727" x1="170.508" y1="152.902" x2="564.85" y2="521.817" gradientUnits="userSpaceOnUse">
<stop offset="0.380208" stop-color="#FFBB45"/>
<stop offset="0.583333" stop-color="#4AD5CB"/>
</linearGradient>
</defs>
</svg>
