<svg width="112" height="112" viewBox="0 0 112 112" fill="none" xmlns="http://www.w3.org/2000/svg">
<circle opacity="0.15" cx="56" cy="56" r="56" fill="#C7B8F8"/>
<path d="M37.2501 47.6665C40.2709 47.6665 41.9584 50.6665 41.2709 52.8957L48.6667 60.3123C49.2917 60.1248 50.2084 60.1248 50.8334 60.3123L56.1459 54.9998C55.4376 52.7707 57.1251 49.7498 60.1667 49.7498C63.1876 49.7498 64.8959 52.7498 64.1876 54.9998L73.6876 64.479C75.9167 63.7915 78.9167 65.479 78.9167 68.4998C78.9167 70.7915 77.0417 72.6665 74.7501 72.6665C71.7292 72.6665 70.0417 69.6665 70.7292 67.4373L61.2501 57.9373C60.6251 58.1248 59.7084 58.1248 59.0834 57.9373L53.7709 63.2498C54.4792 65.479 52.7917 68.4998 49.7501 68.4998C46.7292 68.4998 45.0209 65.4998 45.7292 63.2498L38.3126 55.854C36.0834 56.5415 33.0834 54.854 33.0834 51.8332C33.0834 49.5415 34.9584 47.6665 37.2501 47.6665Z" fill="url(#paint0_linear_644_1225)"/>
<path d="M49.75 49.75L47.7917 45.4375L43.5 43.5L47.7917 41.5625L49.75 37.25L51.6667 41.5625L56 43.5L51.6667 45.4375L49.75 49.75Z" fill="url(#paint1_linear_644_1225)"/>
<path d="M73.7084 53.9167L72.6667 49.75L68.5001 48.7083L72.6667 47.6667L73.7084 43.5L74.7501 47.6667L78.9167 48.7083L74.7501 49.75L73.7084 53.9167Z" fill="url(#paint2_linear_644_1225)"/>
<defs>
<linearGradient id="paint0_linear_644_1225" x1="78.9167" y1="60.1665" x2="33.0834" y2="60.1665" gradientUnits="userSpaceOnUse">
<stop stop-color="#FB6D6D"/>
<stop offset="1" stop-color="#FFBB45"/>
</linearGradient>
<linearGradient id="paint1_linear_644_1225" x1="56" y1="43.5" x2="43.5" y2="43.5" gradientUnits="userSpaceOnUse">
<stop stop-color="#FB6D6D"/>
<stop offset="1" stop-color="#FFBB45"/>
</linearGradient>
<linearGradient id="paint2_linear_644_1225" x1="78.9167" y1="48.7083" x2="68.5001" y2="48.7083" gradientUnits="userSpaceOnUse">
<stop stop-color="#FB6D6D"/>
<stop offset="1" stop-color="#FFBB45"/>
</linearGradient>
</defs>
</svg>
