<svg width="112" height="112" viewBox="0 0 112 112" fill="none" xmlns="http://www.w3.org/2000/svg">
<circle opacity="0.15" cx="56" cy="56" r="56" fill="#C7B8F8"/>
<path d="M56.3334 24.271C55.4417 24.271 54.7188 24.9939 54.7188 25.8856C54.7188 26.7773 55.4417 27.5002 56.3334 27.5002C57.2251 27.5002 57.948 26.7773 57.948 25.8856C57.948 24.9939 57.2251 24.271 56.3334 24.271Z" fill="#FB6D6D"/>
<path d="M61.5001 24.271C60.6084 24.271 59.8855 24.9939 59.8855 25.8856C59.8855 26.7773 60.6084 27.5002 61.5001 27.5002C62.3918 27.5002 63.1147 26.7773 63.1147 25.8856C63.1147 24.9939 62.3918 24.271 61.5001 24.271Z" fill="#FB6D6D"/>
<path d="M65.0522 25.8856C65.0522 24.9939 65.775 24.271 66.6667 24.271C67.5585 24.271 68.2813 24.9939 68.2813 25.8856C68.2813 26.7773 67.5585 27.5002 66.6667 27.5002C65.775 27.5002 65.0522 26.7773 65.0522 25.8856Z" fill="#FB6D6D"/>
<path fill-rule="evenodd" clip-rule="evenodd" d="M66.7969 17.9326C63.3169 17.6358 59.8187 17.6186 56.3359 17.8811L56.0863 17.8999C52.7651 18.1502 50.198 20.918 50.198 24.2487V35.2502C50.198 35.591 50.3771 35.9068 50.6696 36.0817C50.9622 36.2566 51.3251 36.2649 51.6253 36.1035L56.6768 33.3888C56.9117 33.2625 57.1743 33.1965 57.4411 33.1965H69.0356C70.4979 33.1965 71.7511 32.151 72.0132 30.7124C72.5444 27.7968 72.5864 24.8131 72.1374 21.8837L72.005 21.0205C71.7641 19.4488 70.4784 18.2465 68.8942 18.1114L66.7969 17.9326ZM56.4815 19.8131C59.861 19.5584 63.2554 19.5751 66.6322 19.863L68.7295 20.0419C69.4223 20.101 69.9846 20.6267 70.0899 21.314L70.2222 22.1773C70.6387 24.894 70.5997 27.6611 70.1071 30.3651C70.0127 30.8828 69.5618 31.259 69.0356 31.259H57.4411C56.8542 31.259 56.2765 31.4044 55.7596 31.6822L52.1355 33.6298V24.2487C52.1355 21.9316 53.9214 20.006 56.2319 19.8319L56.4815 19.8131Z" fill="#FB6D6D"/>
<path d="M50.7778 52.5094C51.0173 52.2711 51.043 51.8941 50.845 51.6205C50.0714 50.5517 49.3751 49.4235 48.7641 48.2436L50.28 47.1256C52.0896 45.791 52.4189 43.2258 51.0048 41.4814L46.9403 36.4675C45.618 34.8364 43.2445 34.5195 41.537 35.7463L37.5218 38.6309C34.2431 40.9864 33.0885 45.316 34.762 48.9794L36.0176 51.7278L36.0202 51.7336C37.5003 54.9417 39.3686 57.9285 41.5671 60.6362C41.8177 60.9449 42.2812 60.965 42.5632 60.6844L44.014 59.2405C44.2615 58.9943 44.2799 58.6017 44.0616 58.3295C42.1039 55.8882 40.4362 53.2039 39.1082 50.3261L39.1068 50.3232L37.8539 47.5805C36.8498 45.3825 37.5426 42.7847 39.5098 41.3714L43.525 38.4868C43.7689 38.3115 44.108 38.3568 44.2969 38.5898L48.3613 43.6036C48.5634 43.8529 48.5163 44.2193 48.2578 44.41L45.6123 46.3611C44.9698 46.8349 44.7465 47.6906 45.0763 48.4156C45.9615 50.3624 47.0475 52.1974 48.3083 53.895C48.551 54.2218 49.0279 54.2508 49.3167 53.9634L50.7778 52.5094Z" fill="url(#paint0_linear_554_1149)"/>
<path fill-rule="evenodd" clip-rule="evenodd" d="M71.1631 37.0025L35.01 72.9813C34.9897 73.0015 34.969 73.0211 34.9479 73.0401L34.8726 73.115C34.2095 73.775 34.2095 74.845 34.8726 75.505C35.5358 76.165 36.6111 76.165 37.2743 75.505L46.8012 66.024C50.1099 68.8735 53.8704 71.2206 57.9688 72.9519L59.6845 73.7127C63.355 75.3402 67.6693 74.1843 70.0227 70.9429L72.9082 66.9686C74.1419 65.2693 73.8239 62.9063 72.1844 61.59L67.1469 57.5457C65.394 56.1383 62.8164 56.4661 61.4754 58.2669L60.3519 59.7756C58.7828 58.9708 57.3045 58.0174 55.9355 56.9338L73.5026 39.4513C74.1658 38.7913 74.1658 37.7213 73.5026 37.0613C72.8597 36.4215 71.8297 36.4019 71.1631 37.0025ZM60.179 63.4456C57.7736 62.3623 55.5379 60.977 53.5201 59.3375L49.2096 63.6272C52.2113 66.1797 55.6108 68.2855 59.309 69.8462L59.3373 69.8581L61.0668 70.6253C63.2691 71.6017 65.8577 70.9082 67.2697 68.9634L70.1552 64.989C70.3314 64.7463 70.286 64.4087 70.0518 64.2207L65.0144 60.1764C64.764 59.9753 64.3957 60.0221 64.2042 60.2794L62.2436 62.9122C61.7675 63.5516 60.9076 63.7737 60.179 63.4456Z" fill="url(#paint1_linear_554_1149)"/>
<defs>
<linearGradient id="paint0_linear_554_1149" x1="34" y1="55.5" x2="74" y2="55.5" gradientUnits="userSpaceOnUse">
<stop stop-color="#FB6D6D"/>
<stop offset="1" stop-color="#FFBB45"/>
</linearGradient>
<linearGradient id="paint1_linear_554_1149" x1="34" y1="55.5" x2="74" y2="55.5" gradientUnits="userSpaceOnUse">
<stop stop-color="#FB6D6D"/>
<stop offset="1" stop-color="#FFBB45"/>
</linearGradient>
</defs>
</svg>
