<svg width="50" height="50" viewBox="0 0 50 50" fill="none" xmlns="http://www.w3.org/2000/svg">
<path d="M6.25008 16.6665C9.27091 16.6665 10.9584 19.6665 10.2709 21.8957L17.6667 29.3123C18.2917 29.1248 19.2084 29.1248 19.8334 29.3123L25.1459 23.9998C24.4376 21.7707 26.1251 18.7498 29.1667 18.7498C32.1876 18.7498 33.8959 21.7498 33.1876 23.9998L42.6876 33.479C44.9167 32.7915 47.9167 34.479 47.9167 37.4998C47.9167 39.7915 46.0417 41.6665 43.7501 41.6665C40.7292 41.6665 39.0417 38.6665 39.7292 36.4373L30.2501 26.9373C29.6251 27.1248 28.7084 27.1248 28.0834 26.9373L22.7709 32.2498C23.4792 34.479 21.7917 37.4998 18.7501 37.4998C15.7292 37.4998 14.0209 34.4998 14.7292 32.2498L7.31258 24.854C5.08341 25.5415 2.08341 23.854 2.08341 20.8332C2.08341 18.5415 3.95841 16.6665 6.25008 16.6665Z" fill="url(#paint0_linear_554_1164)"/>
<path d="M18.75 18.75L16.7917 14.4375L12.5 12.5L16.7917 10.5625L18.75 6.25L20.6667 10.5625L25 12.5L20.6667 14.4375L18.75 18.75Z" fill="url(#paint1_linear_554_1164)"/>
<path d="M42.7084 22.9167L41.6667 18.75L37.5001 17.7083L41.6667 16.6667L42.7084 12.5L43.7501 16.6667L47.9167 17.7083L43.7501 18.75L42.7084 22.9167Z" fill="url(#paint2_linear_554_1164)"/>
<defs>
<linearGradient id="paint0_linear_554_1164" x1="47.9167" y1="29.1665" x2="2.08341" y2="29.1665" gradientUnits="userSpaceOnUse">
<stop stop-color="#FB6D6D"/>
<stop offset="1" stop-color="#FFBB45"/>
</linearGradient>
<linearGradient id="paint1_linear_554_1164" x1="25" y1="12.5" x2="12.5" y2="12.5" gradientUnits="userSpaceOnUse">
<stop stop-color="#FB6D6D"/>
<stop offset="1" stop-color="#FFBB45"/>
</linearGradient>
<linearGradient id="paint2_linear_554_1164" x1="47.9167" y1="17.7083" x2="37.5001" y2="17.7083" gradientUnits="userSpaceOnUse">
<stop stop-color="#FB6D6D"/>
<stop offset="1" stop-color="#FFBB45"/>
</linearGradient>
</defs>
</svg>
