<svg width="112" height="112" viewBox="0 0 112 112" fill="none" xmlns="http://www.w3.org/2000/svg">
<circle opacity="0.15" cx="56" cy="56" r="56" fill="#C7B8F8"/>
<path d="M39.2243 61.7794C38.6054 60.5063 38.1563 59.3186 37.8164 58.2402H55.2138V76.8025C45.8447 72.2963 41.3501 66.1518 39.2243 61.7794ZM39.2243 61.7794L38.7746 61.998L39.2243 61.7794ZM46.3 35.9543L46.2998 35.9545L46.2924 35.9598C45.4725 36.5557 44.7242 37.0996 44.0784 37.4873C42.8851 38.2031 41.2556 38.5825 39.8783 38.7781C39.1971 38.8749 38.5921 38.9249 38.1552 38.9506C37.937 38.9634 37.7612 38.9702 37.6396 38.9738C37.5211 38.9772 37.455 38.9776 37.4514 38.9776L37.4512 38.9776C35.2723 38.9776 33.5 40.7499 33.5 42.9288L33.5 53.1498L33.5 53.154C33.5065 53.9366 33.9141 70.5211 54.3207 80.0308L54.3208 80.0308C54.9924 80.3436 55.7114 80.5 56.4328 80.5C57.1545 80.5 57.875 80.3424 58.5455 80.0282C78.9515 70.5196 79.3591 53.9356 79.3656 53.1427V53.1386V42.9288C79.3656 40.7502 77.5947 38.9776 75.4167 38.9776L75.4165 38.9776C75.4135 38.9776 75.3471 38.9772 75.2278 38.9738C75.1059 38.9702 74.93 38.9634 74.7116 38.9506C74.2743 38.9249 73.6689 38.8749 72.9873 38.7781C71.6094 38.5825 69.9792 38.2032 68.7854 37.4875C68.1385 37.0985 67.3861 36.5522 66.5636 35.9545L66.5635 35.9544L66.512 35.917C63.8734 34.0004 60.4312 31.5 56.4328 31.5C52.4348 31.5 48.9918 33.9999 46.3521 35.9165L46.3 35.9543ZM48.24 38.6263L48.2401 38.6262C50.3302 37.1089 52.7352 35.3953 55.2138 34.9389V54.9394H37.0157C36.8488 53.9261 36.8082 53.2587 36.8018 53.1528C36.8011 53.1411 36.8008 53.1362 36.8008 53.1386V42.9288C36.8008 42.5702 37.0931 42.2784 37.4512 42.2784C37.566 42.2784 38.8317 42.2725 40.468 42.0287C42.0949 41.7863 44.1387 41.3017 45.7792 40.3175C46.5299 39.8673 47.3273 39.2886 48.1483 38.6928C48.1789 38.6707 48.2094 38.6485 48.24 38.6263ZM67.086 40.3173L67.0864 40.3175C68.727 41.3017 70.7707 41.7863 72.3976 42.0287C74.0339 42.2725 75.2996 42.2784 75.4144 42.2784C75.7725 42.2784 76.0648 42.5702 76.0648 42.9288V53.1251C76.0648 53.1237 76.0646 53.127 76.0642 53.1348C76.0593 53.2239 76.0223 53.9019 75.852 54.9394H58.5146V35.1448C60.6937 35.7948 62.7861 37.2909 64.6254 38.6261C64.6254 38.6261 64.6255 38.6262 64.6255 38.6262L64.6502 38.6442C65.4946 39.2577 66.3153 39.8539 67.086 40.3173ZM58.5146 76.3645V58.2402H75.0492C74.7095 59.3188 74.2605 60.5062 73.6414 61.7794L73.6413 61.7794C71.5829 66.0132 67.2909 71.905 58.5146 76.3645Z" fill="url(#paint0_linear_554_1154)" stroke="url(#paint1_linear_554_1154)"/>
<defs>
<linearGradient id="paint0_linear_554_1154" x1="34" y1="56" x2="78.8656" y2="56" gradientUnits="userSpaceOnUse">
<stop stop-color="#FB6D6D"/>
<stop offset="1" stop-color="#FFBB45"/>
</linearGradient>
<linearGradient id="paint1_linear_554_1154" x1="34" y1="56" x2="78.8656" y2="56" gradientUnits="userSpaceOnUse">
<stop stop-color="#FB6D6D"/>
<stop offset="1" stop-color="#FFBB45"/>
</linearGradient>
</defs>
</svg>
