<svg width="112" height="112" viewBox="0 0 112 112" fill="none" xmlns="http://www.w3.org/2000/svg">
<circle opacity="0.15" cx="56" cy="56" r="56" fill="#C7B8F8"/>
<g clip-path="url(#clip0_554_1158)">
<path d="M51.8334 74.7497H39.3334C38.1834 74.7497 37.25 73.8184 37.25 72.6663V60.1663C37.25 59.6122 37.4688 59.083 37.8604 58.6934L63.7209 32.833C66.0855 30.4663 70.2042 30.4705 72.5688 32.833L79.1667 39.4309C81.6063 41.8684 81.6063 45.8393 79.1667 48.2788L53.3063 74.1393C52.9167 74.5309 52.3855 74.7497 51.8334 74.7497V74.7497ZM41.4167 70.583H50.9709L76.2209 45.333C77.0355 44.5184 77.0355 43.1913 76.2209 42.3768L69.623 35.7788C68.8334 34.9893 67.4563 34.9851 66.6667 35.7788L41.4167 61.0288V70.583V70.583ZM51.8313 74.7497C50.8584 74.7497 49.9896 74.0663 49.7917 73.0747C48.6917 67.5726 44.4271 63.308 38.925 62.208C37.7959 61.983 37.0646 60.8851 37.2917 59.7559C37.5188 58.6268 38.6104 57.8893 39.7438 58.1226C46.9 59.5538 52.4459 65.1018 53.8771 72.2559C54.1021 73.3851 53.3709 74.4809 52.2438 74.708L51.8313 74.7497ZM33.0834 80.9997C32.55 80.9997 32.0167 80.7955 31.6104 80.3893C30.7959 79.5747 30.7959 78.258 31.6104 77.4434L37.8604 71.1934C38.675 70.3788 39.9917 70.3788 40.8063 71.1934C41.6209 72.008 41.6209 73.3247 40.8063 74.1393L34.5563 80.3893C34.15 80.7955 33.6167 80.9997 33.0834 80.9997V80.9997ZM78.9167 80.9997C77.7709 80.9997 76.8334 80.0622 76.8334 78.9163C76.8334 77.7705 77.7709 76.833 78.9167 76.833C80.0625 76.833 81 77.7705 81 78.9163C81 80.0622 80.0625 80.9997 78.9167 80.9997ZM72.6667 80.9997H33.7709C32.625 80.9997 31.6875 80.0622 31.6875 78.9163C31.6875 77.7705 32.625 76.833 33.7709 76.833H72.6667C73.8125 76.833 74.75 77.7705 74.75 78.9163C74.75 80.0622 73.8125 80.9997 72.6667 80.9997Z" fill="url(#paint0_linear_554_1158)"/>
</g>
<defs>
<linearGradient id="paint0_linear_554_1158" x1="30.9995" y1="56.0296" x2="81" y2="56.0296" gradientUnits="userSpaceOnUse">
<stop stop-color="#FB6D6D"/>
<stop offset="1" stop-color="#FFBB45"/>
</linearGradient>
<clipPath id="clip0_554_1158">
<rect width="50" height="50" fill="white" transform="translate(31 31)"/>
</clipPath>
</defs>
</svg>
