<svg width="283" height="72" viewBox="0 0 283 72" fill="none" xmlns="http://www.w3.org/2000/svg">
<path d="M11.3266 22.2233C11.3266 22.2233 9.81377 23.7304 11.3173 22.2326C12.8208 20.7349 16.7617 16.8091 16.7617 16.8091L31.7968 31.902L33.2414 33.3522C34.2447 34.3594 35.3943 34.9531 36.5592 35.0766L45.3369 36.0437C46.5247 36.1714 47.6517 36.7611 48.6683 37.7816L60.6401 49.7994C59.1366 51.2972 55.205 55.2136 55.205 55.2136L47.4333 47.412L42.7383 42.6989L38.7387 38.6839C37.7356 37.677 36.5953 37.0739 35.4075 36.9462L26.6203 35.9885C25.4326 35.8607 24.3057 35.2711 23.3025 34.264L11.3173 22.2326L11.3266 22.2233ZM69.346 35.8832L71.9678 38.5151C70.4643 40.0129 66.5327 43.9294 66.5327 43.9294L59.4165 36.7858C58.4132 35.7786 57.2638 35.1851 56.0853 35.048L47.3074 34.0808C46.1198 33.9532 44.9795 33.3501 43.9762 32.343C36.86 25.1994 29.7572 18.0693 22.6409 10.9256C21.1374 12.4234 22.8167 10.732 22.6409 10.9256C24.1445 9.42788 28.076 5.5114 28.076 5.5114L28.0894 5.52483L53.9192 31.454C54.9223 32.461 56.0719 33.0548 57.237 33.1784L66.0148 34.1455C67.1933 34.2825 68.3429 34.8763 69.346 35.8832ZM2.63933 36.1209L0.0175649 33.489C1.52107 31.9913 5.45265 28.0748 5.45265 28.0748L12.5822 35.2318C13.5855 36.2389 14.7351 36.8327 15.9001 36.9563L24.678 37.9234C25.8655 38.0511 26.9926 38.6406 28.0092 39.6611C35.1254 46.8047 42.2282 53.9349 49.3444 61.0785L43.896 66.4793L18.0663 40.5502C17.0631 39.5431 15.9227 38.9402 14.7484 38.8259L5.97052 37.8588C4.79216 37.7217 3.64257 37.128 2.63933 36.1209Z" fill="url(#paint0_linear_617_1258)"/>
<path d="M92.0261 11.8428V50.4899H100.86V38.3437H106.657C110.466 38.3437 113.668 37.0738 116.263 34.479C118.858 31.8841 120.183 28.7923 120.183 25.0932C120.183 21.3942 118.858 18.3024 116.263 15.7075C113.668 13.1127 110.466 11.8428 106.657 11.8428H92.0261ZM100.86 30.0622V20.1243H106.657C109.362 20.1243 111.35 22.2775 111.35 25.0932C111.35 27.909 109.362 30.0622 106.657 30.0622H100.86Z" fill="#020202"/>
<path d="M142.685 25.4797C140.753 23.2161 137.992 22.1119 134.459 22.1119C130.815 22.1119 127.723 23.5474 125.128 26.3631C122.534 29.1788 121.264 32.6018 121.264 36.6874C121.264 40.7729 122.534 44.2512 125.128 47.0669C127.723 49.8826 130.815 51.2628 134.459 51.2628C137.992 51.2628 140.753 50.1586 142.685 47.895V50.4899H150.967V22.8848H142.685V25.4797ZM131.367 41.6011C130.153 40.3864 129.545 38.7301 129.545 36.6874C129.545 34.6446 130.153 32.9883 131.367 31.7737C132.582 30.559 134.183 29.9517 136.115 29.9517C138.048 29.9517 139.649 30.559 140.863 31.7737C142.078 32.9883 142.685 34.6446 142.685 36.6874C142.685 38.7301 142.078 40.3864 140.863 41.6011C139.649 42.8157 138.048 43.423 136.115 43.423C134.183 43.423 132.582 42.8157 131.367 41.6011Z" fill="#020202"/>
<path d="M169.244 39.7791L163.116 22.8848H154.006L164.993 49.2201C163.723 52.5879 161.901 53.8025 158.091 53.8025V61.5319C165.876 61.9184 170.735 58.3297 173.826 49.6617L183.267 22.8848H174.434L169.244 39.7791Z" fill="#020202"/>
<path d="M205.282 25.4797C203.35 23.2161 200.589 22.1119 197.056 22.1119C193.412 22.1119 190.32 23.5474 187.725 26.3631C185.13 29.1788 183.86 32.6018 183.86 36.6874C183.86 40.7729 185.13 44.2512 187.725 47.0669C190.32 49.8826 193.412 51.2628 197.056 51.2628C200.589 51.2628 203.35 50.1586 205.282 47.895V50.4899H213.563V11.8428H205.282V25.4797ZM193.964 41.6011C192.749 40.3864 192.142 38.7301 192.142 36.6874C192.142 34.6446 192.749 32.9883 193.964 31.7737C195.178 30.559 196.78 29.9517 198.712 29.9517C200.644 29.9517 202.245 30.559 203.46 31.7737C204.675 32.9883 205.282 34.6446 205.282 36.6874C205.282 38.7301 204.675 40.3864 203.46 41.6011C202.245 42.8157 200.644 43.423 198.712 43.423C196.78 43.423 195.178 42.8157 193.964 41.6011Z" fill="#020202"/>
<path d="M243.269 47.0669C246.085 44.2512 247.52 40.7729 247.52 36.6874C247.52 32.6018 246.085 29.1788 243.269 26.3631C240.453 23.5474 236.975 22.1119 232.89 22.1119C228.804 22.1119 225.326 23.5474 222.51 26.3631C219.694 29.1788 218.259 32.6018 218.259 36.6874C218.259 40.7729 219.694 44.2512 222.51 47.0669C225.326 49.8826 228.804 51.2628 232.89 51.2628C236.975 51.2628 240.453 49.8826 243.269 47.0669ZM228.362 41.3802C227.148 40.1656 226.54 38.6197 226.54 36.6874C226.54 34.755 227.148 33.2091 228.362 31.9945C229.577 30.7799 231.068 30.1726 232.89 30.1726C234.711 30.1726 236.202 30.7799 237.417 31.9945C238.631 33.2091 239.239 34.755 239.239 36.6874C239.239 38.6197 238.631 40.1656 237.417 41.3802C236.202 42.5949 234.711 43.2022 232.89 43.2022C231.068 43.2022 229.577 42.5949 228.362 41.3802Z" fill="#020202"/>
<path d="M282.037 10.5178C273.148 10.0209 268.621 14.3825 268.621 22.3327V22.8848H261.444C261.444 20.0139 263.155 18.7441 266.578 19.0201V11.0699C257.69 10.573 253.162 14.9346 253.162 22.8848H249.463V30.8351H253.162V50.4899H261.444V30.8351H268.621V50.4899H276.903V30.8351H282.037V22.8848H276.903V22.3327C276.903 19.4618 278.614 18.192 282.037 18.468V10.5178Z" fill="#020202"/>
<defs>
<linearGradient id="paint0_linear_617_1258" x1="28.028" y1="5.23398" x2="59.878" y2="57.0026" gradientUnits="userSpaceOnUse">
<stop offset="0.296875" stop-color="#00C5FF"/>
<stop offset="0.71875" stop-color="#21D489"/>
</linearGradient>
</defs>
</svg>
