<svg width="37" height="32" viewBox="0 0 37 32" fill="none" xmlns="http://www.w3.org/2000/svg">
<path d="M5.78297 9.34658C5.78297 9.34658 5.01056 10.116 5.7782 9.35133C6.54585 8.58663 8.55796 6.58223 8.55796 6.58223L16.2344 14.2882L16.972 15.0286C17.4842 15.5429 18.0712 15.846 18.666 15.9091L23.1476 16.4028C23.7541 16.4681 24.3295 16.7691 24.8485 17.2902L30.961 23.4261C30.1933 24.1908 28.186 26.1904 28.186 26.1904L24.218 22.2072L21.8209 19.8008L19.7788 17.7509C19.2666 17.2367 18.6844 16.9288 18.0779 16.8636L13.5915 16.3747C12.9851 16.3094 12.4097 16.0084 11.8975 15.4942L5.7782 9.35133L5.78297 9.34658ZM35.4059 16.3209L36.7446 17.6647C35.9769 18.4294 33.9696 20.429 33.9696 20.429L30.3363 16.7817C29.824 16.2675 29.2371 15.9645 28.6354 15.8945L24.1537 15.4006C23.5473 15.3355 22.9651 15.0276 22.4529 14.5134C18.8196 10.8661 15.1931 7.22563 11.5597 3.5783C10.7921 4.34301 11.6495 3.47943 11.5597 3.5783C12.3274 2.8136 14.3347 0.813958 14.3347 0.813958L14.3416 0.820816L27.5295 14.0595C28.0416 14.5736 28.6286 14.8768 29.2235 14.9399L33.7051 15.4337C34.3068 15.5036 34.8938 15.8068 35.4059 16.3209ZM1.3475 16.4423L0.00890312 15.0985C0.776549 14.3338 2.7839 12.3342 2.7839 12.3342L6.42405 15.9883C6.93628 16.5025 7.52323 16.8057 8.11803 16.8688L12.5998 17.3626C13.2061 17.4277 13.7815 17.7287 14.3006 18.2498C17.9339 21.8971 21.5604 25.5376 25.1937 29.1849L22.4119 31.9424L9.22405 18.7037C8.71184 18.1896 8.12959 17.8817 7.53001 17.8233L3.04831 17.3296C2.44667 17.2596 1.85972 16.9564 1.3475 16.4423Z" fill="url(#paint0_linear_617_1250)"/>
<defs>
<linearGradient id="paint0_linear_617_1250" x1="14.3102" y1="0.672315" x2="30.5718" y2="27.1038" gradientUnits="userSpaceOnUse">
<stop offset="0.296875" stop-color="#00C5FF"/>
<stop offset="0.71875" stop-color="#21D489"/>
</linearGradient>
</defs>
</svg>
