<svg width="208" height="53" viewBox="0 0 208 53" fill="none" xmlns="http://www.w3.org/2000/svg">
<path d="M8.33771 16.3588C8.33771 16.3588 7.22408 17.4682 8.33083 16.3657C9.43758 15.2632 12.3385 12.3734 12.3385 12.3734L23.406 23.4834L24.4694 24.5509C25.2079 25.2923 26.0542 25.7294 26.9117 25.8203L33.3731 26.5321C34.2474 26.6262 35.077 27.0602 35.8254 27.8115L44.6379 36.6579C43.5311 37.7604 40.6371 40.6434 40.6371 40.6434L34.9163 34.9005L31.4602 31.4312L28.5161 28.4757C27.7777 27.7344 26.9383 27.2905 26.0639 27.1965L19.5956 26.4915C18.7213 26.3974 17.8918 25.9634 17.1533 25.2221L8.33083 16.3657L8.33771 16.3588ZM51.0464 26.4141L52.9764 28.3514C51.8696 29.4539 48.9755 32.3369 48.9755 32.3369L43.7372 27.0784C42.9987 26.3371 42.1526 25.9001 41.2851 25.7992L34.8236 25.0872C33.9493 24.9933 33.11 24.5494 32.3714 23.808C27.1331 18.5496 21.9046 13.301 16.6663 8.04248C15.5596 9.14499 16.7957 7.89993 16.6663 8.04248C17.7731 6.93997 20.6671 4.057 20.6671 4.057L20.677 4.06689L39.6906 23.1537C40.429 23.8949 41.2752 24.332 42.1329 24.423L48.5943 25.1349C49.4618 25.2358 50.308 25.6728 51.0464 26.4141ZM1.9429 26.589L0.0129872 24.6516C1.11973 23.5491 4.01381 20.6662 4.01381 20.6662L9.26199 25.9345C10.0005 26.6759 10.8467 27.1129 11.7043 27.2039L18.1658 27.9159C19.04 28.0098 19.8696 28.4438 20.6179 29.195C25.8563 34.4535 31.0847 39.7021 36.323 44.9606L32.3124 48.9362L13.2989 29.8495C12.5604 29.1081 11.7209 28.6643 10.8565 28.5802L4.39502 27.8683C3.52762 27.7674 2.68139 27.3303 1.9429 26.589Z" fill="url(#paint0_linear_617_1277)"/>
<path d="M67.7415 8.71743V37.166H74.244V28.225H78.5113C81.3155 28.225 83.6726 27.2903 85.5828 25.3801C87.4929 23.47 88.4683 21.1941 88.4683 18.4712C88.4683 15.7483 87.4929 13.4724 85.5828 11.5623C83.6726 9.65217 81.3155 8.71743 78.5113 8.71743H67.7415ZM74.244 22.1289V14.8135H78.5113C80.5027 14.8135 81.9657 16.3985 81.9657 18.4712C81.9657 20.5439 80.5027 22.1289 78.5113 22.1289H74.244Z" fill="white"/>
<path d="M105.032 18.7557C103.61 17.0894 101.578 16.2766 98.9767 16.2766C96.2945 16.2766 94.0186 17.3333 92.1085 19.406C90.1983 21.4786 89.2636 23.9984 89.2636 27.0058C89.2636 30.0132 90.1983 32.5736 92.1085 34.6462C94.0186 36.7189 96.2945 37.7349 98.9767 37.7349C101.578 37.7349 103.61 36.9221 105.032 35.2559V37.166H111.128V16.8456H105.032V18.7557ZM96.7009 30.6228C95.8068 29.7287 95.3597 28.5095 95.3597 27.0058C95.3597 25.5021 95.8068 24.2828 96.7009 23.3888C97.595 22.4947 98.7735 22.0476 100.196 22.0476C101.618 22.0476 102.797 22.4947 103.691 23.3888C104.585 24.2828 105.032 25.5021 105.032 27.0058C105.032 28.5095 104.585 29.7287 103.691 30.6228C102.797 31.5169 101.618 31.964 100.196 31.964C98.7735 31.964 97.595 31.5169 96.7009 30.6228Z" fill="white"/>
<path d="M124.582 29.2817L120.071 16.8456H113.365L121.453 36.2312C120.518 38.7103 119.177 39.6044 116.373 39.6044V45.2941C122.103 45.5786 125.68 42.937 127.956 36.5564L134.905 16.8456H128.403L124.582 29.2817Z" fill="white"/>
<path d="M151.11 18.7557C149.688 17.0894 147.656 16.2766 145.055 16.2766C142.373 16.2766 140.097 17.3333 138.187 19.406C136.276 21.4786 135.342 23.9984 135.342 27.0058C135.342 30.0132 136.276 32.5736 138.187 34.6462C140.097 36.7189 142.373 37.7349 145.055 37.7349C147.656 37.7349 149.688 36.9221 151.11 35.2559V37.166H157.206V8.71743H151.11V18.7557ZM142.779 30.6228C141.885 29.7287 141.438 28.5095 141.438 27.0058C141.438 25.5021 141.885 24.2828 142.779 23.3888C143.673 22.4947 144.852 22.0476 146.274 22.0476C147.696 22.0476 148.875 22.4947 149.769 23.3888C150.663 24.2828 151.11 25.5021 151.11 27.0058C151.11 28.5095 150.663 29.7287 149.769 30.6228C148.875 31.5169 147.696 31.964 146.274 31.964C144.852 31.964 143.673 31.5169 142.779 30.6228Z" fill="white"/>
<path d="M179.073 34.6462C181.146 32.5736 182.202 30.0132 182.202 27.0058C182.202 23.9984 181.146 21.4786 179.073 19.406C177 17.3333 174.44 16.2766 171.433 16.2766C168.425 16.2766 165.865 17.3333 163.792 19.406C161.719 21.4786 160.663 23.9984 160.663 27.0058C160.663 30.0132 161.719 32.5736 163.792 34.6462C165.865 36.7189 168.425 37.7349 171.433 37.7349C174.44 37.7349 177 36.7189 179.073 34.6462ZM168.1 30.4602C167.206 29.5661 166.759 28.4282 166.759 27.0058C166.759 25.5834 167.206 24.4454 168.1 23.5513C168.994 22.6572 170.091 22.2102 171.433 22.2102C172.774 22.2102 173.871 22.6572 174.765 23.5513C175.659 24.4454 176.106 25.5834 176.106 27.0058C176.106 28.4282 175.659 29.5661 174.765 30.4602C173.871 31.3543 172.774 31.8014 171.433 31.8014C170.091 31.8014 168.994 31.3543 168.1 30.4602Z" fill="white"/>
<path d="M207.611 7.74205C201.068 7.37628 197.735 10.5869 197.735 16.4392V16.8456H192.452C192.452 14.7323 193.712 13.7975 196.231 14.0007V8.14846C189.688 7.78269 186.356 10.9933 186.356 16.8456H183.633V22.6979H186.356V37.166H192.452V22.6979H197.735V37.166H203.831V22.6979H207.611V16.8456H203.831V16.4392C203.831 14.3259 205.091 13.3911 207.611 13.5943V7.74205Z" fill="white"/>
<defs>
<linearGradient id="paint0_linear_617_1277" x1="20.6318" y1="3.85279" x2="44.0769" y2="41.9602" gradientUnits="userSpaceOnUse">
<stop offset="0.296875" stop-color="#00C5FF"/>
<stop offset="0.71875" stop-color="#21D489"/>
</linearGradient>
</defs>
</svg>
