<svg width="571" height="572" viewBox="0 0 571 572" fill="none" xmlns="http://www.w3.org/2000/svg">
<g filter="url(#filter0_d_644_1227)">
<path d="M239.362 496.942L399.561 487.098C411.554 486.382 420.146 475.463 417.998 463.649L356.961 121.593C354.813 109.779 345.147 101.008 333.334 99.7553L172.418 84.1829C159.352 82.9299 148.612 94.3855 150.76 107.452L211.618 474.747C213.766 488.172 225.759 497.837 239.362 496.942Z" fill="#F8AB5D"/>
<path d="M248.133 495.869L408.332 486.024C420.324 485.308 428.916 474.39 426.768 462.576L365.731 120.519C363.583 108.706 353.918 99.935 342.104 98.6821L181.189 83.1096C168.122 81.8567 157.383 93.3123 159.531 106.379L220.389 473.674C222.536 487.098 234.529 496.585 248.133 495.869Z" fill="#FFE779"/>
<path d="M86.6803 302.556L333.334 306.852C339.777 307.031 344.61 301.124 343.536 294.859L325.458 191.938C324.384 186.031 319.551 181.735 313.644 181.198L70.2129 164.91C61.9792 164.373 55.1775 171.711 56.6094 179.945L74.5088 291.816C75.0457 297.902 80.4155 302.556 86.6803 302.556Z" fill="#F8AB5D"/>
<path d="M113.887 468.483L360.541 457.744C366.626 457.386 371.28 451.837 370.206 445.751L351.591 340.324C350.517 334.238 345.147 329.584 338.882 329.584L95.093 327.615C87.0383 327.615 80.9525 334.775 82.2055 342.651L100.463 457.744C101.537 464.187 107.444 468.841 113.887 468.483Z" fill="#F8AB5D"/>
<path d="M369.49 141.103L162.573 124.636" stroke="#F8AB5D" stroke-width="1.8" stroke-miterlimit="10" stroke-linecap="round" stroke-linejoin="round"/>
<path d="M264.243 116.223L281.963 117.834C283.574 118.013 284.469 116.76 284.29 114.97C283.932 113.18 282.5 111.748 280.889 111.569L263.169 109.958C261.558 109.779 260.484 111.032 260.842 112.822C261.2 114.612 262.811 116.044 264.243 116.223Z" fill="#22272E"/>
<path d="M252.429 115.149C254.04 115.328 255.114 114.075 254.756 112.285C254.398 110.495 252.966 109.063 251.355 108.884C249.744 108.705 248.67 109.958 249.028 111.748C249.207 113.538 250.818 115.149 252.429 115.149Z" fill="#22272E"/>
<path d="M53.0296 127.321L121.226 132.512C123.732 132.691 125.701 130.543 125.164 128.216L118.362 86.8683C118.004 84.3624 115.856 82.3934 113.351 82.2145L45.8699 75.0547C43.006 74.6967 40.679 77.2026 41.037 80.0665L47.6598 122.667C48.3758 125.173 50.5237 127.142 53.0296 127.321Z" stroke="#6DAFA7" stroke-width="1.8" stroke-miterlimit="10" stroke-linecap="round" stroke-linejoin="round"/>
<path d="M116.572 83.2879L86.8593 102.44C85.2483 103.514 83.1004 103.514 81.4894 102.44L42.8269 75.9492" stroke="#6DAFA7" stroke-width="1.8" stroke-miterlimit="10" stroke-linecap="round" stroke-linejoin="round"/>
<path d="M415.786 204.646L359.761 207.689L351.527 213.059C349.558 214.312 347.231 212.701 347.589 210.374L356.36 161.688C357.076 157.75 360.298 154.886 364.235 154.528L422.587 150.053C426.346 149.695 429.568 153.096 428.852 156.855L421.334 199.456C420.797 202.498 418.471 204.467 415.786 204.646Z" fill="#6DAFA7"/>
<path d="M367.278 168.847L414.533 165.446" stroke="#FFE779" stroke-width="1.8" stroke-miterlimit="10" stroke-linecap="round" stroke-linejoin="round"/>
<path d="M365.13 180.84L412.384 177.618" stroke="#FFE779" stroke-width="1.8" stroke-miterlimit="10" stroke-linecap="round" stroke-linejoin="round"/>
<path d="M362.983 192.654L387.684 191.222" stroke="#FFE779" stroke-width="1.8" stroke-miterlimit="10" stroke-linecap="round" stroke-linejoin="round"/>
<path d="M99.9257 291.637L346.579 295.933C353.023 296.112 357.856 290.205 356.782 283.94L338.703 181.019C337.629 175.112 332.796 170.816 326.89 170.279L83.4582 153.991C75.2245 153.454 68.4227 160.792 69.8546 169.026L87.754 280.897C88.47 286.983 93.6609 291.637 99.9257 291.637Z" fill="#EAF9F3"/>
<path d="M282.678 213.774C283.931 221.113 290.375 227.378 296.998 227.736C303.621 228.094 307.916 222.366 306.664 215.027C305.411 207.688 298.967 201.424 292.344 201.066C285.721 200.708 281.425 206.436 282.678 213.774Z" fill="#FFE779"/>
<path d="M287.332 260.85L316.687 261.745C320.625 261.924 323.847 258.344 323.131 254.406L322.594 251.184C320.267 237.938 308.812 226.662 296.819 226.304C284.826 225.767 276.772 236.327 279.099 249.752L279.815 254.406C280.531 257.986 283.573 260.671 287.332 260.85Z" fill="#FFE779"/>
<path d="M126.417 215.027L243.3 220.397C245.806 220.576 247.775 218.249 247.238 215.922L245.985 208.046C245.448 205.361 243.3 203.392 240.615 203.213L123.553 197.128C121.047 196.949 119.078 199.097 119.615 201.602L121.047 210.194C121.405 212.879 123.732 215.027 126.417 215.027Z" fill="#6DAFA7"/>
<path d="M244.553 241.519L242.763 247.067L237.214 247.962L242.047 252.795L242.405 259.06L247.059 256.554L252.786 259.418L250.996 253.153L254.218 248.678L248.311 247.246L244.553 241.519Z" fill="#FFE779"/>
<path d="M217.704 240.623L215.735 246.172L210.186 247.067L215.019 251.9L215.198 258.164L220.209 255.659L225.937 258.522L224.147 252.258L227.369 247.604L221.462 246.351L217.704 240.623Z" fill="#FFE779"/>
<path d="M190.139 239.549L188.17 245.098L182.442 246.172L187.454 251.004L187.633 257.448L192.645 254.763L198.552 257.806L196.762 251.362L200.163 246.709L193.898 245.277L190.139 239.549Z" fill="#FFE779"/>
<path d="M162.037 238.476L160.068 244.203L154.161 245.098L159.173 250.11L159.352 256.554L164.543 253.869L170.629 256.912L168.66 250.289L172.24 245.814L165.975 244.382L162.037 238.476Z" fill="#FFE779"/>
<path d="M133.219 237.401L131.25 243.129L125.164 244.203L130.355 249.036L130.534 255.659L135.904 252.974L141.99 256.017L140.021 249.394L143.601 244.74L137.336 243.308L133.219 237.401Z" fill="#FFE779"/>
<path d="M127.312 457.564L373.786 446.645C379.872 446.287 384.526 440.738 383.452 434.652L364.836 329.225C363.762 323.139 358.393 318.486 352.128 318.486L108.338 316.517C100.284 316.517 94.198 323.676 95.4509 331.552L113.708 446.645C114.961 453.268 120.689 457.922 127.312 457.564Z" fill="#EAF9F3"/>
<path d="M308.99 366.098C310.243 373.616 316.687 379.701 323.489 379.522C330.111 379.343 334.407 373.258 333.154 365.74C331.901 358.222 325.458 352.315 318.835 352.315C312.033 352.494 307.558 358.58 308.99 366.098Z" fill="#FFE779"/>
<path d="M314.181 414.427L343.536 413.532C347.295 413.353 350.159 409.952 349.622 406.193L348.906 402.434C346.579 388.83 335.124 378.091 323.131 378.27C311.138 378.449 303.084 389.725 305.59 403.508L306.306 407.983C306.843 411.742 310.243 414.427 314.181 414.427Z" fill="#FFE779"/>
<path d="M153.087 377.195L269.97 375.584C272.297 375.584 274.087 373.436 273.729 371.109L272.297 362.876C271.76 360.012 269.433 358.043 266.569 358.043L149.507 358.938C147.18 358.938 145.39 361.086 145.748 363.413L147.18 372.362C147.717 375.047 150.223 377.195 153.087 377.195Z" fill="#6DAFA7"/>
<path d="M271.044 397.243L269.254 402.971L263.705 404.224L268.538 408.878L268.717 415.322L273.55 412.279L279.277 414.964L277.487 408.52L280.53 403.866L274.802 402.792L271.044 397.243Z" fill="#FFE779"/>
<path d="M244.016 397.78L242.226 403.508L236.498 404.94L241.51 409.594L241.689 416.038L246.701 413.174L252.429 415.859L250.639 409.415L253.861 404.403L247.775 403.508L244.016 397.78Z" fill="#FFE779"/>
<path d="M216.45 398.496L214.66 404.224L208.754 405.656L213.765 410.31L214.123 416.932L219.135 413.89L225.042 416.574L223.073 410.131L226.474 405.119L220.388 404.224L216.45 398.496Z" fill="#FFE779"/>
<path d="M188.349 399.033L186.38 404.94L180.473 406.372L185.664 411.205L185.843 417.828L191.034 414.785L197.12 417.47L195.151 410.847L198.552 405.835L192.287 404.761L188.349 399.033Z" fill="#63737A"/>
<path d="M159.709 399.749L157.561 405.656L151.654 407.088L156.845 411.921L157.024 418.722L162.215 415.5L168.48 418.364L166.511 411.563L170.091 406.73L163.647 405.656L159.709 399.749Z" fill="#63737A"/>
<path d="M157.73 44.9834C155.045 41.9405 150.391 41.7615 147.528 44.4464C144.485 47.1313 144.306 51.7851 146.991 54.649C149.676 57.6919 154.329 57.8709 157.193 55.186C160.236 52.5011 160.415 47.8473 157.73 44.9834Z" fill="#22272E"/>
<path d="M148.065 28.1581L146.812 26.7262C142.516 22.0724 135.356 21.7144 130.702 26.0102C126.048 30.3061 125.69 37.4658 129.986 42.1196L131.239 43.5516C132.671 45.1625 133.745 47.1315 134.282 49.2794C134.64 50.8903 135.177 52.8593 135.714 54.6492C136.788 58.5871 141.442 60.019 144.485 57.3341L152.539 49.9954L160.594 42.6566C163.637 39.9717 162.563 34.9599 158.804 33.7069C157.014 32.991 155.224 32.454 153.613 31.917C151.465 30.843 149.676 29.7691 148.065 28.1581Z" fill="#6DAFA7"/>
</g>
<g filter="url(#filter1_d_644_1227)">
<path d="M502.011 511.379L423.734 514.992C417.472 515.233 413.136 510.175 413.859 503.672L426.865 373.612C427.587 366.868 433.127 360.846 439.389 360.124L519.111 349.767C526.096 348.804 530.913 353.862 530.19 360.846L515.498 498.373C515.017 505.117 508.755 510.897 502.011 511.379Z" fill="#6DAFA7"/>
<path d="M496.23 508.73L417.953 512.342C411.691 512.583 407.356 507.525 408.079 501.022L421.085 370.962C421.807 364.218 427.347 358.197 433.609 357.474L513.331 347.118C520.316 346.154 525.133 351.212 524.41 358.197L509.718 495.724C508.996 502.708 502.974 508.489 496.23 508.73Z" fill="#EAF9F3"/>
<path d="M499.843 390.953L438.907 397.456C436.98 397.696 435.294 396.011 435.535 394.084L436.98 379.151C437.221 377.706 438.185 376.502 439.63 376.502L500.806 369.276C502.733 369.035 504.419 370.721 504.178 372.648L502.492 388.303C502.492 389.748 501.288 390.953 499.843 390.953Z" fill="#F8AB5D"/>
<path d="M443.242 432.379L435.294 433.102C433.368 433.342 431.682 431.656 431.922 429.73L432.886 421.059C433.127 419.614 434.09 418.41 435.535 418.41L443.483 417.687C445.41 417.446 447.096 419.132 446.855 421.059L445.892 429.73C445.892 431.175 444.688 432.138 443.242 432.379Z" fill="#6DAFA7"/>
<path d="M495.989 427.803L487.319 428.525C485.392 428.766 483.706 427.08 483.947 425.153L484.91 416.001C485.151 414.556 486.115 413.352 487.56 413.352L496.23 412.388C498.157 412.147 499.843 413.833 499.602 415.76L498.639 424.913C498.639 426.358 497.435 427.562 495.989 427.803Z" fill="#6DAFA7"/>
<path d="M469.255 429.97L461.066 430.693C459.139 430.934 457.453 429.248 457.694 427.321L458.658 418.41C458.898 416.964 459.862 415.76 461.307 415.76L469.496 415.038C471.423 414.797 473.109 416.483 472.868 418.41L471.904 427.321C471.904 428.766 470.7 429.97 469.255 429.97Z" fill="#6DAFA7"/>
<path d="M440.111 462.005L432.163 462.486C430.236 462.727 428.791 461.041 428.791 459.114L429.754 450.444C429.995 448.999 431.2 447.794 432.645 447.794L440.593 447.072C442.52 446.831 444.206 448.517 443.965 450.444L443.001 459.114C442.76 460.8 441.556 462.005 440.111 462.005Z" fill="#6DAFA7"/>
<path d="M492.858 458.391L484.187 459.114C482.26 459.355 480.815 457.669 480.815 455.742L481.779 446.83C482.019 445.385 483.224 444.181 484.669 444.181L493.34 443.459C495.266 443.218 496.952 444.904 496.711 446.83L495.748 455.983C495.507 456.946 494.303 458.151 492.858 458.391Z" fill="#6DAFA7"/>
<path d="M466.123 460.318L457.934 460.799C456.008 461.04 454.562 459.354 454.562 457.428L455.526 448.516C455.767 447.071 456.971 445.867 458.416 445.867L466.605 445.144C468.532 444.903 470.218 446.589 469.977 448.516L469.014 457.428C468.773 458.873 467.568 460.077 466.123 460.318Z" fill="#6DAFA7"/>
<path d="M436.98 491.629L429.273 492.111C427.346 492.111 425.901 490.666 426.142 488.739L427.105 480.068C427.346 478.623 428.55 477.419 429.996 477.419L437.703 476.937C439.63 476.696 441.075 478.382 440.834 480.309L439.871 488.98C439.871 490.425 438.425 491.629 436.98 491.629Z" fill="#6DAFA7"/>
<path d="M489.486 488.739L480.815 489.221C478.888 489.221 477.443 487.776 477.684 485.849L478.647 476.937C478.888 475.492 480.093 474.288 481.538 474.288L490.208 473.806C492.135 473.565 493.58 475.251 493.339 477.178L492.376 486.331C492.135 487.535 490.931 488.739 489.486 488.739Z" fill="#FFE779"/>
<path d="M462.993 490.184L454.804 490.665C452.877 490.665 451.432 489.22 451.673 487.294L452.636 478.623C452.877 477.178 454.081 475.973 455.526 475.973L463.715 475.492C465.642 475.251 467.087 476.937 466.846 478.864L465.883 487.775C465.642 488.979 464.438 490.184 462.993 490.184Z" fill="#FFE779"/>
</g>
<defs>
<filter id="filter0_d_644_1227" x="0.10083" y="0" width="468.852" height="554" filterUnits="userSpaceOnUse" color-interpolation-filters="sRGB">
<feFlood flood-opacity="0" result="BackgroundImageFix"/>
<feColorMatrix in="SourceAlpha" type="matrix" values="0 0 0 0 0 0 0 0 0 0 0 0 0 0 0 0 0 0 127 0" result="hardAlpha"/>
<feOffset dy="17"/>
<feGaussianBlur stdDeviation="20"/>
<feColorMatrix type="matrix" values="0 0 0 0 0.427451 0 0 0 0 0.686275 0 0 0 0 0.654902 0 0 0 0.17 0"/>
<feBlend mode="normal" in2="BackgroundImageFix" result="effect1_dropShadow_644_1227"/>
<feBlend mode="normal" in="SourceGraphic" in2="effect1_dropShadow_644_1227" result="shape"/>
</filter>
<filter id="filter1_d_644_1227" x="368" y="324" width="202.262" height="248" filterUnits="userSpaceOnUse" color-interpolation-filters="sRGB">
<feFlood flood-opacity="0" result="BackgroundImageFix"/>
<feColorMatrix in="SourceAlpha" type="matrix" values="0 0 0 0 0 0 0 0 0 0 0 0 0 0 0 0 0 0 127 0" result="hardAlpha"/>
<feOffset dy="17"/>
<feGaussianBlur stdDeviation="20"/>
<feColorMatrix type="matrix" values="0 0 0 0 0 0 0 0 0 0 0 0 0 0 0 0 0 0 0.13 0"/>
<feBlend mode="normal" in2="BackgroundImageFix" result="effect1_dropShadow_644_1227"/>
<feBlend mode="normal" in="SourceGraphic" in2="effect1_dropShadow_644_1227" result="shape"/>
</filter>
</defs>
</svg>
