<svg width="416" height="417" viewBox="0 0 416 417" fill="none" xmlns="http://www.w3.org/2000/svg">
<g filter="url(#filter0_d_602_1315)">
<path d="M176.819 347.511L286.509 340.77C294.72 340.28 300.603 332.804 299.132 324.715L257.34 90.5071C255.869 82.4183 249.251 76.4129 241.162 75.555L130.983 64.8925C122.036 64.0346 114.683 71.8783 116.153 80.825L157.823 332.313C159.294 341.505 167.505 348.123 176.819 347.511Z" fill="#F8AB5D"/>
<path d="M182.824 346.776L292.514 340.036C300.725 339.545 306.608 332.069 305.137 323.981L263.345 89.7727C261.874 81.6839 255.256 75.6786 247.167 74.8206L136.988 64.1581C128.041 63.3002 120.688 71.1439 122.158 80.0906L163.828 331.579C165.299 340.771 173.51 347.267 182.824 346.776Z" fill="#FFE779"/>
<path d="M72.2773 214.413L241.162 217.355C245.574 217.477 248.883 213.433 248.148 209.143L235.769 138.673C235.034 134.628 231.725 131.687 227.68 131.319L61.002 120.166C55.3643 119.799 50.7072 124.824 51.6876 130.461L63.9434 207.06C64.3111 211.227 67.9878 214.413 72.2773 214.413Z" fill="#F8AB5D"/>
<path d="M90.9062 328.024L259.791 320.671C263.958 320.426 267.144 316.626 266.409 312.459L253.663 240.273C252.928 236.106 249.251 232.919 244.961 232.919L78.0376 231.571C72.5225 231.571 68.3556 236.474 69.2135 241.866L81.7144 320.671C82.4497 325.083 86.4941 328.269 90.9062 328.024Z" fill="#F8AB5D"/>
<path d="M265.918 103.866L124.242 92.5908" stroke="#F8AB5D" stroke-width="1.8" stroke-miterlimit="10" stroke-linecap="round" stroke-linejoin="round"/>
<path d="M193.855 86.8314L205.988 87.9345C207.091 88.057 207.704 87.1991 207.581 85.9735C207.336 84.7479 206.356 83.7675 205.253 83.6449L193.12 82.5419C192.017 82.4194 191.281 83.2773 191.526 84.5028C191.771 85.7284 192.874 86.7089 193.855 86.8314Z" fill="#22272E"/>
<path d="M185.766 86.0961C186.869 86.2186 187.605 85.3607 187.359 84.1352C187.114 82.9096 186.134 81.9291 185.031 81.8066C183.928 81.684 183.192 82.5419 183.438 83.7675C183.56 84.9931 184.663 86.0961 185.766 86.0961Z" fill="#22272E"/>
<path d="M49.2363 94.4284L95.9308 97.9826C97.6466 98.1052 98.9948 96.6345 98.6271 95.0412L93.9699 66.7304C93.7248 65.0146 92.2541 63.6664 90.5383 63.5439L44.334 58.6416C42.3731 58.3965 40.7798 60.1123 41.025 62.0732L45.5596 91.2419C46.0498 92.9577 47.5205 94.3059 49.2363 94.4284Z" stroke="#6DAFA7" stroke-width="1.8" stroke-miterlimit="10" stroke-linecap="round" stroke-linejoin="round"/>
<path d="M92.7445 64.2788L72.3998 77.3924C71.2968 78.1278 69.8261 78.1278 68.7231 77.3924L42.2507 59.2539" stroke="#6DAFA7" stroke-width="1.8" stroke-miterlimit="10" stroke-linecap="round" stroke-linejoin="round"/>
<path d="M297.617 147.373L259.257 149.457L253.619 153.134C252.271 153.992 250.678 152.889 250.923 151.295L256.928 117.96C257.418 115.263 259.624 113.302 262.321 113.057L302.275 109.993C304.848 109.748 307.054 112.077 306.564 114.651L301.417 143.819C301.049 145.903 299.456 147.251 297.617 147.373Z" fill="#6DAFA7"/>
<path d="M264.404 122.862L296.759 120.533" stroke="#FFE779" stroke-width="1.8" stroke-miterlimit="10" stroke-linecap="round" stroke-linejoin="round"/>
<path d="M262.933 131.073L295.289 128.867" stroke="#FFE779" stroke-width="1.8" stroke-miterlimit="10" stroke-linecap="round" stroke-linejoin="round"/>
<path d="M261.463 139.162L278.376 138.182" stroke="#FFE779" stroke-width="1.8" stroke-miterlimit="10" stroke-linecap="round" stroke-linejoin="round"/>
<path d="M81.3467 206.935L250.231 209.876C254.643 209.999 257.952 205.954 257.217 201.665L244.839 131.194C244.103 127.15 240.794 124.208 236.75 123.841L70.0714 112.688C64.4337 112.32 59.7765 117.345 60.757 122.983L73.0127 199.581C73.503 203.748 77.0572 206.935 81.3467 206.935Z" fill="#EAF9F3"/>
<path d="M206.478 153.622C207.336 158.647 211.748 162.936 216.283 163.181C220.818 163.426 223.759 159.504 222.901 154.48C222.043 149.455 217.631 145.165 213.096 144.92C208.562 144.675 205.62 148.597 206.478 153.622Z" fill="#FFE779"/>
<path d="M209.665 185.855L229.764 186.467C232.461 186.59 234.667 184.139 234.176 181.442L233.809 179.236C232.215 170.167 224.372 162.446 216.16 162.201C207.949 161.833 202.434 169.064 204.027 178.256L204.517 181.442C205.008 183.894 207.091 185.732 209.665 185.855Z" fill="#FFE779"/>
<path d="M99.4856 154.48L179.516 158.156C181.232 158.279 182.58 156.686 182.212 155.093L181.354 149.7C180.986 147.862 179.516 146.513 177.677 146.391L97.5246 142.224C95.8088 142.101 94.4608 143.572 94.8284 145.288L95.8089 151.171C96.054 153.009 97.6472 154.48 99.4856 154.48Z" fill="#6DAFA7"/>
<path d="M180.374 172.619L179.148 176.418L175.349 177.031L178.658 180.34L178.903 184.63L182.089 182.914L186.011 184.875L184.786 180.585L186.992 177.521L182.947 176.541L180.374 172.619Z" fill="#FFE779"/>
<path d="M161.99 172.006L160.642 175.805L156.842 176.418L160.151 179.727L160.274 184.017L163.706 182.301L167.627 184.262L166.402 179.972L168.608 176.786L164.563 175.928L161.99 172.006Z" fill="#FFE779"/>
<path d="M143.116 171.271L141.768 175.07L137.846 175.805L141.278 179.114L141.4 183.526L144.832 181.688L148.876 183.771L147.651 179.359L149.98 176.173L145.69 175.192L143.116 171.271Z" fill="#FFE779"/>
<path d="M123.875 170.535L122.527 174.457L118.482 175.07L121.914 178.501L122.036 182.913L125.59 181.075L129.757 183.159L128.409 178.624L130.86 175.56L126.571 174.58L123.875 170.535Z" fill="#FFE779"/>
<path d="M104.143 169.8L102.795 173.722L98.6277 174.457L102.182 177.766L102.304 182.301L105.981 180.462L110.148 182.546L108.8 178.011L111.251 174.825L106.962 173.844L104.143 169.8Z" fill="#FFE779"/>
<path d="M100.098 320.547L268.86 313.071C273.027 312.826 276.213 309.027 275.478 304.86L262.732 232.673C261.997 228.506 258.32 225.32 254.03 225.32L87.1068 223.972C81.5917 223.972 77.4248 228.874 78.2827 234.267L90.7836 313.071C91.6415 317.606 95.5634 320.792 100.098 320.547Z" fill="#EAF9F3"/>
<path d="M224.494 257.919C225.352 263.067 229.764 267.234 234.421 267.111C238.956 266.989 241.897 262.822 241.039 257.674C240.181 252.527 235.769 248.482 231.235 248.482C226.577 248.605 223.513 252.772 224.494 257.919Z" fill="#FFE779"/>
<path d="M228.048 291.009L248.148 290.396C250.722 290.274 252.682 287.945 252.315 285.372L251.825 282.798C250.231 273.483 242.388 266.13 234.176 266.252C225.965 266.375 220.45 274.096 222.166 283.533L222.656 286.597C223.023 289.171 225.352 291.009 228.048 291.009Z" fill="#FFE779"/>
<path d="M117.746 265.519L197.777 264.416C199.37 264.416 200.595 262.945 200.35 261.352L199.37 255.714C199.002 253.753 197.409 252.405 195.448 252.405L115.295 253.018C113.702 253.018 112.476 254.489 112.722 256.082L113.702 262.21C114.07 264.048 115.785 265.519 117.746 265.519Z" fill="#6DAFA7"/>
<path d="M198.512 279.246L197.286 283.168L193.487 284.026L196.796 287.212L196.919 291.624L200.228 289.541L204.149 291.379L202.924 286.967L205.007 283.781L201.085 283.045L198.512 279.246Z" fill="#FFE779"/>
<path d="M180.006 279.613L178.78 283.535L174.858 284.516L178.29 287.702L178.412 292.114L181.844 290.153L185.766 291.992L184.54 287.58L186.746 284.148L182.579 283.535L180.006 279.613Z" fill="#FFE779"/>
<path d="M161.131 280.104L159.906 284.026L155.861 285.007L159.293 288.193L159.538 292.728L162.97 290.644L167.014 292.483L165.666 288.071L167.995 284.639L163.828 284.026L161.131 280.104Z" fill="#FFE779"/>
<path d="M141.89 280.472L140.542 284.516L136.498 285.497L140.052 288.806L140.174 293.34L143.729 291.257L147.896 293.095L146.547 288.56L148.876 285.129L144.587 284.394L141.89 280.472Z" fill="#63737A"/>
<path d="M122.281 280.962L120.81 285.006L116.766 285.987L120.32 289.296L120.442 293.953L123.997 291.747L128.286 293.708L126.938 289.051L129.389 285.742L124.977 285.006L122.281 280.962Z" fill="#63737A"/>
<path d="M120.926 38.0519C119.087 35.9684 115.901 35.8458 113.94 37.6842C111.856 39.5226 111.734 42.7091 113.572 44.67C115.41 46.7535 118.597 46.876 120.558 45.0377C122.641 43.1993 122.764 40.0128 120.926 38.0519Z" fill="#22272E"/>
<path d="M114.308 26.5318L113.45 25.5513C110.508 22.3648 105.606 22.1197 102.42 25.0611C99.233 28.0025 98.9879 32.9048 101.929 36.0913L102.787 37.0718C103.768 38.1748 104.503 39.5229 104.871 40.9936C105.116 42.0966 105.483 43.4448 105.851 44.6703C106.586 47.3666 109.773 48.3471 111.856 46.5087L117.372 41.4839L122.887 36.459C124.97 34.6206 124.235 31.189 121.661 30.3311C120.436 29.8409 119.21 29.4732 118.107 29.1055C116.636 28.3702 115.411 27.6348 114.308 26.5318Z" fill="#6DAFA7"/>
</g>
<g filter="url(#filter1_d_602_1315)">
<path d="M356.656 357.395L303.06 359.869C298.772 360.034 295.803 356.571 296.298 352.118L305.203 263.065C305.698 258.448 309.491 254.325 313.779 253.83L368.365 246.739C373.147 246.079 376.446 249.542 375.951 254.325L365.891 348.49C365.561 353.107 361.274 357.065 356.656 357.395Z" fill="#6DAFA7"/>
<path d="M352.698 355.582L299.102 358.055C294.814 358.22 291.846 354.757 292.34 350.304L301.246 261.252C301.74 256.634 305.533 252.511 309.821 252.017L364.407 244.925C369.19 244.266 372.488 247.729 371.993 252.511L361.933 346.676C361.439 351.459 357.316 355.417 352.698 355.582Z" fill="#EAF9F3"/>
<path d="M355.172 274.939L313.449 279.392C312.13 279.556 310.975 278.402 311.14 277.083L312.13 266.858C312.294 265.869 312.954 265.044 313.944 265.044L355.831 260.097C357.151 259.932 358.305 261.086 358.14 262.406L356.986 273.125C356.986 274.114 356.161 274.939 355.172 274.939Z" fill="#F8AB5D"/>
<path d="M316.417 303.303L310.975 303.798C309.656 303.963 308.502 302.808 308.666 301.489L309.326 295.552C309.491 294.563 310.151 293.738 311.14 293.738L316.582 293.243C317.902 293.078 319.056 294.233 318.891 295.552L318.231 301.489C318.231 302.478 317.407 303.138 316.417 303.303Z" fill="#6DAFA7"/>
<path d="M352.533 300.17L346.597 300.664C345.277 300.829 344.123 299.675 344.288 298.356L344.947 292.089C345.112 291.1 345.772 290.275 346.762 290.275L352.698 289.615C354.018 289.45 355.172 290.605 355.007 291.924L354.347 298.191C354.347 299.18 353.523 300.005 352.533 300.17Z" fill="#6DAFA7"/>
<path d="M334.228 301.653L328.621 302.148C327.302 302.313 326.147 301.159 326.312 299.839L326.972 293.738C327.137 292.748 327.797 291.924 328.786 291.924L334.393 291.429C335.712 291.264 336.867 292.418 336.702 293.738L336.042 299.839C336.042 300.829 335.218 301.653 334.228 301.653Z" fill="#6DAFA7"/>
<path d="M314.273 323.588L308.831 323.918C307.512 324.083 306.522 322.928 306.522 321.609L307.182 315.672C307.347 314.683 308.171 313.858 309.161 313.858L314.603 313.363C315.922 313.198 317.077 314.353 316.912 315.672L316.252 321.609C316.087 322.763 315.263 323.588 314.273 323.588Z" fill="#6DAFA7"/>
<path d="M350.389 321.114L344.452 321.609C343.133 321.774 342.143 320.62 342.143 319.3L342.803 313.199C342.968 312.209 343.793 311.384 344.782 311.384L350.719 310.89C352.038 310.725 353.193 311.879 353.028 313.199L352.368 319.465C352.203 320.125 351.379 320.949 350.389 321.114Z" fill="#6DAFA7"/>
<path d="M332.084 322.434L326.477 322.763C325.158 322.928 324.168 321.774 324.168 320.455L324.828 314.353C324.993 313.363 325.817 312.539 326.807 312.539L332.414 312.044C333.733 311.879 334.887 313.034 334.722 314.353L334.063 320.455C333.898 321.444 333.073 322.269 332.084 322.434Z" fill="#6DAFA7"/>
<path d="M312.13 343.872L306.852 344.202C305.533 344.202 304.544 343.213 304.709 341.893L305.368 335.956C305.533 334.967 306.358 334.142 307.347 334.142L312.624 333.813C313.944 333.648 314.933 334.802 314.768 336.121L314.109 342.058C314.109 343.048 313.119 343.872 312.13 343.872Z" fill="#6DAFA7"/>
<path d="M348.08 341.894L342.143 342.223C340.824 342.223 339.835 341.234 340 339.915L340.659 333.813C340.824 332.823 341.649 331.999 342.638 331.999L348.575 331.669C349.894 331.504 350.884 332.659 350.719 333.978L350.059 340.245C349.894 341.069 349.07 341.894 348.08 341.894Z" fill="#FFE779"/>
<path d="M329.94 342.883L324.333 343.213C323.014 343.213 322.025 342.223 322.189 340.904L322.849 334.967C323.014 333.978 323.839 333.153 324.828 333.153L330.435 332.823C331.754 332.658 332.744 333.813 332.579 335.132L331.919 341.234C331.754 342.058 330.93 342.883 329.94 342.883Z" fill="#FFE779"/>
</g>
<defs>
<filter id="filter0_d_602_1315" x="0.100281" y="0" width="346.533" height="404.55" filterUnits="userSpaceOnUse" color-interpolation-filters="sRGB">
<feFlood flood-opacity="0" result="BackgroundImageFix"/>
<feColorMatrix in="SourceAlpha" type="matrix" values="0 0 0 0 0 0 0 0 0 0 0 0 0 0 0 0 0 0 127 0" result="hardAlpha"/>
<feOffset dy="17"/>
<feGaussianBlur stdDeviation="20"/>
<feColorMatrix type="matrix" values="0 0 0 0 0.427451 0 0 0 0 0.686275 0 0 0 0 0.654902 0 0 0 0.17 0"/>
<feBlend mode="normal" in2="BackgroundImageFix" result="effect1_dropShadow_602_1315"/>
<feBlend mode="normal" in="SourceGraphic" in2="effect1_dropShadow_602_1315" result="shape"/>
</filter>
<filter id="filter1_d_602_1315" x="252.287" y="221.845" width="163.713" height="195.03" filterUnits="userSpaceOnUse" color-interpolation-filters="sRGB">
<feFlood flood-opacity="0" result="BackgroundImageFix"/>
<feColorMatrix in="SourceAlpha" type="matrix" values="0 0 0 0 0 0 0 0 0 0 0 0 0 0 0 0 0 0 127 0" result="hardAlpha"/>
<feOffset dy="17"/>
<feGaussianBlur stdDeviation="20"/>
<feColorMatrix type="matrix" values="0 0 0 0 0 0 0 0 0 0 0 0 0 0 0 0 0 0 0.13 0"/>
<feBlend mode="normal" in2="BackgroundImageFix" result="effect1_dropShadow_602_1315"/>
<feBlend mode="normal" in="SourceGraphic" in2="effect1_dropShadow_602_1315" result="shape"/>
</filter>
</defs>
</svg>
