<svg width="474" height="444" viewBox="0 0 474 444" fill="none" xmlns="http://www.w3.org/2000/svg">
<path d="M304.905 387.251L328.06 311.446C328.749 309.378 330.679 308 332.884 308L469.885 311.859C472.228 311.859 473.744 314.064 473.193 316.27L446.317 408.752C445.628 411.095 443.285 412.612 440.941 412.198L307.937 391.662C305.594 391.386 304.216 389.319 304.905 387.251Z" fill="#22272E"/>
<path d="M303.665 391.11L224 398.553L360.588 432.183C363.896 433.01 367.341 433.01 370.649 432.183L444.801 413.025L303.665 391.11Z" fill="#63737A"/>
<path d="M360.725 432.183L224.138 398.553C224.138 401.172 225.929 403.377 228.41 404.066L357.142 438.248C362.517 439.626 368.306 439.626 373.681 437.972L441.217 418.125C443.56 417.436 445.076 415.368 445.076 412.887L370.925 432.045C367.341 433.01 363.895 433.01 360.725 432.183Z" fill="#22272E"/>
<path d="M394.906 324.816L385.259 357.619C384.983 358.446 384.156 358.997 383.329 358.997L329.162 354.311C327.922 354.173 327.233 353.07 327.509 351.968L336.605 321.921C336.881 321.094 337.57 320.543 338.397 320.543L393.115 322.473C394.355 322.473 395.182 323.713 394.906 324.816Z" fill="white"/>
<path d="M384.569 330.742L378.505 350.451L336.33 347.419L337.846 343.008L353.42 336.117L362.241 343.008L384.569 330.742Z" fill="#F4C2C9"/>
<path d="M353.007 370.987L349.01 383.392C348.734 384.219 347.907 384.77 346.943 384.632L320.893 381.187C319.79 381.049 318.963 379.946 319.377 378.844L322.823 367.266C323.098 366.439 323.925 365.888 324.752 365.888L351.353 368.644C352.593 368.644 353.42 369.747 353.007 370.987Z" fill="#FFE779"/>
<path d="M393.804 375.123L389.393 388.768C389.118 389.595 388.291 390.146 387.326 390.008L362.517 386.7C361.414 386.562 360.587 385.46 361.001 384.219L365.136 371.401C365.411 370.574 366.238 370.023 367.065 370.161L392.15 372.642C393.39 372.78 394.217 373.882 393.804 375.123Z" fill="#6DAFA7"/>
<path d="M440.666 379.808L435.979 394.969C435.704 395.796 434.877 396.348 433.912 396.21L404.003 392.213C402.901 392.075 402.074 390.972 402.487 389.732L407.036 375.536C407.311 374.709 408.138 374.157 408.965 374.295L438.874 377.327C440.252 377.465 441.079 378.706 440.666 379.808Z" fill="#F4C2C9"/>
<path d="M424.54 331.431C423.575 335.566 419.302 338.736 415.167 338.46C411.17 338.185 409.103 334.739 410.206 330.88C411.308 327.158 415.167 324.402 418.889 324.402C422.748 324.402 425.367 327.572 424.54 331.431Z" fill="#FFE779"/>
<path d="M434.326 326.883L454.449 327.572" stroke="#63737A" stroke-width="1.8" stroke-miterlimit="10" stroke-linecap="round" stroke-linejoin="round"/>
<path d="M402.901 353.071L446.041 356.103" stroke="#63737A" stroke-width="1.8" stroke-miterlimit="10" stroke-linecap="round" stroke-linejoin="round"/>
<path d="M431.982 335.015L452.105 335.842" stroke="#63737A" stroke-width="1.8" stroke-miterlimit="10" stroke-linecap="round" stroke-linejoin="round"/>
<path opacity="0.3" d="M0.101105 404.318L26.9888 33.6651C29.0093 5.84034 60.3714 -9.36341 83.4875 6.29715L391.053 214.909C414.14 230.57 411.616 265.358 386.508 277.522L52.096 439.557C26.9419 451.727 -1.92529 432.131 0.101105 404.318Z" fill="url(#paint0_linear_554_1499)"/>
<path d="M100.283 203.863C93.2287 218.876 76.9501 228.824 65.5551 225.749C55.607 223.036 53.7983 211.279 60.1289 199.522C66.2785 188.308 78.578 179.264 89.2495 179.083C101.006 178.722 106.794 189.574 100.283 203.863Z" fill="#F8AB5D"/>
<path d="M96.8466 200.788C89.7925 215.801 73.514 225.749 62.119 222.674C52.171 219.961 50.3623 208.204 56.6928 196.447C62.8425 185.233 75.1418 176.19 85.8134 176.009C97.5701 175.647 103.358 186.499 96.8466 200.788Z" fill="#FFE779"/>
<path d="M91.0585 200.065C85.8132 211.279 73.5138 218.875 64.8319 216.886C57.0544 215.077 55.2456 206.033 60.1291 196.809C64.8318 187.946 74.7799 180.892 82.9192 180.892C92.1437 181.073 96.123 189.393 91.0585 200.065Z" fill="#F8AB5D"/>
<path d="M67.5451 209.651L68.2685 208.385C68.4494 207.843 68.4494 207.481 68.0877 207.3C67.1833 207.119 66.4598 206.577 66.098 206.034C65.9172 205.853 65.9172 205.311 66.279 204.768L66.4598 204.587C66.8215 204.044 67.5451 203.864 67.7259 204.225C68.2686 204.768 68.992 205.311 70.0773 205.491C71.886 205.853 73.6947 204.768 74.5991 202.959C75.5035 201.331 74.9609 200.065 73.5139 198.98C71.5243 197.533 70.8008 196.086 72.0669 193.554C73.1522 191.383 75.1418 189.755 77.4931 189.394C77.8549 189.394 78.2166 189.032 78.5783 188.489L79.3019 187.223C79.4827 186.681 80.0253 186.319 80.5679 186.319C80.9296 186.319 81.1105 186.681 80.9296 187.223L80.3871 188.308C80.2062 188.851 80.2062 189.213 80.7488 189.213C81.4723 189.394 82.0149 189.575 82.3766 189.936C82.7384 190.117 82.5575 190.66 82.1958 191.202L82.015 191.383C81.6532 191.926 80.9297 192.107 80.7488 191.745C80.2062 191.383 79.6636 191.022 78.5783 191.022C76.5887 190.841 75.3226 192.107 74.5991 193.373C73.8756 194.82 74.4182 195.724 76.0461 196.99C78.0357 198.437 78.7592 200.246 77.3122 202.959C76.2269 205.311 73.8757 207.119 71.1626 207.481C70.8008 207.481 70.2581 207.843 70.0773 208.385L69.3538 209.832C69.173 210.375 68.4494 210.737 68.0877 210.737C67.3642 210.737 67.1834 210.194 67.5451 209.651Z" fill="#FFE779"/>
<path d="M163.653 199.038C183.946 198.371 200.901 182.815 203.765 162.23L210.957 110.604L183.911 106.832C181.873 106.592 173.34 105.813 165.679 111.74C162.634 114.082 160.069 117.28 157.866 122.036C153.556 131.348 135.307 179.612 155.266 195.155C157.738 197.058 160.603 198.385 163.653 199.038Z" fill="black"/>
<path d="M76.9514 440.248H239.472L252.603 242.295C229.694 232.268 205.705 224.916 181.111 220.385C145.972 213.943 118.141 213.673 92.9868 216.801C87.6339 291.443 82.3102 365.606 76.9514 440.248Z" fill="black"/>
<path d="M165.152 197.094L171.594 179.413C165.251 179.155 160.18 173.644 160.18 166.862C160.18 159.91 165.492 154.282 172.051 154.282C174.862 154.289 177.573 155.332 179.665 157.21L191.794 123.88L241.522 139.886C243.827 140.627 245.963 141.815 247.809 143.381C249.654 144.948 251.173 146.863 252.278 149.016C253.384 151.17 254.053 153.521 254.25 155.934C254.446 158.347 254.165 160.774 253.423 163.079L239.952 204.936C237.901 211.282 233.416 216.555 227.482 219.599C221.548 222.642 214.648 223.207 208.298 221.17L201.065 217.937L195.021 230.857C194.76 231.428 194.309 231.89 193.744 232.163C183.243 237.212 171.524 235.976 164.309 229.235C159.325 224.591 156.566 220.409 155.77 217.674C155.595 217.034 155.664 216.351 155.963 215.759L165.152 197.094Z" fill="white"/>
<path d="M201.053 217.961L179.255 208.005C179.11 207.941 178.948 207.93 178.796 207.971C178.644 208.013 178.51 208.105 178.418 208.233C178.325 208.361 178.28 208.517 178.288 208.675C178.296 208.832 178.359 208.982 178.464 209.1L196.268 228.192L201.053 217.961Z" fill="black"/>
<path d="M173.047 172.062C173.889 172.064 174.713 171.815 175.414 171.348C176.115 170.881 176.661 170.216 176.985 169.438C177.308 168.66 177.393 167.804 177.229 166.978C177.066 166.151 176.661 165.392 176.065 164.796C175.47 164.2 174.711 163.794 173.885 163.629C173.059 163.464 172.203 163.548 171.425 163.87C170.646 164.193 169.981 164.738 169.513 165.439C169.045 166.139 168.795 166.962 168.795 167.805C168.795 168.933 169.243 170.015 170.04 170.813C170.837 171.612 171.918 172.061 173.047 172.062ZM173.047 165.895C173.426 165.894 173.797 166.006 174.113 166.216C174.429 166.426 174.675 166.725 174.821 167.075C174.966 167.425 175.005 167.811 174.931 168.183C174.857 168.555 174.675 168.896 174.407 169.165C174.139 169.433 173.797 169.615 173.425 169.689C173.053 169.763 172.667 169.724 172.317 169.579C171.967 169.433 171.668 169.187 171.458 168.871C171.248 168.555 171.136 168.184 171.137 167.805C171.137 167.298 171.339 166.813 171.697 166.455C172.055 166.097 172.54 165.895 173.047 165.895Z" fill="black"/>
<path d="M176.045 169.691C176.334 169.693 176.613 169.588 176.829 169.397C177.046 169.205 177.184 168.941 177.217 168.654C177.515 166.118 176.936 164.068 175.495 162.552C172.789 159.699 168.045 159.963 167.846 159.975C167.535 159.994 167.245 160.136 167.039 160.369C166.833 160.603 166.729 160.909 166.748 161.219C166.767 161.53 166.909 161.82 167.143 162.026C167.376 162.232 167.682 162.337 167.993 162.317C168.028 162.317 171.858 162.112 173.802 164.168C174.751 165.169 175.102 166.546 174.892 168.385C174.857 168.692 174.945 169.001 175.137 169.243C175.329 169.486 175.609 169.642 175.917 169.679L176.045 169.691Z" fill="black"/>
<path d="M219.203 202.493C220.715 202.512 222.211 202.171 223.566 201.498C223.821 201.336 224.003 201.081 224.075 200.788C224.147 200.495 224.103 200.185 223.951 199.923C223.8 199.662 223.554 199.469 223.264 199.384C222.974 199.3 222.662 199.331 222.394 199.471C222.125 199.618 216.099 202.88 209.932 194.171C209.846 194.038 209.735 193.923 209.603 193.834C209.472 193.745 209.325 193.683 209.169 193.653C209.013 193.622 208.853 193.624 208.698 193.657C208.543 193.69 208.397 193.755 208.267 193.846C208.138 193.938 208.029 194.055 207.946 194.19C207.863 194.325 207.809 194.476 207.786 194.633C207.763 194.79 207.772 194.95 207.813 195.103C207.853 195.256 207.925 195.399 208.022 195.524C212.022 201.176 216.192 202.493 219.203 202.493Z" fill="black"/>
<path d="M212.011 171.137C210.594 171.137 209.446 169.988 209.446 168.572C209.446 167.155 210.594 166.006 212.011 166.006C213.427 166.006 214.576 167.155 214.576 168.572C214.576 169.988 213.427 171.137 212.011 171.137Z" fill="black"/>
<path d="M242.037 182.001C240.621 182.001 239.472 180.853 239.472 179.436C239.472 178.019 240.621 176.871 242.037 176.871C243.454 176.871 244.603 178.019 244.603 179.436C244.603 180.853 243.454 182.001 242.037 182.001Z" fill="black"/>
<path d="M242.687 193.48C248.573 193.48 254.038 188.736 255.449 181.971C257.042 174.358 252.901 167.025 246.225 165.626C244.572 165.298 242.868 165.334 241.23 165.732C239.593 166.129 238.062 166.879 236.743 167.927C233.885 170.161 231.925 173.347 231.22 176.906C230.44 180.447 230.96 184.152 232.684 187.342C233.472 188.832 234.574 190.133 235.915 191.153C237.257 192.174 238.804 192.89 240.45 193.251C241.186 193.403 241.936 193.479 242.687 193.48ZM243.97 167.711C244.561 167.713 245.149 167.776 245.727 167.898C251.144 169.028 254.471 175.119 253.141 181.468C251.812 187.816 246.324 192.062 240.913 190.932C239.596 190.639 238.359 190.061 237.289 189.24C236.218 188.418 235.341 187.373 234.717 186.177C233.27 183.48 232.842 180.354 233.51 177.368C234.09 174.353 235.739 171.65 238.154 169.755C239.818 168.46 241.862 167.749 243.97 167.734V167.711Z" fill="black"/>
<path d="M231.367 177.369C231.644 177.367 231.913 177.266 232.123 177.085C232.333 176.903 232.473 176.653 232.515 176.379C232.558 176.104 232.502 175.823 232.357 175.586C232.212 175.349 231.988 175.172 231.724 175.085L221.147 171.676C220.859 171.605 220.554 171.645 220.294 171.79C220.035 171.934 219.84 172.172 219.749 172.455C219.658 172.738 219.678 173.045 219.805 173.313C219.932 173.582 220.156 173.792 220.432 173.902L231.004 177.316C231.121 177.351 231.244 177.369 231.367 177.369Z" fill="black"/>
<path d="M226.107 189.867C226.705 189.883 227.299 189.768 227.847 189.53C228.395 189.292 228.885 188.938 229.282 188.491C230.453 187.068 230.254 185.117 229.698 183.882C229.301 183.015 228.657 182.286 227.847 181.785L232.667 168.9C232.755 168.615 232.732 168.306 232.6 168.038C232.468 167.769 232.239 167.561 231.959 167.456C231.679 167.351 231.369 167.358 231.094 167.474C230.818 167.59 230.597 167.807 230.476 168.08L224.854 183.067L226.025 183.454C226.362 183.565 226.673 183.743 226.939 183.976C227.206 184.209 227.423 184.494 227.577 184.813C227.788 185.275 228.04 186.318 227.507 186.95C226.974 187.583 225.75 187.77 224.614 187.038C224.486 186.944 224.34 186.876 224.185 186.84C224.03 186.804 223.869 186.8 223.712 186.828C223.555 186.856 223.406 186.916 223.273 187.004C223.14 187.092 223.027 187.206 222.939 187.339C222.852 187.472 222.793 187.621 222.765 187.778C222.738 187.935 222.742 188.096 222.779 188.251C222.816 188.406 222.884 188.552 222.979 188.68C223.074 188.807 223.194 188.914 223.331 188.994C224.153 189.548 225.117 189.851 226.107 189.867Z" fill="black"/>
<path d="M217.069 143.963C202.246 140.864 192.089 129.453 194.385 118.476C196.68 107.499 210.557 101.114 225.381 104.213C240.204 107.313 250.36 118.724 248.065 129.7C245.77 140.677 231.892 147.063 217.069 143.963Z" fill="black"/>
<path d="M171.852 144.051L186.546 147.869C190.546 148.908 194.794 148.315 198.357 146.222C201.92 144.128 204.505 140.706 205.545 136.707L208.643 124.782L178.868 117.046L171.852 144.051Z" fill="black"/>
<path d="M254.36 159.008C243.285 159.008 234.307 150.03 234.307 138.955C234.307 127.88 243.285 118.902 254.36 118.902C265.435 118.902 274.413 127.88 274.413 138.955C274.413 150.03 265.435 159.008 254.36 159.008Z" fill="black"/>
<path d="M199.671 165.984C199.944 165.984 200.208 165.89 200.419 165.716C200.629 165.543 200.773 165.301 200.824 165.033C200.875 164.765 200.832 164.487 200.7 164.248C200.569 164.009 200.358 163.823 200.104 163.723L178.177 154.938C178.033 154.871 177.876 154.835 177.717 154.831C177.558 154.826 177.4 154.854 177.252 154.913C177.104 154.972 176.97 155.061 176.858 155.173C176.745 155.285 176.657 155.42 176.598 155.567C176.539 155.715 176.511 155.873 176.515 156.032C176.519 156.191 176.555 156.348 176.622 156.492C176.689 156.637 176.784 156.766 176.903 156.872C177.021 156.979 177.16 157.06 177.31 157.111L199.237 165.896C199.375 165.951 199.522 165.981 199.671 165.984Z" fill="black"/>
<path d="M282.472 352.639L287.596 421.079L285.798 437.87H239.631L245.124 355.029L282.472 352.639Z" fill="white"/>
<path d="M238.377 439.042H286.852L288.768 421.097L283.549 351.403L244.023 353.928L238.377 439.042ZM284.744 436.699H240.884L246.225 356.13L281.365 353.881L286.419 421.062L284.744 436.699Z" fill="black"/>
<path d="M252.603 242.301C254.569 243.096 256.46 244.064 258.254 245.194C271.666 253.651 276.082 269.206 279.479 284.38C283.086 300.515 288.398 337.635 290.261 366.461C275.713 367.386 258.729 368.317 244.181 369.249L252.603 242.301Z" fill="black"/>
<path d="M265.575 299.83H406.023C406.333 299.83 406.631 299.707 406.851 299.487C407.07 299.267 407.194 298.969 407.194 298.659C407.194 298.348 407.07 298.05 406.851 297.83C406.631 297.611 406.333 297.487 406.023 297.487H265.575C265.265 297.487 264.967 297.611 264.747 297.83C264.527 298.05 264.404 298.348 264.404 298.659C264.404 298.969 264.527 299.267 264.747 299.487C264.967 299.707 265.265 299.83 265.575 299.83Z" fill="black"/>
<path d="M334.66 299.186H392.945C394.119 299.184 395.245 298.717 396.076 297.888C396.907 297.058 397.375 295.932 397.378 294.758V286.471C397.377 285.296 396.909 284.169 396.078 283.338C395.247 282.507 394.12 282.039 392.945 282.038H334.66C333.484 282.039 332.358 282.507 331.527 283.338C330.695 284.169 330.228 285.296 330.226 286.471V294.764C330.231 295.937 330.7 297.061 331.531 297.89C332.361 298.718 333.486 299.184 334.66 299.186ZM392.945 284.374C393.219 284.374 393.491 284.428 393.745 284.534C393.999 284.639 394.229 284.793 394.423 284.987C394.617 285.181 394.771 285.411 394.876 285.665C394.981 285.919 395.036 286.191 395.036 286.465V294.758C395.034 295.312 394.813 295.842 394.421 296.233C394.029 296.624 393.498 296.843 392.945 296.843H334.66C334.106 296.843 333.575 296.624 333.183 296.233C332.791 295.842 332.571 295.312 332.569 294.758V286.471C332.569 285.917 332.789 285.385 333.181 284.993C333.573 284.601 334.105 284.38 334.66 284.38L392.945 284.374Z" fill="black"/>
<path d="M334.666 267.461H392.945C394.746 267.461 396.207 268.922 396.207 270.724V279.011C396.207 280.812 394.746 282.273 392.945 282.273H334.666C332.864 282.273 331.403 280.812 331.403 279.011V270.724C331.403 268.922 332.864 267.461 334.666 267.461Z" fill="#FFBB45"/>
<path d="M319.356 298.893H327.655C328.829 298.892 329.954 298.425 330.784 297.595C331.614 296.765 332.081 295.64 332.083 294.466V246.202C332.081 245.028 331.614 243.902 330.784 243.072C329.954 242.242 328.829 241.775 327.655 241.774H319.356C318.183 241.775 317.057 242.242 316.227 243.072C315.397 243.902 314.93 245.028 314.929 246.202V294.466C314.93 295.64 315.397 296.765 316.227 297.595C317.057 298.425 318.183 298.892 319.356 298.893ZM327.655 244.134C328.208 244.136 328.737 244.356 329.128 244.747C329.518 245.137 329.739 245.667 329.74 246.219V294.483C329.739 295.036 329.518 295.565 329.128 295.956C328.737 296.347 328.208 296.567 327.655 296.568H319.356C318.804 296.567 318.274 296.347 317.884 295.956C317.493 295.565 317.273 295.036 317.271 294.483V246.202C317.273 245.649 317.493 245.12 317.884 244.729C318.274 244.338 318.804 244.118 319.356 244.117L327.655 244.134Z" fill="black"/>
<path d="M303.508 242.945H311.796C313.597 242.945 315.058 244.405 315.058 246.207V294.465C315.058 296.267 313.597 297.728 311.796 297.728H303.508C301.707 297.728 300.246 296.267 300.246 294.465V246.207C300.246 244.405 301.707 242.945 303.508 242.945Z" fill="#6DAFA7"/>
<path d="M180.672 249.704C188.444 249.629 196.036 247.351 202.564 243.133C202.811 242.958 202.981 242.694 203.037 242.397C203.094 242.099 203.034 241.792 202.869 241.538C202.703 241.284 202.447 241.105 202.152 241.036C201.857 240.968 201.547 241.016 201.287 241.171C197.65 243.513 187.817 248.855 175.384 246.963C158.241 244.363 149.749 230.441 148.221 227.677C148.15 227.536 148.052 227.411 147.931 227.309C147.811 227.207 147.671 227.13 147.521 227.083C147.37 227.036 147.212 227.02 147.055 227.036C146.898 227.052 146.746 227.1 146.608 227.176C146.47 227.252 146.348 227.355 146.251 227.48C146.154 227.604 146.083 227.746 146.042 227.899C146.001 228.051 145.991 228.21 146.014 228.366C146.036 228.522 146.089 228.672 146.171 228.807C147.793 231.736 156.806 246.512 175.032 249.276C176.898 249.562 178.784 249.705 180.672 249.704Z" fill="white"/>
<path d="M223.217 256.664L250.057 263.73C253.598 264.662 255.713 268.288 254.781 271.829L240.39 326.489C239.458 330.029 235.832 332.144 232.291 331.212L205.451 324.146C201.91 323.213 199.795 319.587 200.728 316.046L215.118 261.387C216.051 257.846 219.677 255.731 223.217 256.664Z" fill="#F8AB5D"/>
<path d="M223.747 266.204L224.193 266.303C225.635 266.627 226.542 268.058 226.219 269.501L223.597 281.193C223.273 282.635 221.842 283.542 220.4 283.219L219.954 283.119C218.512 282.795 217.605 281.364 217.928 279.922L220.55 268.229C220.874 266.787 222.305 265.88 223.747 266.204Z" fill="white"/>
<path d="M210.084 181.269C215.94 181.269 221.323 176.712 222.687 170.194C224.216 162.82 220.04 155.699 213.352 154.293C206.663 152.888 199.981 157.754 198.441 165.128C196.9 172.501 201.082 179.635 207.764 181.028C208.527 181.19 209.304 181.271 210.084 181.269ZM211.05 156.396C211.666 156.394 212.28 156.457 212.883 156.583C218.3 157.719 221.668 163.611 220.391 169.714C219.115 175.816 213.674 179.869 208.256 178.739C202.839 177.608 199.472 171.711 200.748 165.608C201.884 160.191 206.277 156.396 211.038 156.396H211.05Z" fill="black"/>
<path d="M101.473 329.406L245.352 346.068L247.062 325.734L105.661 309.031L101.473 329.406Z" fill="#FCE684"/>
<path d="M91.2181 374.11L243.853 391.37L245.323 369.384L96.0264 351.966L91.2181 374.11Z" fill="#FCE684"/>
<path d="M196.075 303.813C196.075 303.813 215.249 305.511 225.253 288.334C226.192 286.713 227.47 285.314 229.001 284.234C231.63 282.384 235.566 281.224 239.631 285.868C239.631 285.868 246.237 277.124 251.115 282.12C251.115 282.12 254.594 286.53 249.944 293.962C249.944 293.962 257.376 297.048 250.014 310.044C248.884 312.041 247.783 314.056 246.805 316.129C242.846 324.481 228.767 348.194 195.208 351.638C193.02 351.872 190.946 352.728 189.229 354.104L109.672 417.267C102.343 423.14 93.7829 427.282 84.6296 429.384C71.5342 432.313 47.9613 430.778 35.762 413.771C28.599 403.642 25.5052 391.192 27.0943 378.889L30.7898 348.844L97.0514 359.702L163.94 317.763C166.173 316.357 167.992 314.382 169.211 312.041C173.094 304.633 182.874 287.444 193.726 279.965C194.101 279.707 194.47 279.455 194.833 279.186C197.176 277.429 200.104 275.976 203.062 275.93C207.747 275.859 211.718 280.187 208.825 284.58C207.554 286.512 205.51 288.094 203.618 289.394C201.657 290.728 199.988 292.449 198.715 294.451C197.442 296.453 196.592 298.694 196.216 301.037C196.076 301.955 196.029 302.885 196.075 303.813Z" fill="white"/>
<path d="M216.877 316.018C217.056 316.017 217.233 315.975 217.393 315.895C220.51 314.377 223.43 312.485 226.09 310.261C235.103 302.7 239.045 292.972 240.767 286.143C240.844 285.842 240.799 285.522 240.641 285.254C240.483 284.986 240.225 284.792 239.923 284.714C239.622 284.637 239.302 284.682 239.034 284.84C238.766 284.998 238.572 285.256 238.494 285.558C236.86 292.053 233.118 301.294 224.585 308.457C222.078 310.558 219.325 312.346 216.386 313.781C216.147 313.896 215.954 314.09 215.839 314.33C215.725 314.569 215.695 314.84 215.755 315.099C215.815 315.358 215.961 315.589 216.169 315.753C216.377 315.918 216.635 316.007 216.901 316.006L216.877 316.018Z" fill="black"/>
<path d="M224.397 325.916C224.579 325.918 224.758 325.876 224.919 325.793C226.49 325.086 227.954 324.159 229.264 323.04C229.715 322.677 230.283 322.226 231.021 321.629C239.806 314.829 246.705 305.406 251.016 294.378C251.08 294.233 251.114 294.077 251.116 293.919C251.118 293.761 251.088 293.604 251.028 293.458C250.968 293.312 250.879 293.179 250.767 293.068C250.654 292.958 250.52 292.871 250.373 292.813C250.226 292.755 250.068 292.728 249.91 292.732C249.752 292.737 249.597 292.774 249.453 292.84C249.31 292.906 249.181 293.001 249.075 293.118C248.969 293.236 248.888 293.373 248.837 293.523C244.673 304.159 238.02 313.236 229.586 319.778C228.807 320.364 228.233 320.844 227.777 321.213C226.596 322.23 225.272 323.069 223.847 323.702C223.613 323.822 223.427 324.016 223.317 324.254C223.207 324.492 223.181 324.761 223.241 325.016C223.302 325.271 223.447 325.498 223.652 325.662C223.858 325.825 224.112 325.914 224.374 325.916H224.397Z" fill="black"/>
<path d="M17.7705 348.036L95.6048 361.061L124.185 215.056L103.898 215.343C91.3113 215.451 79.0906 219.589 69.0275 227.15C63.7829 231.111 59.3221 236.014 55.8736 241.61C53.3973 245.674 51.4879 250.059 50.1985 254.64L17.7705 348.036Z" fill="black"/>
<path d="M78.6088 370.725C78.8136 370.73 79.016 370.679 79.1944 370.578L96.6178 360.962C96.8768 360.805 97.0652 360.555 97.1435 360.262C97.2218 359.97 97.1839 359.659 97.0377 359.394C96.8916 359.129 96.6486 358.931 96.3596 358.841C96.0706 358.751 95.7581 358.777 95.4875 358.912L78.0641 368.529C77.8354 368.655 77.6556 368.854 77.5532 369.095C77.4508 369.335 77.4318 369.603 77.4991 369.856C77.5664 370.108 77.7163 370.331 77.9248 370.488C78.1333 370.646 78.3885 370.729 78.6498 370.725H78.6088Z" fill="black"/>
<path d="M265.575 220.474H406.023C406.333 220.474 406.631 220.35 406.851 220.13C407.07 219.911 407.194 219.613 407.194 219.302C407.194 218.992 407.07 218.694 406.851 218.474C406.631 218.254 406.333 218.131 406.023 218.131H265.575C265.265 218.131 264.967 218.254 264.747 218.474C264.527 218.694 264.404 218.992 264.404 219.302C264.404 219.613 264.527 219.911 264.747 220.13C264.967 220.35 265.265 220.474 265.575 220.474Z" fill="black"/>
<path d="M308.756 217.609C297.264 217.609 287.947 208.293 287.947 196.801C287.947 185.308 297.264 175.992 308.756 175.992C320.248 175.992 329.564 185.308 329.564 196.801C329.564 208.293 320.248 217.609 308.756 217.609Z" fill="white"/>
<path d="M313.119 181.433C313.386 181.432 313.646 181.34 313.853 181.172C314.061 181.003 314.205 180.769 314.261 180.508C317.307 166.452 313.869 156.835 310.448 151.225C306.712 145.128 302.249 142.404 302.079 142.293C301.813 142.133 301.494 142.086 301.192 142.161C300.891 142.236 300.632 142.428 300.472 142.694C300.312 142.961 300.264 143.28 300.339 143.581C300.415 143.883 300.606 144.142 300.873 144.302C301.576 144.73 317.447 154.715 312 179.992C311.936 180.295 311.994 180.611 312.162 180.871C312.33 181.131 312.594 181.314 312.896 181.38C312.969 181.404 313.043 181.422 313.119 181.433Z" fill="black"/>
<path d="M286.805 143.986L291.848 142.891C291.889 142.616 291.942 142.305 292.006 142.065L287.602 139.594C286.771 139.034 286.181 138.183 285.949 137.208C285.717 136.234 285.861 135.208 286.351 134.335C286.841 133.461 287.641 132.804 288.594 132.493C289.546 132.183 290.58 132.242 291.491 132.66L296.123 135.26C296.199 135.301 296.258 135.354 296.328 135.4C296.551 135.236 296.779 135.078 297.013 134.932L295.994 130.217C295.771 129.184 295.968 128.105 296.541 127.217C297.114 126.329 298.016 125.705 299.049 125.482C300.081 125.259 301.161 125.456 302.049 126.029C302.937 126.601 303.561 127.504 303.784 128.536L304.803 133.222C305.197 133.274 305.588 133.349 305.974 133.444C306.058 133.287 306.15 133.135 306.249 132.987L309.447 128.759C310.083 127.916 311.028 127.359 312.074 127.213C313.12 127.066 314.182 127.341 315.025 127.977C315.869 128.613 316.425 129.558 316.572 130.604C316.718 131.651 316.443 132.712 315.807 133.556L312.609 137.802C312.609 137.837 312.551 137.86 312.522 137.895C312.633 138.048 312.727 138.206 312.832 138.358L317.711 137.304C318.743 137.081 319.822 137.277 320.711 137.849C321.599 138.421 322.224 139.323 322.449 140.355C322.56 140.867 322.569 141.395 322.476 141.91C322.382 142.425 322.188 142.917 321.905 143.357C321.622 143.797 321.254 144.176 320.824 144.474C320.394 144.772 319.909 144.983 319.397 145.093L314.56 146.141C314.56 146.259 314.53 146.376 314.513 146.493H314.554L319.192 149.093C320.073 149.631 320.712 150.49 320.973 151.489C321.234 152.487 321.097 153.548 320.592 154.449C320.087 155.349 319.252 156.018 318.264 156.316C317.276 156.614 316.21 156.517 315.292 156.045L310.653 153.445C310.618 153.445 310.595 153.398 310.56 153.38C310.187 153.691 309.796 153.979 309.388 154.241L310.402 158.926C310.526 159.444 310.547 159.98 310.461 160.505C310.375 161.03 310.185 161.533 309.902 161.984C309.619 162.434 309.249 162.823 308.813 163.129C308.378 163.434 307.885 163.649 307.365 163.761C306.845 163.873 306.308 163.88 305.785 163.782C305.262 163.683 304.765 163.481 304.321 163.187C303.878 162.893 303.498 162.513 303.203 162.07C302.909 161.627 302.706 161.13 302.606 160.607L301.599 155.922C301.306 155.881 301.013 155.828 300.726 155.764L297.628 159.863C297.331 160.32 296.943 160.71 296.49 161.011C296.036 161.311 295.525 161.516 294.989 161.612C294.453 161.708 293.903 161.693 293.373 161.568C292.843 161.443 292.344 161.211 291.908 160.887C291.471 160.562 291.105 160.151 290.833 159.679C290.56 159.208 290.388 158.686 290.325 158.145C290.262 157.604 290.311 157.056 290.468 156.535C290.625 156.013 290.888 155.53 291.239 155.114L293.991 151.453C293.816 151.213 293.646 150.967 293.488 150.71L288.492 151.793C287.981 151.904 287.452 151.913 286.937 151.82C286.422 151.727 285.931 151.533 285.49 151.249C285.05 150.966 284.671 150.599 284.373 150.168C284.075 149.738 283.864 149.253 283.754 148.742C283.64 148.229 283.629 147.699 283.721 147.182C283.813 146.665 284.007 146.171 284.29 145.729C284.574 145.287 284.942 144.906 285.374 144.606C285.805 144.307 286.292 144.097 286.805 143.986Z" fill="#FFC1EB"/>
<path d="M286.805 143.986L291.848 142.891C291.889 142.616 291.942 142.305 292.006 142.065L287.602 139.594C286.771 139.034 286.181 138.183 285.949 137.208C285.717 136.234 285.861 135.208 286.351 134.335C286.841 133.461 287.641 132.804 288.594 132.493C289.546 132.183 290.58 132.242 291.491 132.66L296.123 135.26C296.199 135.301 296.258 135.354 296.328 135.4C296.551 135.236 296.779 135.078 297.013 134.932L295.994 130.217C295.771 129.184 295.968 128.105 296.541 127.217C297.114 126.329 298.016 125.705 299.049 125.482C300.081 125.259 301.161 125.456 302.049 126.029C302.937 126.601 303.561 127.504 303.784 128.536L304.803 133.222C305.197 133.274 305.588 133.349 305.974 133.444C306.058 133.287 306.15 133.135 306.249 132.987L309.447 128.759C310.083 127.916 311.028 127.359 312.074 127.213C313.12 127.066 314.182 127.341 315.025 127.977C315.869 128.613 316.425 129.558 316.572 130.604C316.718 131.651 316.443 132.712 315.807 133.556L312.609 137.802C312.609 137.837 312.551 137.86 312.522 137.895C312.633 138.048 312.727 138.206 312.832 138.358L317.711 137.304C318.743 137.081 319.822 137.277 320.711 137.849C321.599 138.421 322.224 139.323 322.449 140.355C322.56 140.867 322.569 141.395 322.476 141.91C322.382 142.425 322.188 142.917 321.905 143.357C321.622 143.797 321.254 144.176 320.824 144.474C320.394 144.772 319.909 144.983 319.397 145.093L314.56 146.141C314.56 146.259 314.53 146.376 314.513 146.493H314.554L319.192 149.093C320.073 149.631 320.712 150.49 320.973 151.489C321.234 152.487 321.097 153.548 320.592 154.449C320.087 155.349 319.252 156.018 318.264 156.316C317.276 156.614 316.21 156.517 315.292 156.045L310.653 153.445C310.618 153.445 310.595 153.398 310.56 153.38C310.187 153.691 309.796 153.979 309.388 154.241L310.402 158.926C310.526 159.444 310.547 159.98 310.461 160.505C310.375 161.03 310.185 161.533 309.902 161.984C309.619 162.434 309.249 162.823 308.813 163.129C308.378 163.434 307.885 163.649 307.365 163.761C306.845 163.873 306.308 163.88 305.785 163.782C305.262 163.683 304.765 163.481 304.321 163.187C303.878 162.893 303.498 162.513 303.203 162.07C302.909 161.627 302.706 161.13 302.606 160.607L301.599 155.922C301.306 155.881 301.013 155.828 300.726 155.764L297.628 159.863C297.331 160.32 296.943 160.71 296.49 161.011C296.036 161.311 295.525 161.516 294.989 161.612C294.453 161.708 293.903 161.693 293.373 161.568C292.843 161.443 292.344 161.211 291.908 160.887C291.471 160.562 291.105 160.151 290.833 159.679C290.56 159.208 290.388 158.686 290.325 158.145C290.262 157.604 290.311 157.056 290.468 156.535C290.625 156.013 290.888 155.53 291.239 155.114L293.991 151.453C293.816 151.213 293.646 150.967 293.488 150.71L288.492 151.793C287.981 151.904 287.452 151.913 286.937 151.82C286.422 151.727 285.931 151.533 285.49 151.249C285.05 150.966 284.671 150.599 284.373 150.168C284.075 149.738 283.864 149.253 283.754 148.742C283.64 148.229 283.629 147.699 283.721 147.182C283.813 146.665 284.007 146.171 284.29 145.729C284.574 145.287 284.942 144.906 285.374 144.606C285.805 144.307 286.292 144.097 286.805 143.986Z" fill="#FFC1EB"/>
<path d="M286.805 143.986L291.848 142.891C291.889 142.616 291.942 142.305 292.006 142.065L287.602 139.594C286.771 139.034 286.181 138.183 285.949 137.208C285.717 136.234 285.861 135.208 286.351 134.335C286.841 133.461 287.641 132.804 288.594 132.493C289.546 132.183 290.58 132.242 291.491 132.66L296.123 135.26C296.199 135.301 296.258 135.354 296.328 135.4C296.551 135.236 296.779 135.078 297.013 134.932L295.994 130.217C295.771 129.184 295.968 128.105 296.541 127.217C297.114 126.329 298.016 125.705 299.049 125.482C300.081 125.259 301.161 125.456 302.049 126.029C302.937 126.601 303.561 127.504 303.784 128.536L304.803 133.222C305.197 133.274 305.588 133.349 305.974 133.444C306.058 133.287 306.15 133.135 306.249 132.987L309.447 128.759C310.083 127.916 311.028 127.359 312.074 127.213C313.12 127.066 314.182 127.341 315.025 127.977C315.869 128.613 316.425 129.558 316.572 130.604C316.718 131.651 316.443 132.712 315.807 133.556L312.609 137.802C312.609 137.837 312.551 137.86 312.522 137.895C312.633 138.048 312.727 138.206 312.832 138.358L317.711 137.304C318.743 137.081 319.822 137.277 320.711 137.849C321.599 138.421 322.224 139.323 322.449 140.355C322.56 140.867 322.569 141.395 322.476 141.91C322.382 142.425 322.188 142.917 321.905 143.357C321.622 143.797 321.254 144.176 320.824 144.474C320.394 144.772 319.909 144.983 319.397 145.093L314.56 146.141C314.56 146.259 314.53 146.376 314.513 146.493H314.554L319.192 149.093C320.073 149.631 320.712 150.49 320.973 151.489C321.234 152.487 321.097 153.548 320.592 154.449C320.087 155.349 319.252 156.018 318.264 156.316C317.276 156.614 316.21 156.517 315.292 156.045L310.653 153.445C310.618 153.445 310.595 153.398 310.56 153.38C310.187 153.691 309.796 153.979 309.388 154.241L310.402 158.926C310.526 159.444 310.547 159.98 310.461 160.505C310.375 161.03 310.185 161.533 309.902 161.984C309.619 162.434 309.249 162.823 308.813 163.129C308.378 163.434 307.885 163.649 307.365 163.761C306.845 163.873 306.308 163.88 305.785 163.782C305.262 163.683 304.765 163.481 304.321 163.187C303.878 162.893 303.498 162.513 303.203 162.07C302.909 161.627 302.706 161.13 302.606 160.607L301.599 155.922C301.306 155.881 301.013 155.828 300.726 155.764L297.628 159.863C297.331 160.32 296.943 160.71 296.49 161.011C296.036 161.311 295.525 161.516 294.989 161.612C294.453 161.708 293.903 161.693 293.373 161.568C292.843 161.443 292.344 161.211 291.908 160.887C291.471 160.562 291.105 160.151 290.833 159.679C290.56 159.208 290.388 158.686 290.325 158.145C290.262 157.604 290.311 157.056 290.468 156.535C290.625 156.013 290.888 155.53 291.239 155.114L293.991 151.453C293.816 151.213 293.646 150.967 293.488 150.71L288.492 151.793C287.981 151.904 287.452 151.913 286.937 151.82C286.422 151.727 285.931 151.533 285.49 151.249C285.05 150.966 284.671 150.599 284.373 150.168C284.075 149.738 283.864 149.253 283.754 148.742C283.64 148.229 283.629 147.699 283.721 147.182C283.813 146.665 284.007 146.171 284.29 145.729C284.574 145.287 284.942 144.906 285.374 144.606C285.805 144.307 286.292 144.097 286.805 143.986Z" fill="#FFC1EB"/>
<path d="M286.805 143.986L291.848 142.891C291.889 142.616 291.942 142.305 292.006 142.065L287.602 139.594C286.771 139.034 286.181 138.183 285.949 137.208C285.717 136.234 285.861 135.208 286.351 134.335C286.841 133.461 287.641 132.804 288.594 132.493C289.546 132.183 290.58 132.242 291.491 132.66L296.123 135.26C296.199 135.301 296.258 135.354 296.328 135.4C296.551 135.236 296.779 135.078 297.013 134.932L295.994 130.217C295.771 129.184 295.968 128.105 296.541 127.217C297.114 126.329 298.016 125.705 299.049 125.482C300.081 125.259 301.161 125.456 302.049 126.029C302.937 126.601 303.561 127.504 303.784 128.536L304.803 133.222C305.197 133.274 305.588 133.349 305.974 133.444C306.058 133.287 306.15 133.135 306.249 132.987L309.447 128.759C310.083 127.916 311.028 127.359 312.074 127.213C313.12 127.066 314.182 127.341 315.025 127.977C315.869 128.613 316.425 129.558 316.572 130.604C316.718 131.651 316.443 132.712 315.807 133.556L312.609 137.802C312.609 137.837 312.551 137.86 312.522 137.895C312.633 138.048 312.727 138.206 312.832 138.358L317.711 137.304C318.743 137.081 319.822 137.277 320.711 137.849C321.599 138.421 322.224 139.323 322.449 140.355C322.56 140.867 322.569 141.395 322.476 141.91C322.382 142.425 322.188 142.917 321.905 143.357C321.622 143.797 321.254 144.176 320.824 144.474C320.394 144.772 319.909 144.983 319.397 145.093L314.56 146.141C314.56 146.259 314.53 146.376 314.513 146.493H314.554L319.192 149.093C320.073 149.631 320.712 150.49 320.973 151.489C321.234 152.487 321.097 153.548 320.592 154.449C320.087 155.349 319.252 156.018 318.264 156.316C317.276 156.614 316.21 156.517 315.292 156.045L310.653 153.445C310.618 153.445 310.595 153.398 310.56 153.38C310.187 153.691 309.796 153.979 309.388 154.241L310.402 158.926C310.526 159.444 310.547 159.98 310.461 160.505C310.375 161.03 310.185 161.533 309.902 161.984C309.619 162.434 309.249 162.823 308.813 163.129C308.378 163.434 307.885 163.649 307.365 163.761C306.845 163.873 306.308 163.88 305.785 163.782C305.262 163.683 304.765 163.481 304.321 163.187C303.878 162.893 303.498 162.513 303.203 162.07C302.909 161.627 302.706 161.13 302.606 160.607L301.599 155.922C301.306 155.881 301.013 155.828 300.726 155.764L297.628 159.863C297.331 160.32 296.943 160.71 296.49 161.011C296.036 161.311 295.525 161.516 294.989 161.612C294.453 161.708 293.903 161.693 293.373 161.568C292.843 161.443 292.344 161.211 291.908 160.887C291.471 160.562 291.105 160.151 290.833 159.679C290.56 159.208 290.388 158.686 290.325 158.145C290.262 157.604 290.311 157.056 290.468 156.535C290.625 156.013 290.888 155.53 291.239 155.114L293.991 151.453C293.816 151.213 293.646 150.967 293.488 150.71L288.492 151.793C287.981 151.904 287.452 151.913 286.937 151.82C286.422 151.727 285.931 151.533 285.49 151.249C285.05 150.966 284.671 150.599 284.373 150.168C284.075 149.738 283.864 149.253 283.754 148.742C283.64 148.229 283.629 147.699 283.721 147.182C283.813 146.665 284.007 146.171 284.29 145.729C284.574 145.287 284.942 144.906 285.374 144.606C285.805 144.307 286.292 144.097 286.805 143.986Z" fill="#FFC1EB"/>
<path d="M286.805 143.986L291.848 142.891C291.889 142.616 291.942 142.305 292.006 142.065L287.602 139.594C286.771 139.034 286.181 138.183 285.949 137.208C285.717 136.234 285.861 135.208 286.351 134.335C286.841 133.461 287.641 132.804 288.594 132.493C289.546 132.183 290.58 132.242 291.491 132.66L296.123 135.26C296.199 135.301 296.258 135.354 296.328 135.4C296.551 135.236 296.779 135.078 297.013 134.932L295.994 130.217C295.771 129.184 295.968 128.105 296.541 127.217C297.114 126.329 298.016 125.705 299.049 125.482C300.081 125.259 301.161 125.456 302.049 126.029C302.937 126.601 303.561 127.504 303.784 128.536L304.803 133.222C305.197 133.274 305.588 133.349 305.974 133.444C306.058 133.287 306.15 133.135 306.249 132.987L309.447 128.759C310.083 127.916 311.028 127.359 312.074 127.213C313.12 127.066 314.182 127.341 315.025 127.977C315.869 128.613 316.425 129.558 316.572 130.604C316.718 131.651 316.443 132.712 315.807 133.556L312.609 137.802C312.609 137.837 312.551 137.86 312.522 137.895C312.633 138.048 312.727 138.206 312.832 138.358L317.711 137.304C318.743 137.081 319.822 137.277 320.711 137.849C321.599 138.421 322.224 139.323 322.449 140.355C322.56 140.867 322.569 141.395 322.476 141.91C322.382 142.425 322.188 142.917 321.905 143.357C321.622 143.797 321.254 144.176 320.824 144.474C320.394 144.772 319.909 144.983 319.397 145.093L314.56 146.141C314.56 146.259 314.53 146.376 314.513 146.493H314.554L319.192 149.093C320.073 149.631 320.712 150.49 320.973 151.489C321.234 152.487 321.097 153.548 320.592 154.449C320.087 155.349 319.252 156.018 318.264 156.316C317.276 156.614 316.21 156.517 315.292 156.045L310.653 153.445C310.618 153.445 310.595 153.398 310.56 153.38C310.187 153.691 309.796 153.979 309.388 154.241L310.402 158.926C310.526 159.444 310.547 159.98 310.461 160.505C310.375 161.03 310.185 161.533 309.902 161.984C309.619 162.434 309.249 162.823 308.813 163.129C308.378 163.434 307.885 163.649 307.365 163.761C306.845 163.873 306.308 163.88 305.785 163.782C305.262 163.683 304.765 163.481 304.321 163.187C303.878 162.893 303.498 162.513 303.203 162.07C302.909 161.627 302.706 161.13 302.606 160.607L301.599 155.922C301.306 155.881 301.013 155.828 300.726 155.764L297.628 159.863C297.331 160.32 296.943 160.71 296.49 161.011C296.036 161.311 295.525 161.516 294.989 161.612C294.453 161.708 293.903 161.693 293.373 161.568C292.843 161.443 292.344 161.211 291.908 160.887C291.471 160.562 291.105 160.151 290.833 159.679C290.56 159.208 290.388 158.686 290.325 158.145C290.262 157.604 290.311 157.056 290.468 156.535C290.625 156.013 290.888 155.53 291.239 155.114L293.991 151.453C293.816 151.213 293.646 150.967 293.488 150.71L288.492 151.793C287.981 151.904 287.452 151.913 286.937 151.82C286.422 151.727 285.931 151.533 285.49 151.249C285.05 150.966 284.671 150.599 284.373 150.168C284.075 149.738 283.864 149.253 283.754 148.742C283.64 148.229 283.629 147.699 283.721 147.182C283.813 146.665 284.007 146.171 284.29 145.729C284.574 145.287 284.942 144.906 285.374 144.606C285.805 144.307 286.292 144.097 286.805 143.986Z" fill="#FFC1EB"/>
<path d="M286.805 143.986L291.848 142.891C291.889 142.616 291.942 142.305 292.006 142.065L287.602 139.594C286.771 139.034 286.181 138.183 285.949 137.208C285.717 136.234 285.861 135.208 286.351 134.335C286.841 133.461 287.641 132.804 288.594 132.493C289.546 132.183 290.58 132.242 291.491 132.66L296.123 135.26C296.199 135.301 296.258 135.354 296.328 135.4C296.551 135.236 296.779 135.078 297.013 134.932L295.994 130.217C295.771 129.184 295.968 128.105 296.541 127.217C297.114 126.329 298.016 125.705 299.049 125.482C300.081 125.259 301.161 125.456 302.049 126.029C302.937 126.601 303.561 127.504 303.784 128.536L304.803 133.222C305.197 133.274 305.588 133.349 305.974 133.444C306.058 133.287 306.15 133.135 306.249 132.987L309.447 128.759C310.083 127.916 311.028 127.359 312.074 127.213C313.12 127.066 314.182 127.341 315.025 127.977C315.869 128.613 316.425 129.558 316.572 130.604C316.718 131.651 316.443 132.712 315.807 133.556L312.609 137.802C312.609 137.837 312.551 137.86 312.522 137.895C312.633 138.048 312.727 138.206 312.832 138.358L317.711 137.304C318.743 137.081 319.822 137.277 320.711 137.849C321.599 138.421 322.224 139.323 322.449 140.355C322.56 140.867 322.569 141.395 322.476 141.91C322.382 142.425 322.188 142.917 321.905 143.357C321.622 143.797 321.254 144.176 320.824 144.474C320.394 144.772 319.909 144.983 319.397 145.093L314.56 146.141C314.56 146.259 314.53 146.376 314.513 146.493H314.554L319.192 149.093C320.073 149.631 320.712 150.49 320.973 151.489C321.234 152.487 321.097 153.548 320.592 154.449C320.087 155.349 319.252 156.018 318.264 156.316C317.276 156.614 316.21 156.517 315.292 156.045L310.653 153.445C310.618 153.445 310.595 153.398 310.56 153.38C310.187 153.691 309.796 153.979 309.388 154.241L310.402 158.926C310.526 159.444 310.547 159.98 310.461 160.505C310.375 161.03 310.185 161.533 309.902 161.984C309.619 162.434 309.249 162.823 308.813 163.129C308.378 163.434 307.885 163.649 307.365 163.761C306.845 163.873 306.308 163.88 305.785 163.782C305.262 163.683 304.765 163.481 304.321 163.187C303.878 162.893 303.498 162.513 303.203 162.07C302.909 161.627 302.706 161.13 302.606 160.607L301.599 155.922C301.306 155.881 301.013 155.828 300.726 155.764L297.628 159.863C297.331 160.32 296.943 160.71 296.49 161.011C296.036 161.311 295.525 161.516 294.989 161.612C294.453 161.708 293.903 161.693 293.373 161.568C292.843 161.443 292.344 161.211 291.908 160.887C291.471 160.562 291.105 160.151 290.833 159.679C290.56 159.208 290.388 158.686 290.325 158.145C290.262 157.604 290.311 157.056 290.468 156.535C290.625 156.013 290.888 155.53 291.239 155.114L293.991 151.453C293.816 151.213 293.646 150.967 293.488 150.71L288.492 151.793C287.981 151.904 287.452 151.913 286.937 151.82C286.422 151.727 285.931 151.533 285.49 151.249C285.05 150.966 284.671 150.599 284.373 150.168C284.075 149.738 283.864 149.253 283.754 148.742C283.64 148.229 283.629 147.699 283.721 147.182C283.813 146.665 284.007 146.171 284.29 145.729C284.574 145.287 284.942 144.906 285.374 144.606C285.805 144.307 286.292 144.097 286.805 143.986Z" fill="#FFC1EB"/>
<path d="M286.805 143.986L291.848 142.891C291.889 142.616 291.942 142.305 292.006 142.065L287.602 139.594C286.771 139.034 286.181 138.183 285.949 137.208C285.717 136.234 285.861 135.208 286.351 134.335C286.841 133.461 287.641 132.804 288.594 132.493C289.546 132.183 290.58 132.242 291.491 132.66L296.123 135.26C296.199 135.301 296.258 135.354 296.328 135.4C296.551 135.236 296.779 135.078 297.013 134.932L295.994 130.217C295.771 129.184 295.968 128.105 296.541 127.217C297.114 126.329 298.016 125.705 299.049 125.482C300.081 125.259 301.161 125.456 302.049 126.029C302.937 126.601 303.561 127.504 303.784 128.536L304.803 133.222C305.197 133.274 305.588 133.349 305.974 133.444C306.058 133.287 306.15 133.135 306.249 132.987L309.447 128.759C310.083 127.916 311.028 127.359 312.074 127.213C313.12 127.066 314.182 127.341 315.025 127.977C315.869 128.613 316.425 129.558 316.572 130.604C316.718 131.651 316.443 132.712 315.807 133.556L312.609 137.802C312.609 137.837 312.551 137.86 312.522 137.895C312.633 138.048 312.727 138.206 312.832 138.358L317.711 137.304C318.743 137.081 319.822 137.277 320.711 137.849C321.599 138.421 322.224 139.323 322.449 140.355C322.56 140.867 322.569 141.395 322.476 141.91C322.382 142.425 322.188 142.917 321.905 143.357C321.622 143.797 321.254 144.176 320.824 144.474C320.394 144.772 319.909 144.983 319.397 145.093L314.56 146.141C314.56 146.259 314.53 146.376 314.513 146.493H314.554L319.192 149.093C320.073 149.631 320.712 150.49 320.973 151.489C321.234 152.487 321.097 153.548 320.592 154.449C320.087 155.349 319.252 156.018 318.264 156.316C317.276 156.614 316.21 156.517 315.292 156.045L310.653 153.445C310.618 153.445 310.595 153.398 310.56 153.38C310.187 153.691 309.796 153.979 309.388 154.241L310.402 158.926C310.526 159.444 310.547 159.98 310.461 160.505C310.375 161.03 310.185 161.533 309.902 161.984C309.619 162.434 309.249 162.823 308.813 163.129C308.378 163.434 307.885 163.649 307.365 163.761C306.845 163.873 306.308 163.88 305.785 163.782C305.262 163.683 304.765 163.481 304.321 163.187C303.878 162.893 303.498 162.513 303.203 162.07C302.909 161.627 302.706 161.13 302.606 160.607L301.599 155.922C301.306 155.881 301.013 155.828 300.726 155.764L297.628 159.863C297.331 160.32 296.943 160.71 296.49 161.011C296.036 161.311 295.525 161.516 294.989 161.612C294.453 161.708 293.903 161.693 293.373 161.568C292.843 161.443 292.344 161.211 291.908 160.887C291.471 160.562 291.105 160.151 290.833 159.679C290.56 159.208 290.388 158.686 290.325 158.145C290.262 157.604 290.311 157.056 290.468 156.535C290.625 156.013 290.888 155.53 291.239 155.114L293.991 151.453C293.816 151.213 293.646 150.967 293.488 150.71L288.492 151.793C287.981 151.904 287.452 151.913 286.937 151.82C286.422 151.727 285.931 151.533 285.49 151.249C285.05 150.966 284.671 150.599 284.373 150.168C284.075 149.738 283.864 149.253 283.754 148.742C283.64 148.229 283.629 147.699 283.721 147.182C283.813 146.665 284.007 146.171 284.29 145.729C284.574 145.287 284.942 144.906 285.374 144.606C285.805 144.307 286.292 144.097 286.805 143.986Z" fill="#F8AB5D"/>
<path d="M303.098 149.86C300.184 149.86 297.822 147.498 297.822 144.583C297.822 141.669 300.184 139.307 303.098 139.307C306.013 139.307 308.375 141.669 308.375 144.583C308.375 147.498 306.013 149.86 303.098 149.86Z" fill="white"/>
<path d="M312.061 186.074C309.271 185.599 307.324 183.367 307.713 181.091C308.101 178.814 310.678 177.354 313.467 177.83C316.257 178.306 318.204 180.537 317.816 182.814C317.428 185.091 314.851 186.55 312.061 186.074Z" fill="black"/>
<path d="M319.058 214.072C319.311 214.071 319.557 213.987 319.759 213.834C319.961 213.682 320.108 213.467 320.178 213.224C320.248 212.98 320.237 212.721 320.147 212.484C320.057 212.247 319.893 212.046 319.679 211.911C316.718 210.052 313.34 208.961 309.851 208.736C305.532 208.494 301.242 209.575 297.552 211.835C297.293 211.999 297.108 212.26 297.039 212.559C296.969 212.859 297.02 213.174 297.181 213.436C297.342 213.698 297.599 213.886 297.898 213.961C298.196 214.035 298.512 213.988 298.776 213.832C302.057 211.825 305.871 210.865 309.711 211.079C312.807 211.278 315.804 212.246 318.431 213.896C318.62 214.011 318.837 214.072 319.058 214.072Z" fill="black"/>
<defs>
<linearGradient id="paint0_linear_554_1499" x1="406.95" y1="221.62" x2="0.000152588" y2="221.62" gradientUnits="userSpaceOnUse">
<stop stop-color="#6DC8C2"/>
<stop offset="1" stop-color="#F9F586"/>
</linearGradient>
</defs>
</svg>
