<svg width="370" height="585" viewBox="0 0 370 585" fill="none" xmlns="http://www.w3.org/2000/svg">
<g filter="url(#filter0_d_581_1914)">
<path d="M227.01 526.371L77.3721 495.504C60.5965 492.149 48.8537 472.018 50.5312 450.545L78.3788 99.601C80.0563 78.1283 95.1542 57.9976 112.601 54.6425L267.271 23.7755C290.757 19.0783 308.539 36.1894 306.526 62.3593L272.975 488.123C270.291 513.957 249.489 531.068 227.01 526.371Z" fill="#63737A"/>
<path d="M217.616 526.371L67.9776 495.504C51.202 492.149 39.4591 472.018 41.1367 450.545L68.984 99.601C70.6616 78.1283 85.7596 57.9976 103.206 54.6425L257.877 23.7755C281.363 19.0783 299.145 36.1894 297.131 62.3593L263.58 488.123C260.896 513.957 240.095 531.068 217.616 526.371Z" fill="#EAF9F3"/>
<path d="M172.321 79.4701L143.467 84.1673C140.783 84.5028 138.77 82.1542 138.77 78.7991C139.106 75.444 141.454 72.4244 144.474 71.7534L173.328 66.7207C176.347 66.0497 178.361 68.7338 178.361 72.0889C177.689 75.444 175.341 78.7991 172.321 79.4701Z" fill="#63737A"/>
<path d="M201.51 74.4379L197.484 75.1089C194.464 75.7799 192.116 73.0959 192.451 69.7408C192.787 66.0501 195.471 63.0306 198.49 62.3595L202.516 61.6885C205.536 61.0175 207.885 63.7016 207.549 67.0567C207.549 70.4118 204.529 73.7669 201.51 74.4379Z" fill="#63737A"/>
<path d="M58.1584 382.738L78.4949 185.744" stroke="#63737A" stroke-width="1.8" stroke-miterlimit="10" stroke-linecap="round" stroke-linejoin="round"/>
<path d="M52.0001 369.02L249.819 378.388" stroke="#63737A" stroke-width="1.8" stroke-miterlimit="10" stroke-linecap="round" stroke-linejoin="round"/>
<path opacity="0.3" d="M57.0198 330.218L245.849 328.261" stroke="#63737A" stroke-width="1.8" stroke-miterlimit="10" stroke-linecap="round" stroke-linejoin="round"/>
<path opacity="0.3" d="M62.0804 280.282L250.909 278.325" stroke="#63737A" stroke-width="1.8" stroke-miterlimit="10" stroke-linecap="round" stroke-linejoin="round"/>
<path opacity="0.3" d="M67.0003 225.052L255.829 223.095" stroke="#63737A" stroke-width="1.8" stroke-miterlimit="10" stroke-linecap="round" stroke-linejoin="round"/>
<path d="M142.1 442.871L69.4682 434.77C61.5627 433.757 56.1277 427.682 57.1159 420.931C58.1041 414.18 64.5275 409.117 72.433 410.129L145.065 416.88C153.464 417.555 159.888 424.306 158.9 431.395C158.405 438.821 150.5 443.884 142.1 442.871Z" fill="#F8AB5D"/>
<path d="M226.25 452.174L176.608 446.435C171.198 445.68 167.229 439.82 167.586 433.086C167.943 426.351 172.065 421.12 177.474 421.875L227.054 426.274C232.783 426.677 237.453 433.176 237.112 440.246C237.122 447.635 231.995 452.913 226.25 452.174Z" fill="#6DAFA7"/>
<path d="M82.5256 203.234L68.3564 349.943C67.9432 354.839 71.4709 358.423 76.0622 358.482L131.553 359.53C136.144 359.589 140.813 355.71 141.479 350.836L160.87 199.041C161.9 192.883 158.257 187.646 152.877 187.849L93.6864 192.015C88.0809 191.871 83.049 197.034 82.5256 203.234Z" fill="#F8AB5D"/>
<path d="M176.04 274.576L167.608 355.432C167.248 357.952 170.723 360.86 175.502 361.667L238.229 364.383C242.718 365.305 246.987 363.935 247.638 361.3L256.957 272.852C257.781 269.515 253.942 265.958 248.712 264.853L186.623 268.92C181.059 268.106 176.37 271.117 176.04 274.576Z" fill="#6DAFA7"/>
</g>
<path d="M318.853 157.36C319.841 154.803 318.603 152.005 316.046 151.016C313.489 150.028 310.691 151.267 309.702 153.823C308.714 156.38 309.952 159.179 312.509 160.167C315.066 161.155 317.865 159.917 318.853 157.36Z" fill="#6DAFA7"/>
<path d="M360.114 116.236C357.636 124.248 352.053 130.288 345.367 133.581C338.121 137.122 332.486 143.296 329.574 150.832L327.753 155.542C326.765 158.098 323.78 159.419 321.223 158.431L307.497 153.126C304.941 152.138 303.62 149.152 304.608 146.596L306.428 141.886C309.341 134.35 309.324 125.991 306.291 118.632C303.671 112.206 303.476 104.707 306.181 97.7093C312.11 82.3688 329.948 75.0339 345.007 82.0918C357.748 87.9444 364.269 102.684 360.114 116.236Z" fill="#FFE779"/>
<path d="M306.294 141.834L329.44 150.78" stroke="#22272E" stroke-width="1.8" stroke-miterlimit="10" stroke-linecap="round" stroke-linejoin="round"/>
<path d="M304.526 146.409L327.671 155.355" stroke="#22272E" stroke-width="1.8" stroke-miterlimit="10" stroke-linecap="round" stroke-linejoin="round"/>
<path d="M315.445 145.371L329.696 108.5C330.997 105.136 328.009 101.661 324.455 102.453C321.73 103.101 320.212 106.226 321.503 108.89L322.545 110.995" stroke="#22272E" stroke-width="1.8" stroke-miterlimit="10" stroke-linecap="round" stroke-linejoin="round"/>
<path d="M320.289 147.243L334.54 110.372C335.84 107.008 340.388 106.446 342.486 109.422C344.067 111.735 343.088 115.068 340.341 116.172L338.154 117.028" stroke="#22272E" stroke-width="1.8" stroke-miterlimit="10" stroke-linecap="round" stroke-linejoin="round"/>
<defs>
<filter id="filter0_d_581_1914" x="0.977295" y="0" width="345.704" height="584.146" filterUnits="userSpaceOnUse" color-interpolation-filters="sRGB">
<feFlood flood-opacity="0" result="BackgroundImageFix"/>
<feColorMatrix in="SourceAlpha" type="matrix" values="0 0 0 0 0 0 0 0 0 0 0 0 0 0 0 0 0 0 127 0" result="hardAlpha"/>
<feOffset dy="17"/>
<feGaussianBlur stdDeviation="20"/>
<feColorMatrix type="matrix" values="0 0 0 0 0.427451 0 0 0 0 0.686275 0 0 0 0 0.654902 0 0 0 0.17 0"/>
<feBlend mode="normal" in2="BackgroundImageFix" result="effect1_dropShadow_581_1914"/>
<feBlend mode="normal" in="SourceGraphic" in2="effect1_dropShadow_581_1914" result="shape"/>
</filter>
</defs>
</svg>
