<svg width="604" height="587" viewBox="0 0 604 587" fill="none" xmlns="http://www.w3.org/2000/svg">
<g filter="url(#filter0_d_644_1226)">
<path d="M479.777 392.286L81.5178 452.614C72.5629 454.028 64.5506 447.429 63.8436 438.475L40.0423 79.8056C39.3354 69.908 47.5833 61.6601 57.4809 62.367L456.447 87.8179C463.988 88.2892 470.115 94.1806 470.822 101.722L493.681 374.847C494.388 383.095 488.261 390.872 479.777 392.286Z" fill="#63737A"/>
<path d="M490.618 391.815L90.4732 452.378C81.5182 453.792 73.5059 447.194 72.799 438.239L48.762 77.9205C48.0551 68.023 56.303 59.5393 66.4363 60.2463L467.052 85.6972C474.593 86.1685 480.72 92.0599 481.427 99.8365L504.521 374.14C505.464 382.86 499.337 390.636 490.618 391.815Z" fill="#EAF9F3"/>
<path d="M229.746 268.331L117.102 274.458C113.568 274.694 110.504 271.866 110.268 268.331L103.67 173.126C103.434 169.355 106.498 166.056 110.268 166.056L222.912 166.763C226.447 166.763 229.275 169.355 229.51 172.89L236.109 261.261C236.345 265.032 233.517 268.095 229.746 268.331Z" fill="#6DAFA7"/>
<path d="M350.873 231.569L256.61 234.868C253.075 235.104 250.012 232.276 249.776 228.741L245.77 173.833C245.534 170.062 248.598 166.763 252.368 166.763L346.631 167.47C349.93 167.47 352.758 170.062 353.229 173.597L357.235 224.499C357.471 228.269 354.643 231.569 350.873 231.569Z" fill="#FFE779"/>
<path d="M457.625 228.034L378.209 230.862C374.674 231.097 371.611 228.269 371.375 224.735L367.369 175.011C367.133 171.241 370.197 167.941 373.967 167.941L453.383 168.413C456.683 168.413 459.511 171.005 459.982 174.54L463.752 220.964C464.224 224.499 461.396 227.798 457.625 228.034Z" fill="#F4C2C9"/>
<path d="M236.815 360.708L124.171 372.962C120.401 373.433 117.102 370.606 116.866 366.835L112.624 305.329C112.388 301.794 115.216 298.495 118.751 298.259L231.631 290.718C235.165 290.482 238.465 293.075 238.7 296.845L242.942 353.638C242.942 357.173 240.35 360.237 236.815 360.708Z" stroke="#63737A" stroke-width="1.8" stroke-miterlimit="10" stroke-linecap="round" stroke-linejoin="round"/>
<path d="M361.477 358.351L267.45 369.427C263.68 369.899 260.38 367.071 260.145 363.3L252.604 261.732C252.368 257.962 255.196 254.898 258.731 254.663L352.993 250.185C356.528 249.949 359.592 252.777 359.827 256.312L367.368 351.282C367.604 354.817 365.012 357.88 361.477 358.351Z" fill="#F4C2C9"/>
<path d="M341.918 267.859L274.285 271.866C272.635 271.866 271.457 273.279 271.692 274.929L274.756 316.876C274.992 318.525 276.17 319.704 277.819 319.468L345.453 313.577C347.102 313.341 348.281 312.163 348.045 310.513L344.981 270.452C344.746 269.038 343.332 267.859 341.918 267.859Z" fill="#6DAFA7"/>
<path d="M467.051 335.021L387.635 343.741C383.864 344.212 380.565 341.384 380.33 337.613L373.967 255.841C373.731 252.07 376.559 249.007 380.094 248.771L459.51 245.001C463.045 244.765 466.108 247.593 466.344 251.128L472.707 327.952C473.178 331.486 470.586 334.55 467.051 335.021Z" fill="#FFE779"/>
<path d="M179.315 321.825L180.729 339.263" stroke="#63737A" stroke-width="1.8" stroke-miterlimit="10" stroke-linecap="round" stroke-linejoin="round"/>
<path d="M171.774 331.251L188.27 329.837" stroke="#63737A" stroke-width="1.8" stroke-miterlimit="10" stroke-linecap="round" stroke-linejoin="round"/>
<path d="M292.195 341.148C291.724 336.435 288.189 332.665 283.947 333.136C279.705 333.607 276.406 337.849 276.877 342.798C277.348 347.747 281.119 351.282 285.361 350.81C289.367 350.103 292.43 345.861 292.195 341.148Z" fill="#22272E"/>
<path d="M305.862 339.734L349.93 335.257" stroke="#22272E" stroke-width="1.8" stroke-miterlimit="10" stroke-linecap="round" stroke-linejoin="round"/>
<path d="M403.896 270.923C403.425 266.445 400.361 263.146 396.591 263.146C392.82 263.382 390.228 267.152 390.464 271.63C390.935 276.107 393.999 279.642 397.769 279.406C401.775 279.171 404.368 275.4 403.896 270.923Z" fill="#6DAFA7"/>
<path d="M415.914 270.215L453.855 267.859" stroke="#22272E" stroke-width="1.8" stroke-miterlimit="10" stroke-linecap="round" stroke-linejoin="round"/>
<path d="M406.017 296.138C405.546 291.661 402.482 288.362 398.712 288.597C394.941 288.833 392.349 292.839 392.585 297.317C393.056 301.794 396.355 305.329 399.89 304.858C403.661 304.386 406.488 300.616 406.017 296.138Z" fill="#6DAFA7"/>
<path d="M417.799 295.195L455.975 292.132" stroke="#22272E" stroke-width="1.8" stroke-miterlimit="10" stroke-linecap="round" stroke-linejoin="round"/>
<path d="M408.138 321.353C407.666 316.876 404.603 313.577 400.832 313.812C397.062 314.048 394.47 318.054 394.705 322.531C395.177 327.009 398.476 330.308 402.011 330.072C405.781 329.601 408.373 325.831 408.138 321.353Z" fill="#6DAFA7"/>
<path d="M419.921 320.175L457.862 316.404" stroke="#22272E" stroke-width="1.8" stroke-miterlimit="10" stroke-linecap="round" stroke-linejoin="round"/>
<path d="M143.024 204.233L127.707 204.468C126.293 204.468 125.114 203.29 124.879 201.876L123.7 185.851C123.7 184.202 124.879 183.023 126.528 183.023H141.846C143.26 183.023 144.438 184.202 144.674 185.616L145.852 201.405C145.616 202.819 144.438 204.233 143.024 204.233Z" fill="#FFE779"/>
<path d="M159.521 183.023L212.543 182.788" stroke="#22272E" stroke-width="1.8" stroke-miterlimit="10" stroke-linecap="round" stroke-linejoin="round"/>
<path d="M160.463 196.691L213.486 196.22" stroke="#22272E" stroke-width="1.8" stroke-miterlimit="10" stroke-linecap="round" stroke-linejoin="round"/>
<path d="M397.297 200.461L385.279 200.697C384.572 200.697 383.865 199.99 383.629 199.283L382.451 183.966C382.451 183.023 383.158 182.316 384.1 182.316H396.119C396.826 182.316 397.533 183.023 397.768 183.73L398.947 198.812C398.947 199.519 398.24 200.461 397.297 200.461Z" fill="#22272E"/>
<path d="M408.609 182.081H447.964" stroke="#22272E" stroke-width="1.8" stroke-miterlimit="10" stroke-linecap="round" stroke-linejoin="round"/>
<path d="M409.787 194.099L448.906 193.628" stroke="#22272E" stroke-width="1.8" stroke-miterlimit="10" stroke-linecap="round" stroke-linejoin="round"/>
<path d="M384.807 213.658L450.32 212.009" stroke="#22272E" stroke-width="1.8" stroke-miterlimit="10" stroke-linecap="round" stroke-linejoin="round"/>
<path d="M145.617 240.759L130.299 241.23C128.885 241.23 127.471 240.052 127.471 238.638L126.293 222.614C126.293 220.964 127.471 219.786 128.885 219.786L144.203 219.314C145.617 219.314 146.795 220.493 147.031 221.907L148.209 237.696C148.209 239.345 147.031 240.759 145.617 240.759Z" fill="#FFE779"/>
<path d="M162.113 219.079L215.136 217.665" stroke="#22272E" stroke-width="1.8" stroke-miterlimit="10" stroke-linecap="round" stroke-linejoin="round"/>
<path d="M163.056 232.983L216.078 231.333" stroke="#22272E" stroke-width="1.8" stroke-miterlimit="10" stroke-linecap="round" stroke-linejoin="round"/>
<path d="M184.264 126.702L104.848 124.345C102.256 124.345 100.135 122.224 99.8992 119.632L98.9566 107.142C98.7209 104.079 101.313 101.486 104.141 101.722L183.557 105.021C186.149 105.021 188.27 107.142 188.506 109.734L189.449 121.281C189.684 124.109 187.328 126.702 184.264 126.702Z" fill="#6DAFA7"/>
<path d="M264.623 182.552L339.561 182.316" stroke="#22272E" stroke-width="1.8" stroke-miterlimit="10" stroke-linecap="round" stroke-linejoin="round"/>
<path d="M265.565 195.748L340.504 194.806" stroke="#22272E" stroke-width="1.8" stroke-miterlimit="10" stroke-linecap="round" stroke-linejoin="round"/>
<path d="M266.979 216.487L307.276 215.544" stroke="#22272E" stroke-width="1.8" stroke-miterlimit="10" stroke-linecap="round" stroke-linejoin="round"/>
<path d="M455.269 125.523C455.033 121.988 452.441 118.925 449.377 118.689C446.55 118.453 444.193 121.517 444.664 125.052C444.9 128.822 447.492 131.886 450.556 131.886C453.384 132.121 455.505 129.058 455.269 125.523Z" fill="#63737A"/>
<path d="M434.296 124.816C434.06 121.046 431.232 117.982 428.404 117.982C425.341 117.746 423.22 120.81 423.455 124.58C423.691 128.351 426.519 131.414 429.582 131.414C432.41 131.414 434.531 128.351 434.296 124.816Z" fill="#63737A"/>
<path d="M412.615 123.873C412.379 120.103 409.551 117.039 406.488 116.804C403.424 116.568 401.068 119.632 401.303 123.402C401.539 127.173 404.367 130.236 407.43 130.472C410.73 130.707 412.85 127.644 412.615 123.873Z" fill="#63737A"/>
<path d="M550.945 156.394L446.313 154.509C442.071 154.509 438.537 151.21 438.301 146.968L428.875 31.732C428.639 27.7258 431.938 24.6623 435.709 24.898L540.811 35.9738C544.818 36.4451 547.881 39.5087 548.117 43.5148L557.307 149.324C557.543 153.331 554.715 156.394 550.945 156.394Z" fill="#F8AB5D"/>
<path d="M556.6 154.509L451.969 152.624C447.727 152.624 444.192 149.325 443.956 145.083L434.53 29.8468C434.295 25.8406 437.594 22.7771 441.364 23.0127L546.467 34.0886C550.473 34.5599 553.537 37.6234 553.772 41.6296L562.963 147.439C563.199 151.445 560.135 154.509 556.6 154.509Z" fill="#FFE779"/>
<path d="M480.248 44.4575L535.627 49.642" stroke="#63737A" stroke-width="1.8" stroke-miterlimit="10" stroke-linecap="round" stroke-linejoin="round"/>
<path d="M481.19 55.769L536.57 60.4822" stroke="#63737A" stroke-width="1.8" stroke-miterlimit="10" stroke-linecap="round" stroke-linejoin="round"/>
<path d="M483.311 81.6914L538.926 85.4619" stroke="#63737A" stroke-width="1.8" stroke-miterlimit="10" stroke-linecap="round" stroke-linejoin="round"/>
<path d="M484.254 92.7671L539.633 96.0663" stroke="#63737A" stroke-width="1.8" stroke-miterlimit="10" stroke-linecap="round" stroke-linejoin="round"/>
<path d="M486.611 118.925L541.991 121.281" stroke="#63737A" stroke-width="1.8" stroke-miterlimit="10" stroke-linecap="round" stroke-linejoin="round"/>
<path d="M487.554 130L542.933 131.886" stroke="#63737A" stroke-width="1.8" stroke-miterlimit="10" stroke-linecap="round" stroke-linejoin="round"/>
<path d="M461.16 50.8203L463.988 54.3552L467.994 48.9351" stroke="#6DAFA7" stroke-width="1.8" stroke-miterlimit="10" stroke-linecap="round" stroke-linejoin="round"/>
<path d="M464.223 88.5252L467.051 91.8244L471.293 86.4043" stroke="#6DAFA7" stroke-width="1.8" stroke-miterlimit="10" stroke-linecap="round" stroke-linejoin="round"/>
<path d="M467.287 125.523L470.351 128.822L474.357 123.167" stroke="#6DAFA7" stroke-width="1.8" stroke-miterlimit="10" stroke-linecap="round" stroke-linejoin="round"/>
</g>
<g filter="url(#filter1_d_644_1226)">
<path d="M498.723 529.625L329.153 519.511C325.064 519.296 322.267 515.208 323.558 511.334L370.9 360.916C372.191 357.043 375.634 354.245 379.723 353.815L556.609 340.903C561.128 340.473 564.356 344.777 563.065 349.081L508.837 522.524C507.546 527.043 503.242 530.056 498.723 529.625Z" fill="#FFE779"/>
<path d="M492.483 525.752L322.913 515.638C318.824 515.423 316.027 511.334 317.318 507.461L364.66 357.043C365.951 353.169 369.394 350.372 373.483 349.941L550.369 337.03C554.888 336.599 558.116 340.903 556.825 345.207L502.597 518.65C501.306 523.169 497.002 526.182 492.483 525.752Z" fill="#B8D8C7"/>
<path d="M405.546 378.991L375.635 380.498C374.559 380.498 373.913 379.637 374.128 378.561L376.28 371.675C376.71 370.599 377.571 369.953 378.647 369.953L408.774 368.232C409.85 368.232 410.495 369.093 410.28 370.169L407.913 377.27C407.483 378.131 406.622 378.776 405.546 378.991Z" fill="#FFE779"/>
<path d="M343.141 495.84C340.128 495.625 337.976 492.827 338.837 489.815L353.039 445.055C353.685 443.118 355.407 441.827 357.343 441.827C360.356 441.827 362.723 444.84 361.647 447.852L347.444 492.612C347.229 494.549 345.292 496.055 343.141 495.84Z" fill="#FFE779"/>
<path d="M364.445 496.701C361.217 496.486 359.065 493.473 360.141 490.46L382.951 417.941C383.596 416.004 385.318 414.713 387.47 414.498C390.698 414.498 393.065 417.511 392.204 420.739L369.394 493.258C368.533 495.625 366.596 496.916 364.445 496.701Z" fill="#63737A"/>
<path d="M386.394 497.777C383.166 497.562 381.014 494.549 381.875 491.321L391.343 461.41C391.989 459.258 393.925 457.967 396.077 457.967C399.305 457.967 401.672 461.195 400.811 464.423L391.343 494.334C390.697 496.486 388.546 497.777 386.394 497.777Z" fill="#FFE779"/>
<path d="M409.204 498.638C405.761 498.422 403.609 495.194 404.47 491.967L431.369 406.321C432.014 404.169 433.951 402.878 436.103 402.663C439.546 402.663 442.128 405.89 441.052 409.334L414.153 494.979C413.508 497.346 411.356 498.853 409.204 498.638Z" fill="#B8D8C7"/>
<path d="M432.66 499.713C429.217 499.498 426.85 496.055 427.711 492.827L445.356 436.447C446.002 434.295 448.154 432.789 450.306 432.789C453.964 432.789 456.546 436.232 455.47 439.675L437.825 496.055C437.179 498.207 435.027 499.713 432.66 499.713Z" fill="#63737A"/>
<path d="M457.191 500.789C453.533 500.574 451.166 497.131 452.242 493.688L455.9 481.638C456.546 479.27 458.913 477.764 461.28 477.764C464.938 477.764 467.52 481.422 466.445 484.865L462.786 496.916C461.926 499.283 459.558 500.789 457.191 500.789Z" fill="#F4C2C9"/>
<path d="M482.369 501.865C478.71 501.65 476.128 497.992 477.204 494.549L495.495 436.447C496.141 434.08 498.508 432.359 500.875 432.359C504.748 432.359 507.546 436.017 506.47 439.675L488.179 497.777C487.318 500.359 484.951 501.865 482.369 501.865Z" fill="#FFE779"/>
<path d="M506.47 368.232C506.9 366.726 506.255 365.435 505.179 365.435C503.888 365.435 502.597 366.726 501.951 368.447C501.521 369.954 502.166 371.245 503.242 371.245C504.533 371.03 506.04 369.738 506.47 368.232Z" fill="#63737A"/>
<path d="M517.66 367.587C518.09 366.08 517.445 364.789 516.153 364.789C514.862 364.789 513.356 366.295 512.926 367.802C512.495 369.308 513.141 370.599 514.432 370.599C515.723 370.384 517.229 369.093 517.66 367.587Z" fill="#63737A"/>
<path d="M529.065 366.941C529.495 365.435 528.85 364.144 527.559 364.144C526.267 364.144 524.761 365.65 524.331 367.156C523.9 368.663 524.546 369.954 525.837 369.954C527.128 369.954 528.635 368.447 529.065 366.941Z" fill="#63737A"/>
</g>
<defs>
<filter id="filter0_d_644_1226" x="0" y="0" width="602.976" height="509.805" filterUnits="userSpaceOnUse" color-interpolation-filters="sRGB">
<feFlood flood-opacity="0" result="BackgroundImageFix"/>
<feColorMatrix in="SourceAlpha" type="matrix" values="0 0 0 0 0 0 0 0 0 0 0 0 0 0 0 0 0 0 127 0" result="hardAlpha"/>
<feOffset dy="17"/>
<feGaussianBlur stdDeviation="20"/>
<feColorMatrix type="matrix" values="0 0 0 0 0 0 0 0 0 0 0 0 0 0 0 0 0 0 0.13 0"/>
<feBlend mode="normal" in2="BackgroundImageFix" result="effect1_dropShadow_644_1226"/>
<feBlend mode="normal" in="SourceGraphic" in2="effect1_dropShadow_644_1226" result="shape"/>
</filter>
<filter id="filter1_d_644_1226" x="277" y="314" width="326.352" height="272.666" filterUnits="userSpaceOnUse" color-interpolation-filters="sRGB">
<feFlood flood-opacity="0" result="BackgroundImageFix"/>
<feColorMatrix in="SourceAlpha" type="matrix" values="0 0 0 0 0 0 0 0 0 0 0 0 0 0 0 0 0 0 127 0" result="hardAlpha"/>
<feOffset dy="17"/>
<feGaussianBlur stdDeviation="20"/>
<feColorMatrix type="matrix" values="0 0 0 0 0 0 0 0 0 0 0 0 0 0 0 0 0 0 0.13 0"/>
<feBlend mode="normal" in2="BackgroundImageFix" result="effect1_dropShadow_644_1226"/>
<feBlend mode="normal" in="SourceGraphic" in2="effect1_dropShadow_644_1226" result="shape"/>
</filter>
</defs>
</svg>
