<svg width="75" height="75" viewBox="0 0 75 75" fill="none" xmlns="http://www.w3.org/2000/svg">
<path d="M14.6779 59.8397C30.9121 75.5819 51.0818 78.6741 58.3907 67.8514C64.8563 58.2936 58.7421 41.2864 45.5299 28.9878C32.5285 16.9 15.3808 11.9103 6.10409 18.3055C-4.36729 25.4739 -1.27511 44.3786 14.6779 59.8397Z" fill="#F8AB5D"/>
<path d="M16.9973 57.45C33.2315 73.1923 53.4012 76.2845 60.71 65.4617C67.1756 55.9039 61.0614 38.8967 47.8492 26.5981C34.8478 14.5103 17.7001 9.52062 8.42343 15.9159C-2.11823 23.1545 1.04427 42.0592 16.9973 57.45Z" fill="#FFE779"/>
<path d="M23.8143 50.6333C33.5829 59.9802 45.8113 62.2994 50.7307 56.0447C55.2285 50.2819 51.6443 39.3889 43.0705 31.3772C34.5668 23.4358 23.5332 20.4139 17.8407 24.9116C11.7266 29.6905 14.1863 41.3566 23.8143 50.6333Z" fill="#6DAFA7"/>
<path d="M30.0686 44.3793C33.9339 48.0337 38.8533 49.0879 40.9617 46.7687C42.9997 44.5198 41.6644 39.9518 38.01 36.5082C34.3556 33.0645 29.647 31.9401 27.3981 33.9782C25.0789 36.0162 26.2033 40.7248 30.0686 44.3793Z" fill="#F4C2C9"/>
<path d="M55.0174 20.7658C56.4932 22.1713 58.8826 22.0308 60.2179 20.5549L72.7274 4.6019C73.3599 3.75856 73.2896 2.56384 72.5165 1.86107C71.7435 1.15829 70.5487 1.15829 69.7757 1.86107L54.8768 15.5652C53.401 17.0411 53.4712 19.3602 55.0174 20.7658Z" fill="#22272E"/>
<path d="M69.8462 7.62382L73.852 8.18604C74.9764 8.3266 75.3981 9.73215 74.5548 10.4349C72.0951 12.6135 69.0731 14.0191 65.8404 14.5813L63.8023 14.9327C63.5915 15.003 63.3806 14.7219 63.5212 14.511L68.5812 8.11576C68.9326 7.76437 69.3542 7.55354 69.8462 7.62382Z" fill="#6DAFA7"/>
<path d="M66.8941 4.95267L65.9804 1.01711C65.7696 -0.0370568 64.364 -0.388443 63.6613 0.525167C61.6935 3.12544 60.4988 6.21767 60.2177 9.52072L60.0771 11.5588C60.0771 11.7696 60.3582 11.9102 60.4988 11.7696L66.4724 6.28794C66.894 5.86627 67.0346 5.37433 66.8941 4.95267Z" fill="#6DAFA7"/>
<path d="M55.5801 20.1328L51.5742 24.4197" stroke="#22272E" stroke-width="1.8" stroke-miterlimit="10" stroke-linecap="round" stroke-linejoin="round"/>
</svg>
