<svg width="100" height="79" viewBox="0 0 100 79" fill="none" xmlns="http://www.w3.org/2000/svg">
<path d="M73.7658 78.191L4.93331 74.0856C3.27365 73.9982 2.13811 72.3385 2.66221 70.7662L21.8794 9.70798C22.4035 8.13567 23.8011 7.00012 25.4608 6.82541L97.2632 1.58436C99.0975 1.40966 100.408 3.15667 99.8837 4.90369L77.8713 75.3085C77.3472 77.1428 75.6001 78.3657 73.7658 78.191Z" fill="#FFE779"/>
<path d="M71.2326 76.6188L2.40016 72.5133C0.740493 72.4259 -0.3951 70.7663 0.129005 69.194L19.3462 8.13573C19.8703 6.56342 21.2679 5.42784 22.9276 5.25314L94.73 0.0120984C96.5643 -0.162603 97.8746 1.58442 97.3505 3.33143L75.3381 73.7362C74.814 75.5706 73.067 76.7935 71.2326 76.6188Z" fill="#6DAFA7"/>
<path d="M35.9428 17.0453L23.8011 17.6567C23.3643 17.6567 23.1022 17.3073 23.1896 16.8706L24.0631 14.0754C24.2378 13.6386 24.5872 13.3766 25.0239 13.3766L37.2531 12.6777C37.6898 12.6777 37.9519 13.0272 37.8645 13.4639L36.9037 16.3465C36.729 16.6959 36.3795 16.9579 35.9428 17.0453Z" fill="#FFE779"/>
<path d="M10.6113 64.4768C9.38836 64.3895 8.51485 63.2539 8.86426 62.031L14.6294 43.862C14.8915 43.0759 15.5903 42.5518 16.3765 42.5518C17.5994 42.5518 18.5602 43.7747 18.1235 44.9976L12.3583 63.1666C12.2709 63.9527 11.4848 64.5642 10.6113 64.4768Z" fill="#FFE779"/>
<path d="M19.2591 64.826C17.9488 64.7387 17.0753 63.5158 17.5121 62.2929L26.7712 32.8556C27.0333 32.0695 27.7321 31.5454 28.6056 31.458C29.9159 31.458 30.8767 32.6809 30.5273 33.9912L21.2681 63.4284C20.9187 64.3893 20.1326 64.9134 19.2591 64.826Z" fill="#63737A"/>
<path d="M28.1691 65.2624C26.8588 65.1751 25.9853 63.9522 26.3347 62.6419L30.1781 50.5002C30.4402 49.6266 31.2263 49.1025 32.0998 49.1025C33.4101 49.1025 34.3709 50.4128 34.0215 51.7231L30.1781 63.8648C29.9161 64.7383 29.0426 65.2624 28.1691 65.2624Z" fill="#FFE779"/>
<path d="M37.428 65.6118C36.0304 65.5245 35.1568 64.2142 35.5062 62.9039L46.4251 28.1383C46.6872 27.2648 47.4733 26.7407 48.3468 26.6533C49.7444 26.6533 50.7926 27.9636 50.3559 29.3612L39.437 64.1269C39.175 65.0877 38.3015 65.6992 37.428 65.6118Z" fill="#B8D8C7"/>
<path d="M46.9494 66.0489C45.5518 65.9616 44.5909 64.564 44.9403 63.2537L52.103 40.3678C52.3651 39.4943 53.2386 38.8828 54.1121 38.8828C55.5971 38.8828 56.6453 40.2804 56.2085 41.6781L49.0458 64.564C48.7837 65.4375 47.9102 66.0489 46.9494 66.0489Z" fill="#63737A"/>
<path d="M56.9075 66.4852C55.4225 66.3978 54.4617 65.0002 54.8984 63.6026L56.3834 58.711C56.6455 57.7501 57.6063 57.1387 58.5672 57.1387C60.0522 57.1387 61.1003 58.6236 60.6636 60.0212L59.1787 64.9129C58.8293 65.8738 57.8684 66.4852 56.9075 66.4852Z" fill="#F4C2C9"/>
<path d="M67.1276 66.9213C65.6426 66.834 64.5944 65.349 65.0311 63.9514L72.4559 40.3667C72.718 39.4058 73.6789 38.707 74.6397 38.707C76.212 38.707 77.3476 40.192 76.9109 41.677L69.486 65.2617C69.1366 66.3099 68.1758 66.9213 67.1276 66.9213Z" fill="#FFE779"/>
<path d="M76.9106 12.6785C77.0853 12.0671 76.8232 11.543 76.3865 11.543C75.8624 11.543 75.3383 12.0671 75.0762 12.7659C74.9015 13.3773 75.1636 13.9015 75.6003 13.9015C76.1244 13.8141 76.7359 13.29 76.9106 12.6785Z" fill="#63737A"/>
<path d="M81.4527 12.4158C81.6274 11.8044 81.3653 11.2803 80.8412 11.2803C80.3171 11.2803 79.7057 11.8917 79.5309 12.5032C79.3562 13.1146 79.6183 13.6387 80.1424 13.6387C80.6665 13.5514 81.278 13.0273 81.4527 12.4158Z" fill="#63737A"/>
<path d="M86.0826 12.1541C86.2573 11.5427 85.9952 11.0186 85.4711 11.0186C84.947 11.0186 84.3355 11.63 84.1608 12.2415C83.9861 12.8529 84.2482 13.377 84.7723 13.377C85.2964 13.377 85.9079 12.7656 86.0826 12.1541Z" fill="#63737A"/>
</svg>
