<svg width="160" height="106" viewBox="0 0 160 106" fill="none" xmlns="http://www.w3.org/2000/svg">
<path d="M18.5405 105.71L153.141 100.21C156.041 100.11 158.041 97.4103 157.641 94.1103L146.641 13.2103C146.241 10.0103 143.441 7.41028 140.541 7.21028L5.94049 1.71028C2.24049 1.51028 -0.359467 4.31028 0.0405273 7.91028L11.0405 99.2103C11.4405 103.01 14.8405 105.91 18.5405 105.71Z" fill="#F8AB5D"/>
<path d="M20.8403 104.01L155.44 98.5101C158.34 98.4101 160.34 95.7101 159.94 92.4101L148.94 11.5101C148.54 8.31008 145.74 5.71008 142.84 5.51008L8.24036 0.010083C4.54036 -0.189917 1.94034 2.61008 2.34033 6.21008L13.3403 97.5101C13.7403 101.31 17.1403 104.11 20.8403 104.01Z" fill="#FFE779"/>
<path d="M127.74 51.8096H92.1402" stroke="#F8AB5D" stroke-width="1.8" stroke-miterlimit="10" stroke-linecap="round" stroke-linejoin="round"/>
<path d="M95.9401 81.1104L115.14 80.6104C118.14 80.5104 120.14 77.9103 119.74 74.8103L113.64 28.9104C113.24 25.8104 110.54 23.2104 107.54 23.1104L88.3402 22.6104" stroke="#F8AB5D" stroke-width="1.8" stroke-miterlimit="10" stroke-linecap="round" stroke-linejoin="round"/>
<path d="M67.34 27.91L89.64 28.31C90.94 28.31 91.74 27.31 91.64 26.01L90.7401 19.31C90.5401 18.01 89.44 16.91 88.14 16.91L65.84 16.21C64.54 16.21 63.6401 17.21 63.7401 18.51L64.64 25.31C64.84 26.81 66.04 27.91 67.34 27.91Z" fill="#6DAFA7"/>
<path d="M28.9403 57.8103L52.8403 57.7104C54.1403 57.7104 55.1403 56.6104 54.9403 55.2104L54.0403 48.2104C53.8403 46.8104 52.6403 45.7104 51.3403 45.7104L27.4403 45.6104C26.0403 45.6104 25.0403 46.7104 25.2403 48.1104L26.1403 55.2104C26.2403 56.7104 27.5403 57.8103 28.9403 57.8103Z" fill="#6DAFA7"/>
<path d="M74.84 87.5097L97.14 86.9096C98.44 86.9096 99.24 85.8097 99.14 84.5097L98.2401 77.7096C98.0401 76.4096 96.94 75.3096 95.64 75.4096L73.34 75.8096C72.04 75.8096 71.1401 76.9096 71.2401 78.3096L72.14 85.2096C72.34 86.5096 73.54 87.5097 74.84 87.5097Z" fill="#6DAFA7"/>
<path d="M67.9399 51.71H54.4399" stroke="#F8AB5D" stroke-width="1.8" stroke-miterlimit="10" stroke-linecap="round" stroke-linejoin="round"/>
<path d="M71.0402 57.6102L93.3402 57.5102C94.6402 57.5102 95.4402 56.4102 95.3402 55.1102L94.4402 48.4102C94.2402 47.1102 93.1402 46.0102 91.8402 46.0102L69.5402 45.9102C68.2402 45.9102 67.3402 47.0102 67.4402 48.3102L68.3402 55.2102C68.5402 56.5102 69.7402 57.6102 71.0402 57.6102Z" fill="#F4C2C9"/>
<path d="M127.74 51.81C127.24 48.11 129.64 45.21 133.04 45.21C136.44 45.21 139.54 48.21 140.04 51.81C140.54 55.41 138.24 58.41 134.84 58.41C131.44 58.41 128.24 55.51 127.74 51.81Z" fill="#6DAFA7"/>
</svg>
