<svg width="61" height="61" viewBox="0 0 61 61" fill="none" xmlns="http://www.w3.org/2000/svg">
<path d="M56.9703 33.2847C48.7043 51.3003 28.7813 63.1693 15.2166 59.5662C3.34749 56.387 1.01599 42.1865 8.64612 28.1979C15.8524 14.6333 30.9007 4.03584 43.6176 3.61194C57.8181 3.4 64.8123 16.3288 56.9703 33.2847Z" fill="#F8AB5D"/>
<path d="M52.7315 29.6828C44.4655 47.6984 24.5425 59.5676 10.9778 55.9645C-0.891277 52.7852 -3.22278 38.5847 4.40735 24.5961C11.6136 11.0314 26.6619 0.434026 39.3788 0.0101295C53.7913 -0.413767 60.5736 12.515 52.7315 29.6828Z" fill="#FFE779"/>
<path d="M45.9489 29.0467C39.5905 42.3994 24.966 51.5132 14.5805 49.1817C5.25478 47.0623 3.13535 36.2529 9.0699 25.0197C14.7925 14.4223 26.6616 5.94434 36.4113 5.94434C47.2206 5.94434 52.0954 16.1178 45.9489 29.0467Z" fill="#F8AB5D"/>
<path d="M17.7596 40.4917L18.6074 39.0081C18.8193 38.3723 18.8194 37.9484 18.3955 37.7364C17.3358 37.3125 16.4879 36.8886 16.064 36.2528C15.852 36.0408 15.8521 35.405 16.276 34.7692L16.4879 34.5572C16.9118 33.9214 17.7596 33.7094 17.9716 34.1333C18.6074 34.7691 19.6671 35.405 20.9388 35.617C23.0583 36.0409 25.3898 34.5572 26.4495 32.6497C27.5092 30.7422 26.8733 29.2585 25.1777 27.9868C22.8463 26.2912 21.7866 24.3837 23.4822 21.4164C24.7539 18.873 27.2973 16.9655 30.0526 16.3297C30.4765 16.3297 31.1123 15.9058 31.3243 15.2699L32.1721 13.7863C32.3841 13.1505 33.2318 12.7266 33.6557 12.7266C34.0796 12.7266 34.2915 13.1505 34.0796 13.7863L33.4438 15.058C33.2318 15.6938 33.2318 16.1177 33.8677 16.1177C34.7155 16.3297 35.3513 16.5416 35.9872 16.9655C36.4111 17.1775 36.199 17.8133 35.7751 18.4492L35.5632 18.6611C35.1394 19.297 34.2916 19.5089 33.8677 19.2969C33.2318 18.873 32.3841 18.4492 31.1124 18.4492C28.781 18.2372 27.0853 19.7208 26.4495 21.2045C25.6017 22.9001 26.2375 23.9598 28.1451 25.4434C30.6884 27.351 31.3243 29.4705 29.6287 32.6497C28.357 35.405 25.6017 37.7364 22.4224 38.1603C21.9985 38.1603 21.3627 38.5842 21.1508 39.22L20.303 40.9157C19.8791 41.5515 19.2432 41.9754 18.8193 41.9754C17.5476 41.5515 17.3357 41.1276 17.7596 40.4917Z" fill="#FFE779"/>
</svg>
