<svg width="75" height="66" viewBox="0 0 75 66" fill="none" xmlns="http://www.w3.org/2000/svg">
<path d="M23.2961 17.4666L5.19707 26.5247C4.32931 26.959 3.95775 28.075 4.39204 28.9428L8.48675 37.1245C8.92104 37.9923 10.0371 38.3639 10.9049 37.9296L29.0039 28.8715L31.3615 33.5822C31.9819 34.8219 33.7178 34.8832 34.3993 33.767L45.4894 15.3505C46.171 14.2343 45.4885 12.8707 44.1866 12.7472L22.7976 10.5854C21.4956 10.4619 20.5043 11.8882 21.1247 13.1278L23.2961 17.4666Z" fill="#63737A"/>
<path d="M23.9157 15.6063L5.8167 24.6643C4.94894 25.0986 4.57737 26.2146 5.01166 27.0824L9.10638 35.2641C9.54067 36.1319 10.6567 36.5035 11.5245 36.0692L29.6236 27.0112L31.9811 31.7219C32.6015 32.9615 34.3374 33.0229 35.0189 31.9067L46.1091 13.4901C46.7906 12.3739 46.1081 11.0103 44.8062 10.8868L23.4172 8.72501C22.1153 8.60151 21.1239 10.0278 21.7443 11.2675L23.9157 15.6063Z" fill="#6DAFA7"/>
<path d="M52.323 48.883L70.4221 39.8249C71.2899 39.3906 71.6614 38.2746 71.2271 37.4069L67.1324 29.2251C66.6981 28.3574 65.582 27.9857 64.7143 28.42L46.6152 37.4781L44.2577 32.7674C43.6372 31.5277 41.9014 31.4664 41.2199 32.5826L30.1297 50.9991C29.4482 52.1153 30.1306 53.4789 31.4326 53.6024L52.8216 55.7642C54.1235 55.8877 55.1149 54.4614 54.4945 53.2218L52.323 48.883Z" fill="#F8AB5D"/>
<path d="M50.4632 48.2648L68.5622 39.2068C69.43 38.7725 69.8015 37.6565 69.3672 36.7887L65.2725 28.607C64.8382 27.7392 63.7222 27.3676 62.8544 27.8019L44.7554 36.8599L42.3978 32.1492C41.7774 30.9095 40.0415 30.8482 39.36 31.9644L28.2698 50.381C27.5883 51.4971 28.2708 52.8607 29.5727 52.9842L50.9617 55.1461C52.2637 55.2696 53.255 53.8433 52.6346 52.6036L50.4632 48.2648Z" fill="#FFE779"/>
</svg>
