<svg width="50" height="41" viewBox="0 0 50 41" fill="none" xmlns="http://www.w3.org/2000/svg">
<path d="M46.8595 7.56786C46.0289 6.04271 44.7893 4.77956 43.28 3.92049C36.3453 0.0421925 29.3426 2.4466 25.9126 7.48636C22.435 2.38547 15.2965 -0.0257287 8.25308 4.0903C6.97504 4.83416 5.90696 5.89055 5.14908 7.16033C1.96357 12.5125 2.58845 17.8851 5.26454 21.7091C5.31283 21.7776 5.36499 21.8434 5.42076 21.906V21.94C5.4751 22.0147 8.88474 25.9677 11.0175 28.1276C15.0888 32.0938 19.3574 35.8523 23.807 39.3889C24.3826 39.8578 25.1023 40.1138 25.8447 40.1138C26.587 40.1138 27.3067 39.8578 27.8823 39.3889C31.7198 36.3257 34.8374 33.67 37.1535 31.6391C38.9229 30.1663 40.5929 28.578 42.1525 26.8847C45.4807 23.2101 52.8094 18.3945 46.8595 7.56786Z" fill="#C74848"/>
<path d="M43.8595 5.56786C43.0289 4.04271 41.7893 2.77956 40.28 1.92049C33.3453 -1.95781 26.3426 0.446603 22.9126 5.48636C19.435 0.385474 12.2965 -2.02573 5.25308 2.0903C3.97504 2.83416 2.90696 3.89055 2.14908 5.16033C-1.03643 10.5125 -0.411551 15.8851 2.26454 19.7091C2.31283 19.7776 2.36499 19.8434 2.42076 19.906V19.94C2.4751 20.0147 5.88474 23.9677 8.01747 26.1276C12.0888 30.0938 16.3574 33.8523 20.807 37.3889C21.3826 37.8578 22.1023 38.1138 22.8447 38.1138C23.587 38.1138 24.3067 37.8578 24.8823 37.3889C28.7198 34.3257 31.8374 31.67 34.1535 29.6391C35.9229 28.1663 37.5929 26.578 39.1525 24.8847C42.4807 21.2101 49.8094 16.3945 43.8595 5.56786Z" fill="#FB6D6D"/>
</svg>
